<svg height="150" viewBox="0 0 100 150" width="100" xmlns="http://www.w3.org/2000/svg" xmlns:xlink="http://www.w3.org/1999/xlink"><clipPath id="a"><path d="m611.028 1163.107a3.061 3.061 0 0 1 -6.056 0c-3.1.075-3.514 3.552-2.43 5.309a16.234 16.234 0 0 0 2.729 3.439c.572.592 1.2 1.222 1.729 1.793v117.489a.994.994 0 0 0 .992.992h.016a.994.994 0 0 0 .992-.992v-117.489c.527-.571 1.157-1.2 1.729-1.793a16.234 16.234 0 0 0 2.729-3.439c1.084-1.757.673-5.234-2.43-5.309z"/></clipPath><g transform="translate(-600 -1150)"><path d="m633.844 1276.552c6.382 3.924 2.708 10.189-2.806 15.637-4 3.956-10.69 6.594-12.642 5.062-2.566-2.013-1.854-8.549.824-15.12 2.925-7.179 8.274-9.483 14.624-5.579z" fill="#752125"/><path d="m624 1295.422c0 2.728-2.91 3.64-6.5 3.64s-6.5.648-6.5-2.08 5.25-7.8 8.84-7.8 4.16 3.512 4.16 6.24z" fill="#eb3b56"/><path d="m666.156 1276.552c-6.382 3.924-2.708 10.189 2.806 15.637 4 3.956 10.69 6.594 12.642 5.062 2.566-2.013 1.854-8.549-.824-15.12-2.925-7.179-8.274-9.483-14.624-5.579z" fill="#752125"/><path d="m676 1295.422c0 2.728 2.91 3.64 6.5 3.64s6.5.648 6.5-2.08-5.25-7.8-8.84-7.8-4.16 3.512-4.16 6.24z" fill="#eb3b56"/><path d="m650 1297.259c6.687-3.076 45-21.735 45-45.259v-57h-90v57c0 23.524 38.312 42.183 45 45.259z" fill="#e5284c"/><path d="m692.5 1252c0 18.925-29.013 36.284-42.5 42.524-13.494-6.228-42.5-23.561-42.5-42.524v-57h-5v57c0 27.614 47.5 48 47.5 48s47.5-20.386 47.5-48v-57h-5z" fill="#d31341"/><path d="m653.082 1228.251a3.116 3.116 0 0 1 -6.164 0c-3.159.076-3.578 3.616-2.474 5.4a16.488 16.488 0 0 0 2.778 3.5 26.66 26.66 0 0 1 2.74 3.027s.024.086.038.063c.014.023.038-.063.038-.063a26.66 26.66 0 0 1 2.74-3.027 16.488 16.488 0 0 0 2.778-3.5c1.104-1.784.685-5.324-2.474-5.4z" fill="#e6e6e6"/><path d="m666.082 1241.5a3.116 3.116 0 0 1 -6.164 0c-3.159.076-3.578 3.616-2.474 5.4a16.488 16.488 0 0 0 2.778 3.5 26.66 26.66 0 0 1 2.74 3.027s.024.086.038.063c.014.023.038-.063.038-.063a26.66 26.66 0 0 1 2.74-3.027 16.488 16.488 0 0 0 2.778-3.5c1.104-1.783.685-5.323-2.474-5.4z" fill="#e6e6e6"/><path d="m666.082 1215a3.116 3.116 0 0 1 -6.164 0c-3.159.076-3.578 3.616-2.474 5.4a16.488 16.488 0 0 0 2.778 3.5 26.66 26.66 0 0 1 2.74 3.027s.024.086.038.063c.014.023.038-.063.038-.063a26.66 26.66 0 0 1 2.74-3.027 16.488 16.488 0 0 0 2.778-3.5c1.104-1.783.685-5.323-2.474-5.4z" fill="#e6e6e6"/><path d="m666.082 1268a3.116 3.116 0 0 1 -6.164 0c-3.159.076-3.578 3.616-2.474 5.4a16.488 16.488 0 0 0 2.778 3.5 26.66 26.66 0 0 1 2.74 3.027s.024.086.038.063c.014.023.038-.063.038-.063a26.66 26.66 0 0 1 2.74-3.027 16.488 16.488 0 0 0 2.778-3.5c1.104-1.783.685-5.323-2.474-5.4z" fill="#e6e6e6"/><path d="m640.082 1241.5a3.116 3.116 0 0 1 -6.164 0c-3.159.076-3.578 3.616-2.474 5.4a16.488 16.488 0 0 0 2.778 3.5 26.66 26.66 0 0 1 2.74 3.027s.024.086.038.063c.014.023.038-.063.038-.063a26.66 26.66 0 0 1 2.74-3.027 16.488 16.488 0 0 0 2.778-3.5c1.104-1.783.685-5.323-2.474-5.4z" fill="#e6e6e6"/><path d="m640.082 1215a3.116 3.116 0 0 1 -6.164 0c-3.159.076-3.578 3.616-2.474 5.4a16.488 16.488 0 0 0 2.778 3.5 26.66 26.66 0 0 1 2.74 3.027s.024.086.038.063c.014.023.038-.063.038-.063a26.66 26.66 0 0 1 2.74-3.027 16.488 16.488 0 0 0 2.778-3.5c1.104-1.783.685-5.323-2.474-5.4z" fill="#e6e6e6"/><path d="m640.082 1268a3.116 3.116 0 0 1 -6.164 0c-3.159.076-3.578 3.616-2.474 5.4a16.488 16.488 0 0 0 2.778 3.5 26.66 26.66 0 0 1 2.74 3.027s.024.086.038.063c.014.023.038-.063.038-.063a26.66 26.66 0 0 1 2.74-3.027 16.488 16.488 0 0 0 2.778-3.5c1.104-1.783.685-5.323-2.474-5.4z" fill="#e6e6e6"/><path d="m621.7 1189.066c-2.507-2.929-2.366-7.518-.557-9.066" fill="#eb3b56"/><path d="m678.1 1189.066c2.507-2.929 2.366-7.518.557-9.066" fill="#eb3b56"/><path d="m678.814 1180.608c1.195 14.192-12.914 29.392-28.849 29.392s-28.85-12.162-28.85-29.392c0-.2 28.65-7.094 28.85-7.094 1.194 0 28.835 6.892 28.849 7.094z" fill="#eb3b56"/><path d="m665.266 1160.15c-11.9-.285-14.636 8.768-15.266 13.123-.63-4.355-3.37-13.408-15.266-13.123-15.643.376-17.716 17.843-12.251 26.671s8.293 9.566 13.759 15.2c5.147 5.307 11.3-.155 13.57 3.5 0 0 .121.427.188.311.067.116.188-.311.188-.311 2.273-3.659 8.423 1.8 13.57-3.5 5.466-5.634 8.293-6.373 13.759-15.2s3.392-26.295-12.251-26.671z" fill="#e5284c"/><path d="m635.278 1160.144v2c9.648 0 12.124 7.152 12.742 11.416a2 2 0 0 0 3.958 0c.618-4.264 3.093-11.416 12.742-11.416.163 0 .33 0 .5.006 5.113.122 8.967 2.316 11.148 6.344a18.5 18.5 0 0 1 -.55 17.274 39.72 39.72 0 0 1 -8.934 10.567c-1.324 1.175-2.825 2.506-4.559 4.294a5.845 5.845 0 0 1 -4.586 1.869 21.917 21.917 0 0 1 -2.363-.173 20.973 20.973 0 0 0 -2.272-.168 6.6 6.6 0 0 1 -6.2 0 20.973 20.973 0 0 0 -2.272.168 21.917 21.917 0 0 1 -2.363.173 5.845 5.845 0 0 1 -4.586-1.869c-1.734-1.788-3.235-3.119-4.559-4.294a39.72 39.72 0 0 1 -8.934-10.567 18.5 18.5 0 0 1 -.55-17.274c2.181-4.028 6.035-6.222 11.148-6.344.168 0 .332-.006.5-.006v-2m29.443 0c-11.436 0-14.1 8.842-14.721 13.129-.621-4.287-3.287-13.129-14.721-13.129-.18 0-.361 0-.545.006-15.643.376-17.716 17.843-12.251 26.671s8.293 9.566 13.759 15.2a7.858 7.858 0 0 0 6.021 2.477c1.69 0 3.29-.341 4.635-.341a3.068 3.068 0 0 1 2.914 1.368s.094.331.162.331c.009 0 .018-.006.026-.02.008.014.017.02.026.02.068 0 .162-.331.162-.331a3.068 3.068 0 0 1 2.914-1.368c1.345 0 2.945.341 4.635.341a7.859 7.859 0 0 0 6.021-2.477c5.466-5.634 8.293-6.373 13.759-15.2s3.392-26.3-12.251-26.671q-.276-.006-.545-.006z" fill="#ff83a1" opacity=".8"/><path d="m650 1184.459-7.971-31.657a2.4 2.4 0 0 1 2.52-2.8h10.9a2.4 2.4 0 0 1 2.52 2.8z" fill="#e6e6e6"/><path d="m650 1191.554c-10.949 0-20.971-2.6-28.732-6.921 0 18.07 28.732 25.164 28.732 25.164s28.732-8.108 28.732-25.164c-7.761 4.316-17.783 6.921-28.732 6.921z" fill="#f74668"/><g fill="#eb3b56"><path d="m672.166 1192.139q.144-1.07.286-2.139a2.171 2.171 0 0 1 .413-1.164c.5-.622 1.477-1.01 1.881-.4.371.565.168 1.5.128 2.139a10.977 10.977 0 0 1 -1.278 4.372 1.466 1.466 0 0 1 -.419.539 1.443 1.443 0 0 1 -.885.276c-.507-.033-.557-.4-.517-.7q.195-1.462.391-2.923z"/><path d="m665.443 1195.583.178-2.758a2.775 2.775 0 0 1 .4-1.485c.532-.776 1.645-1.218 2.159-.4a5.557 5.557 0 0 1 .3 2.785 14.394 14.394 0 0 1 -1.171 5.593 1.624 1.624 0 0 1 -.449.673 1.42 1.42 0 0 1 -1.008.3c-.593-.074-.678-.554-.653-.939q.122-1.882.244-3.769z"/><path d="m658.834 1198.442.273-3.415a3.737 3.737 0 0 1 .469-1.815c.6-.922 1.8-1.378 2.334-.313.486.98.269 2.452.244 3.489a19.728 19.728 0 0 1 -1.423 6.86 1.927 1.927 0 0 1 -.5.8 1.333 1.333 0 0 1 -1.094.293c-.635-.142-.712-.746-.675-1.222q.186-2.338.372-4.677z"/><path d="m652.126 1200.3q.02-1.926.038-3.851a4.239 4.239 0 0 1 .369-2.055c.573-1.053 1.844-1.6 2.494-.414.6 1.09.474 2.752.526 3.92a22.637 22.637 0 0 1 -1.02 7.76 2.067 2.067 0 0 1 -.481.914 1.353 1.353 0 0 1 -1.158.358c-.7-.143-.824-.821-.819-1.358z"/><path d="m627.834 1192.139q-.144-1.07-.286-2.139a2.171 2.171 0 0 0 -.413-1.164c-.5-.622-1.477-1.01-1.881-.4-.371.565-.168 1.5-.128 2.139a10.977 10.977 0 0 0 1.278 4.372 1.466 1.466 0 0 0 .419.539 1.443 1.443 0 0 0 .885.276c.507-.033.557-.4.517-.7q-.195-1.462-.391-2.923z"/><path d="m634.641 1195.583-.178-2.758a2.784 2.784 0 0 0 -.4-1.485c-.532-.776-1.646-1.218-2.159-.4a5.556 5.556 0 0 0 -.3 2.785 14.376 14.376 0 0 0 1.171 5.593 1.605 1.605 0 0 0 .449.673 1.418 1.418 0 0 0 1.008.3c.593-.074.678-.554.653-.939q-.122-1.882-.244-3.769z"/><path d="m641.333 1198.442q-.135-1.709-.272-3.415a3.737 3.737 0 0 0 -.469-1.815c-.595-.922-1.806-1.378-2.335-.313-.486.98-.268 2.452-.244 3.489a19.751 19.751 0 0 0 1.423 6.86 1.919 1.919 0 0 0 .5.8 1.331 1.331 0 0 0 1.093.293c.635-.142.713-.746.675-1.222q-.185-2.338-.371-4.677z"/><path d="m648.125 1200.3q-.02-1.926-.038-3.851a4.24 4.24 0 0 0 -.369-2.055c-.573-1.053-1.844-1.6-2.494-.414-.6 1.09-.474 2.752-.526 3.92a22.638 22.638 0 0 0 1.02 7.76 2.067 2.067 0 0 0 .481.914 1.353 1.353 0 0 0 1.158.358c.7-.143.824-.821.819-1.358z"/><path d="m650 1188.514a110 110 0 0 1 -28.055-3.51 63.358 63.358 0 0 0 56.11 0 110 110 0 0 1 -28.055 3.51z" opacity=".5"/></g><path d="m684.1 1217.908a2.126 2.126 0 0 1 -4.206 0c-2.154.052-2.44 2.466-1.687 3.686a11.249 11.249 0 0 0 1.895 2.388 18.153 18.153 0 0 1 1.869 2.065s.017.059.026.043c.009.016.026-.043.026-.043a18.153 18.153 0 0 1 1.869-2.065 11.249 11.249 0 0 0 1.895-2.388c.756-1.22.47-3.634-1.687-3.686z" fill="#e6e6e6"/><path d="m644.549 1150a2.4 2.4 0 0 0 -2.52 2.8l2.571 10.209c-2.256-1.769-5.421-2.967-9.866-2.861-12.771.307-16.495 12.005-14.458 21.093a8.007 8.007 0 0 0 1.424 7.823l-.06-.976a17.431 17.431 0 0 0 2.226 5.481c.222.484.454.962.7 1.429h-22.066v57c0 11.215 7.835 21.238 17.142 29.188-.144.307-.289.614-.422.943a33.928 33.928 0 0 0 -2.221 7.861c-3.01 1.541-6 4.931-6 6.99 0 2.728 2.91 2.08 6.5 2.08 2.843 0 5.254-.576 6.136-2.17a22.18 22.18 0 0 0 7.4-4.7q.792-.781 1.525-1.583a139.8 139.8 0 0 0 17.44 9.393v-150z" fill="#fff" opacity=".1"/><g clip-path="url(#a)"><rect fill="#e6e6e6" height="126" rx=".992" transform="translate(607 1166.129)" width="2"/><path d="m611.028 1163.107a3.061 3.061 0 0 1 -6.056 0c-3.1.075-3.514 3.552-2.43 5.309a16.234 16.234 0 0 0 2.729 3.439 26.172 26.172 0 0 1 2.692 2.973s.024.085.037.062c.013.023.037-.062.037-.062a26.172 26.172 0 0 1 2.692-2.973 16.234 16.234 0 0 0 2.729-3.439c1.084-1.757.673-5.234-2.43-5.309z" fill="#eb3b56"/><path d="m0 0h6v130h-6z" fill="#fff" opacity=".05" transform="translate(602 1162.129)"/></g><path d="m698.565 1226.588c.915 1.685 2.086 4.268.995 6.134-1.332 2.289-5.444 2.589-7.284.792 1.471-1.7.545-4.83-1.53-6.172a18.368 18.368 0 0 0 3.268-2.973c.637-.632 1.209-1.3 2.15-.91 1.08.441 1.856 2.124 2.401 3.129z" fill="#eb3b56"/><path d="m697.526 1232.88a3.535 3.535 0 0 1 -1.641 1.618 3.188 3.188 0 0 1 -1.074.208 6.894 6.894 0 0 1 -1.829-.26 4.7 4.7 0 0 1 -1.188-.437 3.614 3.614 0 0 1 -1.584-2.066 7.848 7.848 0 0 1 .356-4.979c.684-1.909 1.888-5.036 4.589-3.644 3.469 1.78 3.968 6.732 2.371 9.56z" fill="#eb3b56"/><text fill="#eb3b56" font-family="MyriadPro-Regular, Myriad Pro" font-size="13" transform="translate(650 1163.522)"><tspan x="-3.335" y="0">7</tspan></text><text fill="#e6e6e6" font-family="MyriadPro-Regular, Myriad Pro" font-size="14" transform="translate(682 1214.109)"><tspan x="-3.591" y="0">7</tspan></text><path d="m601.435 1226.588c-.915 1.685-2.086 4.268-.995 6.134 1.332 2.289 5.444 2.589 7.284.792-1.471-1.7-.545-4.83 1.53-6.172a18.368 18.368 0 0 1 -3.268-2.973c-.637-.632-1.209-1.3-2.15-.91-1.08.441-1.856 2.124-2.401 3.129z" fill="#eb3b56"/><path d="m606.092 1231.2a2.285 2.285 0 0 0 .181 1.37 1.861 1.861 0 0 0 .4.49 3.692 3.692 0 0 0 .894.541 2.435 2.435 0 0 0 .67.224 1.89 1.89 0 0 0 1.392-.411 4.759 4.759 0 0 0 1.514-2.51c.339-1.161.858-3.093-.8-3.41-2.123-.406-4.005 1.779-4.251 3.706z" fill="#eb3b56"/></g></svg>