<svg height="150" viewBox="0 0 100 150" width="100" xmlns="http://www.w3.org/2000/svg" xmlns:xlink="http://www.w3.org/1999/xlink"><clipPath id="a"><path d="m1012.666 1017.133c-1.37-1.495-2.962-2.952-3.629-3.718-.5-.574-.854-1.01-1-1.192v-.094l-.037.047-.037-.047v.094c-.146.182-.5.618-1 1.192-.667.766-2.259 2.223-3.629 3.718a4.541 4.541 0 0 0 -1.222 4.227 3.038 3.038 0 0 0 3.592 2.151 2.241 2.241 0 0 0 1.3-.623v.588a4.539 4.539 0 0 1 -1.025 1.932h1.021v115.721a1 1 0 0 0 2 0v-115.721h.925a4.423 4.423 0 0 1 -.925-1.917v-.6a2.229 2.229 0 0 0 1.3.623 3.038 3.038 0 0 0 3.592-2.151 4.541 4.541 0 0 0 -1.226-4.23z"/></clipPath><g transform="translate(-1000 -1000)"><path d="m1033.844 1126.552c6.382 3.924 2.708 10.189-2.806 15.637-4 3.956-10.69 6.594-12.642 5.062-2.566-2.013-1.854-8.549.824-15.12 2.925-7.179 8.274-9.483 14.624-5.579z" fill="#27123e"/><path d="m1024 1145.422c0 2.728-2.91 3.64-6.5 3.64s-6.5.648-6.5-2.08 5.25-7.8 8.84-7.8 4.16 3.512 4.16 6.24z" fill="#27123e"/><path d="m1066.156 1126.552c-6.382 3.924-2.708 10.189 2.806 15.637 4 3.956 10.69 6.594 12.642 5.062 2.566-2.013 1.854-8.549-.824-15.12-2.925-7.179-8.274-9.483-14.624-5.579z" fill="#27123e"/><path d="m1076 1145.422c0 2.728 2.91 3.64 6.5 3.64s6.5.648 6.5-2.08-5.25-7.8-8.84-7.8-4.16 3.512-4.16 6.24z" fill="#27123e"/><path d="m1095 1045h-90v57c0 23.524 38.313 42.183 45 45.259 6.688-3.076 45-21.735 45-45.259z" fill="#27123e"/><path d="m1092.5 1102c0 18.925-29.013 36.284-42.5 42.524-13.494-6.228-42.5-23.561-42.5-42.524v-57h-5v57c0 27.614 47.5 48 47.5 48s47.5-20.386 47.5-48v-57h-5z" fill="#27123e"/><path d="m1007.5 1045h-5v57c0 27.614 47.5 48 47.5 48v-105z" fill="#fff" opacity=".1"/><path d="m1021.7 1039.066c-2.507-2.929-2.366-7.518-.557-9.066" fill="#27123e"/><path d="m1078.1 1039.066c2.507-2.929 2.366-7.518.557-9.066" fill="#27123e"/><path d="m1078.814 1030.608c1.2 14.189-12.916 29.392-28.849 29.392s-28.85-12.162-28.85-29.392c0-.2 28.65-7.094 28.85-7.094 1.194 0 28.835 6.892 28.849 7.094z" fill="#27123e" opacity=".2"/><path d="m1073.332 1018.085c-6.852-5.4-14.814-10.67-18.147-13.437-2.5-2.075-4.271-3.652-5-4.311v-.337s-.065.061-.185.169c-.12-.108-.185-.169-.185-.169v.337c-.729.659-2.5 2.236-5 4.311-3.333 2.767-11.295 8.036-18.146 13.437s-7.407 10.8-6.111 15.282 7.777 19.7 17.961 18.773a13.061 13.061 0 0 0 7.24-2.78c-1.146 6.34-5.884 4.64-5.884 4.64h19.752c-3.606-2.912-4.883-2.038-5.342-4.6a13.081 13.081 0 0 0 7.2 2.744c10.184.923 16.665-14.293 17.961-18.773s.737-9.884-6.114-15.286z" fill="#27123e"/><path d="m1049.992 1002.858.012.01.008-.007c.951.837 2.272 1.979 3.9 3.326s4.213 3.2 7.225 5.357c3.443 2.466 7.345 5.261 10.962 8.112 5.129 4.044 6.854 8.225 5.427 13.155-1.061 3.669-6.745 17.37-15.155 17.37-.233 0-.47-.011-.7-.033a11.184 11.184 0 0 1 -6.124-2.311l-4.162-3.341.941 5.253a5.18 5.18 0 0 0 .9 2.251h-6.134a11.638 11.638 0 0 0 .642-2.285l.958-5.3-4.186 3.4a11.181 11.181 0 0 1 -6.16 2.342c-.235.021-.472.032-.7.032-8.41 0-14.094-13.7-15.155-17.37-1.427-4.93.3-9.111 5.428-13.155 3.617-2.852 7.52-5.647 10.963-8.113 3.012-2.157 5.612-4.019 7.223-5.356s2.948-2.492 3.9-3.329m.193-2.858s-.065.061-.185.169c-.12-.108-.185-.169-.185-.169v.337c-.729.659-2.5 2.236-5 4.311-3.333 2.767-11.295 8.036-18.146 13.437s-7.407 10.8-6.111 15.282c1.258 4.348 7.4 18.814 17.076 18.814q.438 0 .885-.041a13.061 13.061 0 0 0 7.24-2.78c-.546 3.02-1.907 4.216-3.182 4.64h17.05c-3.606-2.912-4.883-2.038-5.342-4.6a13.081 13.081 0 0 0 7.2 2.744c.3.027.594.041.885.041 9.675 0 15.818-14.465 17.076-18.814 1.3-4.479.741-9.88-6.11-15.282s-14.814-10.67-18.147-13.437c-2.5-2.075-4.271-3.652-5-4.311v-.349zm-7.608 54h-2.7a4.49 4.49 0 0 0 1.378.207 4.212 4.212 0 0 0 1.324-.207z" fill="#15b0bf" opacity=".3"/><path d="m1050 1041.554c-10.949 0-20.971-2.6-28.732-6.921 0 18.07 28.732 25.164 28.732 25.164s28.732-8.108 28.732-25.164c-7.761 4.316-17.783 6.921-28.732 6.921z" fill="#3b2860"/><path d="m1072.166 1042.139q.144-1.07.286-2.139a2.172 2.172 0 0 1 .413-1.164c.5-.622 1.477-1.01 1.881-.4.371.565.168 1.5.128 2.139a10.977 10.977 0 0 1 -1.278 4.372 1.466 1.466 0 0 1 -.419.539 1.443 1.443 0 0 1 -.885.276c-.507-.033-.557-.4-.517-.7q.195-1.462.391-2.923z" fill="#27123e"/><path d="m1065.443 1045.583.178-2.758a2.775 2.775 0 0 1 .4-1.485c.532-.776 1.645-1.218 2.159-.4a5.556 5.556 0 0 1 .3 2.785 14.393 14.393 0 0 1 -1.171 5.593 1.624 1.624 0 0 1 -.449.673 1.42 1.42 0 0 1 -1.008.3c-.593-.074-.678-.554-.653-.939q.122-1.882.244-3.769z" fill="#27123e"/><path d="m1058.834 1048.442.273-3.415a3.737 3.737 0 0 1 .469-1.815c.595-.922 1.8-1.378 2.334-.313.486.98.269 2.452.244 3.489a19.728 19.728 0 0 1 -1.423 6.86 1.925 1.925 0 0 1 -.5.8 1.333 1.333 0 0 1 -1.094.293c-.635-.142-.712-.746-.675-1.222q.185-2.338.372-4.677z" fill="#27123e"/><path d="m1052.126 1050.3q.02-1.926.038-3.851a4.242 4.242 0 0 1 .369-2.055c.573-1.053 1.844-1.6 2.494-.414.6 1.09.474 2.752.526 3.92a22.637 22.637 0 0 1 -1.02 7.76 2.067 2.067 0 0 1 -.481.914 1.353 1.353 0 0 1 -1.158.358c-.7-.143-.824-.821-.819-1.358z" fill="#27123e"/><path d="m1027.834 1042.139q-.144-1.07-.286-2.139a2.172 2.172 0 0 0 -.413-1.164c-.5-.622-1.477-1.01-1.881-.4-.371.565-.168 1.5-.128 2.139a10.977 10.977 0 0 0 1.278 4.372 1.466 1.466 0 0 0 .419.539 1.443 1.443 0 0 0 .885.276c.507-.033.557-.4.517-.7q-.195-1.462-.391-2.923z" fill="#27123e"/><path d="m1034.641 1045.583-.178-2.758a2.784 2.784 0 0 0 -.4-1.485c-.532-.776-1.646-1.218-2.159-.4a5.557 5.557 0 0 0 -.3 2.785 14.375 14.375 0 0 0 1.171 5.593 1.605 1.605 0 0 0 .449.673 1.418 1.418 0 0 0 1.008.3c.593-.074.678-.554.653-.939q-.122-1.882-.244-3.769z" fill="#27123e"/><path d="m1041.333 1048.442q-.135-1.709-.272-3.415a3.738 3.738 0 0 0 -.469-1.815c-.6-.922-1.806-1.378-2.335-.313-.486.98-.268 2.452-.244 3.489a19.75 19.75 0 0 0 1.423 6.86 1.918 1.918 0 0 0 .5.8 1.331 1.331 0 0 0 1.093.293c.635-.142.713-.746.675-1.222q-.184-2.338-.371-4.677z" fill="#27123e"/><path d="m1048.125 1050.3q-.019-1.926-.038-3.851a4.24 4.24 0 0 0 -.369-2.055c-.573-1.053-1.844-1.6-2.494-.414-.6 1.09-.474 2.752-.526 3.92a22.637 22.637 0 0 0 1.02 7.76 2.067 2.067 0 0 0 .481.914 1.354 1.354 0 0 0 1.158.358c.695-.143.824-.821.819-1.358z" fill="#27123e"/><path d="m1050 1034.459-7.971-31.657a2.4 2.4 0 0 1 2.52-2.8h10.9a2.4 2.4 0 0 1 2.52 2.8z" fill="#15b0bf"/><text fill="#27123e" font-family="MyriadPro-Regular, Myriad Pro" font-size="13" transform="translate(1050 1013.522)"><tspan x="-2.405" y="0">J</tspan></text><g fill="#3b2860" opacity=".2" stroke-linecap="round" stroke-miterlimit="10"><path d="m1050 1040.55395508c-5.12207031 0-10.13830566-.57617188-14.9095459-1.71252442-.73645019-.17541503-1.46447754-.36340332-2.18334961-.56396484 5.51855469.82214356 11.23425293 1.23657227 17.09289551 1.23657227s11.57434082-.41442871 17.09289551-1.23657227c-.71875.20056152-1.44689942.38854981-2.18334961.56396484-4.77124024 1.13635254-9.78747559 1.71252442-14.9095459 1.71252442z"/><path d="m1050 1041.55395508c-10.63305664 0-20.39196777-2.45593262-28.05499268-6.54992676 8.42694092 2.23901367 17.95501709 3.51000977 28.05499268 3.51000977s19.62805176-1.2709961 28.05505371-3.51000977c-7.66308594 4.09399414-17.42199707 6.54992676-28.05505371 6.54992676z" fill="#15b0bf"/></g><path d="m1053.875 1087.78v-15.888h-9.607v15.428c-4.9 2.19-8.426 7.948-8.426 14.681v24.975h25.534v-24.976c0-6.3-3.09-11.75-7.501-14.22z" fill="#15b0bf"/><path d="m1046.527 1076.14h-2.315l-1.543-6.087h2.528z" fill="#3c2a54"/><path d="m1059.493 1090.381-4.609-12.887h.238l1.7-8.4h-16.18l2.555 8.4h6.914l1.149 9.319z" fill="#3c2a54"/><path d="m1055.815 1075.16-13.146.467-.506-1.4h13.652z" fill="#fff"/><path d="m1044.034 1105.817 13.3-18.987 15 19.305-14.495 18.973z" fill="#3c2a54"/><path d="m1064.88 1126.976h-14.28l-23.1-42.013h14.283z" fill="#3c2a54"/><path d="m1059.054 1124.736-22.778-39.6a.253.253 0 0 0 -.322-.1l-.221.1a.251.251 0 0 0 -.111.351l22.777 39.606a.249.249 0 0 0 .323.1l.22-.1a.251.251 0 0 0 .112-.352z" fill="#fff"/><path d="m1062.217 1124.772-22.777-39.6a.253.253 0 0 0 -.321-.1l-.222.1a.247.247 0 0 0 -.133.15.25.25 0 0 0 .021.2l22.778 39.6a.249.249 0 0 0 .216.125.269.269 0 0 0 .106-.023l.22-.1a.246.246 0 0 0 .133-.151.249.249 0 0 0 -.021-.201z" fill="#fff"/><path d="m1050.314 1098.042a3.921 3.921 0 0 1 .317.314c.217.274.429.552.63.836a.541.541 0 0 0 .476.25q.559 0 1.118 0a.5.5 0 0 0 .5-.294 3.485 3.485 0 0 1 .957-1.218l.083-.062c.006-.005.017 0 .063-.012.043.265.09.528.126.793.019.135.013.273.027.409a.449.449 0 0 0 .439.382 10.554 10.554 0 0 1 4.6 1.367 7.883 7.883 0 0 1 2.761 2.884 13.284 13.284 0 0 1 1.4 3.758 24.377 24.377 0 0 1 .567 4.439c.037.994.037 1.989.053 2.984 0 .04 0 .081-.006.128h-13.181c.034-.209.061-.416.1-.621a4.311 4.311 0 0 1 1.4-2.264c.482-.452.978-.892 1.456-1.346a6.4 6.4 0 0 0 1.975-3.653 9.83 9.83 0 0 0 .12-1.946.478.478 0 0 1 .065-.244 2.5 2.5 0 0 0 .4-1.149 1.235 1.235 0 0 0 -.026-.333.434.434 0 0 0 -.478-.319.409.409 0 0 0 -.413.388 2.207 2.207 0 0 1 -.69 1.548 12.784 12.784 0 0 1 -2.391 2.124q-.758.549-1.554 1.05a6.639 6.639 0 0 0 -1.654 1.464c-.152.189-.309.377-.473.558a.651.651 0 0 1 -.457.238c.032-.087.055-.163.087-.236.1-.229.225-.452.31-.687a.555.555 0 0 0 -.354-.738.974.974 0 0 0 -.646-.005.614.614 0 0 0 -.429.64c0 .107.011.215.008.323 0 .082-.044.136-.151.137-.219 0-.439.026-.658.02a.9.9 0 0 1 -.823-.513 2.72 2.72 0 0 1 -.239-.951 2.062 2.062 0 0 1 .205-1.1 29.311 29.311 0 0 1 1.672-3.1c.509-.847 1.033-1.687 1.561-2.524a3.854 3.854 0 0 1 .4-.5 4.253 4.253 0 0 0 .992-1.606.723.723 0 0 0 -.1-.719 1.159 1.159 0 0 1 -.145-.894zm-.846 4.617a.592.592 0 0 0 .307.572.661.661 0 0 0 .651-.03 1.732 1.732 0 0 0 .563-.526 2.117 2.117 0 0 0 .459-1.059.56.56 0 0 0 -.285-.579.66.66 0 0 0 -.674.024 1.758 1.758 0 0 0 -.576.548 2.14 2.14 0 0 0 -.445 1.05zm-1.617 5.132a.767.767 0 0 0 -1.529.005.767.767 0 0 0 1.529-.005z" fill="#fff"/><path d="m1067.68 1073.759v13.071s4.82-2.5 4.82-6.674-4.82-6.397-4.82-6.397z" fill="#fff"/><path d="m1067.726 1073.752a11.082 11.082 0 0 1 -2.217 3.639l-.5.445a4.251 4.251 0 0 1 -.986.592h-4.673v4.2h5.351c.9.444 2.309 1.684 2.822 5.135.999-1.042 5.884-6.802.203-14.011zm-2.673 8.877h.166l.094.108c-.045-.02-.085-.042-.135-.061z" fill="#3c2a54"/><path d="m1064.157 1072.532c-1.587-1.587-2.194-5.532-2.194-5.532s-.612 3.945-2.2 5.532a5.335 5.335 0 0 1 1.351-.019.964.964 0 0 0 -.243.635 1 1 0 0 0 .586.892v-.005l.075.033a.321.321 0 0 1 -.075-.028v50.166a.475.475 0 0 0 .506.436.47.47 0 0 0 .5-.436v-50.162a1.006 1.006 0 0 0 .586-.9.964.964 0 0 0 -.243-.635 5.324 5.324 0 0 1 1.351.023zm-1.693 1.512a1.043 1.043 0 0 1 -.156.049 1.419 1.419 0 0 0 .156-.058z" fill="#3c2a54"/><path d="m1068.379 1102.266-35.823 24.71h34.888z" fill="#3c2a54"/><path d="m1030.028 1084.963h2.388l23.4 42.013-3.939.024z" fill="#fff"/><path d="m1053.519 1124.888-1.431-1.479-.26-1.7-1.616-1.671-.293-1.915-1.431-1.479-.26-1.7-1.744-1.8-.3-1.794-1.467-1.547-.29-1.753-1.657-1.747-.328-1.98-1.467-1.547-.29-1.753-1.787-1.884-.3-1.794-1.467-1.547-.29-1.753-1.657-1.747-.328-1.98-1.467-1.547-.29-1.753-1.789-1.886.526 2.46 1.327 1.283.431 2.017 1.5 1.449.487 2.278 1.326 1.283.431 2.017 1.618 1.564-.053-.317.52 2.431 1.326 1.283.431 2.017 1.5 1.449.487 2.278 1.326 1.283.431 2.017 1.618 1.564-.051-.308.474 2.34 1.3 1.225.395 1.949 1.464 1.384.446 2.2 1.3 1.225.395 1.949 1.58 1.494z" fill="#3c2a54"/><g fill="#fff"><path d="m1038.086 1097.959c.263-.12-.22-1.027-.483-.908s.22 1.027.483.908z"/><path d="m1036.369 1094.61c.263-.12-.22-1.027-.483-.908s.219 1.027.483.908z"/><path d="m1034.342 1090.866c.263-.119-.22-1.027-.483-.907s.219 1.026.483.907z"/><path d="m1032.611 1087.523c.263-.119-.22-1.027-.483-.907s.22 1.027.483.907z"/><path d="m1045.67 1111.963c.263-.12-.219-1.027-.483-.907s.22 1.026.483.907z"/><path d="m1043.953 1108.614c.263-.12-.22-1.027-.483-.907s.22 1.026.483.907z"/><path d="m1041.926 1104.87c.263-.119-.22-1.026-.483-.907s.22 1.027.483.907z"/><path d="m1040.195 1101.527c.263-.119-.219-1.026-.483-.907s.22 1.027.483.907z"/><path d="m1053.093 1125.663c.263-.119-.207-1-.47-.882s.206 1 .47.882z"/><path d="m1051.423 1122.4c.263-.12-.207-1-.47-.883s.207 1 .47.883z"/><path d="m1049.45 1118.761c.263-.12-.207-1-.47-.883s.206 1 .47.883z"/><path d="m1047.767 1115.507c.263-.119-.207-1-.47-.883s.206 1 .47.883z"/></g><path d="m1085.241 1070.864c-.952-1.038-2.058-2.05-2.521-2.582-.347-.4-.593-.7-.694-.828v-.065l-.026.033-.026-.033v.065c-.1.126-.347.43-.694.828-.463.532-1.569 1.544-2.52 2.582a3.156 3.156 0 0 0 -.849 2.936 2.109 2.109 0 0 0 2.494 1.493 1.581 1.581 0 0 0 1.006-.534 3.288 3.288 0 0 1 -.817 1.852h2.743a3.513 3.513 0 0 1 -.742-1.845 1.576 1.576 0 0 0 1 .527 2.109 2.109 0 0 0 2.494-1.493 3.157 3.157 0 0 0 -.848-2.936z" fill="#15b0bf"/><text fill="#15b0bf" font-family="MyriadPro-Regular, Myriad Pro" font-size="14" transform="translate(1082 1064.109)"><tspan x="-2.59" y="0">J</tspan></text><path d="m1044.549 1000a2.4 2.4 0 0 0 -2.52 2.8l.846 3.361c-3.92 2.945-10.45 7.384-16.206 11.922-5.951 4.691-7.15 9.381-6.514 13.468a8.1 8.1 0 0 0 1.545 7.513l-.06-.976a17.431 17.431 0 0 0 2.226 5.481c.222.484.454.962.7 1.429h-22.066v57c0 11.215 7.835 21.238 17.142 29.188-.144.307-.289.614-.422.943a33.928 33.928 0 0 0 -2.221 7.861c-3.01 1.541-6 4.931-6 6.99 0 2.728 2.91 2.08 6.5 2.08 2.843 0 5.254-.576 6.136-2.17a22.179 22.179 0 0 0 7.4-4.7q.792-.781 1.525-1.583a139.806 139.806 0 0 0 17.44 9.393v-150z" fill="#fff" opacity=".1"/><g clip-path="url(#a)"><rect fill="#15b0bf" height="128" rx="1" transform="translate(1007 1014.129)" width="2"/><path d="m1012.666 1017.133c-1.37-1.495-2.962-2.952-3.629-3.718-.5-.574-.854-1.01-1-1.192v-.094l-.037.047-.037-.047v.094c-.146.182-.5.618-1 1.192-.667.766-2.259 2.223-3.629 3.718a4.541 4.541 0 0 0 -1.222 4.227 3.037 3.037 0 0 0 3.592 2.151 2.274 2.274 0 0 0 1.448-.769 4.728 4.728 0 0 1 -1.177 2.666h3.95a5.055 5.055 0 0 1 -1.068-2.656 2.275 2.275 0 0 0 1.439.759 3.037 3.037 0 0 0 3.592-2.151 4.541 4.541 0 0 0 -1.222-4.227z" fill="#27123e"/><path d="m0 0h6v130h-6z" fill="#fff" opacity=".1" transform="translate(1002 1012.129)"/></g><path d="m1098.565 1076.588c.915 1.685 2.086 4.268 1 6.134-1.332 2.289-5.444 2.589-7.284.792 1.471-1.7.545-4.83-1.53-6.172a18.369 18.369 0 0 0 3.268-2.973c.637-.632 1.209-1.3 2.15-.91 1.075.441 1.851 2.124 2.396 3.129z" fill="#27123e"/><path d="m1097.526 1082.88a3.535 3.535 0 0 1 -1.641 1.618 3.188 3.188 0 0 1 -1.074.208 6.893 6.893 0 0 1 -1.829-.26 4.7 4.7 0 0 1 -1.188-.437 3.614 3.614 0 0 1 -1.584-2.066 7.848 7.848 0 0 1 .356-4.979c.684-1.909 1.888-5.036 4.589-3.644 3.469 1.78 3.968 6.732 2.371 9.56z" fill="#27123e"/><path d="m1001.435 1076.588c-.915 1.685-2.086 4.268-.995 6.134 1.332 2.289 5.444 2.589 7.284.792-1.471-1.7-.545-4.83 1.53-6.172a18.368 18.368 0 0 1 -3.268-2.973c-.637-.632-1.209-1.3-2.15-.91-1.08.441-1.856 2.124-2.401 3.129z" fill="#3c2a54"/><path d="m1006.092 1081.2a2.285 2.285 0 0 0 .181 1.37 1.861 1.861 0 0 0 .4.49 3.692 3.692 0 0 0 .894.541 2.435 2.435 0 0 0 .67.224 1.89 1.89 0 0 0 1.392-.411 4.759 4.759 0 0 0 1.514-2.51c.339-1.161.858-3.093-.8-3.41-2.123-.406-4.005 1.779-4.251 3.706z" fill="#3c2a54"/></g></svg>