<svg enable-background="new 0 0 100 150" viewBox="0 0 100 150" xmlns="http://www.w3.org/2000/svg" xmlns:xlink="http://www.w3.org/1999/xlink"><clipPath id="a"><path d="m711 1163.1c-.2 1.7-1.8 2.8-3.5 2.6-1.3-.2-2.4-1.2-2.6-2.6-3.1.1-3.5 3.6-2.4 5.3.7 1.3 1.7 2.4 2.7 3.4.6.6 1.2 1.2 1.7 1.8v117.5c0 .5.4 1 1 1 .5 0 1-.4 1-1v-117.5c.5-.6 1.2-1.2 1.7-1.8 1.1-1 2-2.2 2.7-3.4 1.2-1.7.8-5.2-2.3-5.3z"/></clipPath><g transform="translate(-700 -1150)"><path d="m733.8 1276.6c6.4 3.9 2.7 10.2-2.8 15.6-4 4-10.7 6.6-12.6 5.1-2.6-2-1.9-8.5.8-15.1 2.9-7.2 8.3-9.6 14.6-5.6z" fill="#752125"/><path d="m724 1295.4c0 2.7-2.9 3.6-6.5 3.6s-6.5.6-6.5-2.1 5.2-7.8 8.8-7.8 4.2 3.6 4.2 6.3z" fill="#eb3b56"/><path d="m766.2 1276.6c-6.4 3.9-2.7 10.2 2.8 15.6 4 4 10.7 6.6 12.6 5.1 2.6-2 1.9-8.5-.8-15.1-2.9-7.2-8.3-9.6-14.6-5.6z" fill="#752125"/><path d="m776 1295.4c0 2.7 2.9 3.6 6.5 3.6s6.5.6 6.5-2.1-5.2-7.8-8.8-7.8-4.2 3.6-4.2 6.3z" fill="#eb3b56"/><path d="m750 1297.3c6.7-3.1 45-21.7 45-45.3v-57h-90v57c0 23.5 38.3 42.2 45 45.3z" fill="#e5284c"/><path d="m792.5 1252c0 18.9-29 36.3-42.5 42.5-13.5-6.2-42.5-23.6-42.5-42.5v-57h-5v57c0 27.6 47.5 48 47.5 48s47.5-20.4 47.5-48v-57h-5z" fill="#d31341"/><path d="m753.1 1228.3c-.3 1.7-1.8 2.9-3.5 2.6-1.4-.2-2.4-1.3-2.6-2.6-3.2.1-3.6 3.6-2.5 5.4.8 1.3 1.7 2.5 2.8 3.5 1 .9 1.9 1.9 2.7 3v.1-.1c.8-1.1 1.8-2.1 2.7-3 1.1-1 2-2.2 2.8-3.5 1.2-1.8.7-5.4-2.4-5.4z" fill="#e6e6e6"/><path d="m753.1 1254.8c-.3 1.7-1.8 2.9-3.5 2.6-1.4-.2-2.4-1.3-2.6-2.6-3.2.1-3.6 3.6-2.5 5.4.8 1.3 1.7 2.5 2.8 3.5 1 .9 1.9 1.9 2.7 3v.1-.1c.8-1.1 1.8-2.1 2.7-3 1.1-1 2-2.2 2.8-3.5 1.2-1.8.7-5.4-2.4-5.4z" fill="#e6e6e6"/><path d="m766.1 1241.5c-.3 1.7-1.8 2.9-3.5 2.6-1.4-.2-2.4-1.3-2.6-2.6-3.2.1-3.6 3.6-2.5 5.4.8 1.3 1.7 2.5 2.8 3.5 1 .9 1.9 1.9 2.7 3v.1-.1c.8-1.1 1.8-2.1 2.7-3 1.1-1 2-2.2 2.8-3.5 1.2-1.8.7-5.3-2.4-5.4z" fill="#e6e6e6"/><path d="m766.1 1215c-.3 1.7-1.8 2.9-3.5 2.6-1.4-.2-2.4-1.3-2.6-2.6-3.2.1-3.6 3.6-2.5 5.4.8 1.3 1.7 2.5 2.8 3.5 1 .9 1.9 1.9 2.7 3v.1-.1c.8-1.1 1.8-2.1 2.7-3 1.1-1 2-2.2 2.8-3.5 1.2-1.8.7-5.3-2.4-5.4z" fill="#e6e6e6"/><path d="m766.1 1268c-.3 1.7-1.8 2.9-3.5 2.6-1.4-.2-2.4-1.3-2.6-2.6-3.2.1-3.6 3.6-2.5 5.4.8 1.3 1.7 2.5 2.8 3.5 1 .9 1.9 1.9 2.7 3v.1-.1c.8-1.1 1.8-2.1 2.7-3 1.1-1 2-2.2 2.8-3.5 1.2-1.8.7-5.3-2.4-5.4z" fill="#e6e6e6"/><path d="m740.1 1241.5c-.3 1.7-1.8 2.9-3.5 2.6-1.4-.2-2.4-1.3-2.6-2.6-3.2.1-3.6 3.6-2.5 5.4.8 1.3 1.7 2.5 2.8 3.5 1 .9 1.9 1.9 2.7 3v.1-.1c.8-1.1 1.8-2.1 2.7-3 1.1-1 2-2.2 2.8-3.5 1.2-1.8.7-5.3-2.4-5.4z" fill="#e6e6e6"/><path d="m740.1 1215c-.3 1.7-1.8 2.9-3.5 2.6-1.4-.2-2.4-1.3-2.6-2.6-3.2.1-3.6 3.6-2.5 5.4.8 1.3 1.7 2.5 2.8 3.5 1 .9 1.9 1.9 2.7 3v.1-.1c.8-1.1 1.8-2.1 2.7-3 1.1-1 2-2.2 2.8-3.5 1.2-1.8.7-5.3-2.4-5.4z" fill="#e6e6e6"/><path d="m740.1 1268c-.3 1.7-1.8 2.9-3.5 2.6-1.4-.2-2.4-1.3-2.6-2.6-3.2.1-3.6 3.6-2.5 5.4.8 1.3 1.7 2.5 2.8 3.5 1 .9 1.9 1.9 2.7 3v.1-.1c.8-1.1 1.8-2.1 2.7-3 1.1-1 2-2.2 2.8-3.5 1.2-1.8.7-5.3-2.4-5.4z" fill="#e6e6e6"/><path d="m721.7 1189.1c-2.5-2.9-2.4-7.5-.6-9.1" fill="#eb3b56"/><path d="m778.1 1189.1c2.5-2.9 2.4-7.5.6-9.1" fill="#eb3b56"/><path d="m778.8 1180.6c1.2 14.2-12.9 29.4-28.8 29.4s-28.8-12.2-28.8-29.4c0-.2 28.7-7.1 28.8-7.1 1.2 0 28.8 6.9 28.8 7.1z" fill="#eb3b56"/><path d="m765.3 1160.2c-11.9-.3-14.6 8.8-15.3 13.1-.6-4.4-3.4-13.4-15.3-13.1-15.6.4-17.7 17.8-12.3 26.7s8.3 9.6 13.8 15.2c5.1 5.3 11.3-.2 13.6 3.5 0 0 .1.4.2.3.1.1.2-.3.2-.3 2.3-3.7 8.4 1.8 13.6-3.5 5.5-5.6 8.3-6.4 13.8-15.2s3.3-26.4-12.3-26.7z" fill="#e5284c"/><path d="m735.3 1160.1v2c9.6 0 12.1 7.2 12.7 11.4.2 1.1 1.2 1.8 2.3 1.7.9-.1 1.6-.8 1.7-1.7.6-4.3 3.1-11.4 12.7-11.4h.5c5.1.1 9 2.3 11.1 6.3 2.7 5.5 2.5 12-.5 17.3-2.3 4-5.4 7.6-8.9 10.6-1.3 1.2-2.8 2.5-4.6 4.3-1.2 1.3-2.9 2-4.6 1.9-.8 0-1.6-.1-2.4-.2s-1.5-.2-2.3-.2c-1.9 1-4.3 1-6.2 0-.8 0-1.5.1-2.3.2s-1.6.2-2.4.2c-1.7.1-3.4-.6-4.6-1.9-1.7-1.8-3.2-3.1-4.6-4.3-3.6-3-6.6-6.5-8.9-10.6-3-5.3-3.2-11.8-.5-17.3 2.2-4 6-6.2 11.1-6.3h.5zm29.4 0c-11.4 0-14.1 8.8-14.7 13.1-.6-4.3-3.3-13.1-14.7-13.1-.2 0-.4 0-.5 0-15.6.4-17.7 17.8-12.3 26.7s8.3 9.6 13.8 15.2c1.6 1.7 3.8 2.6 6 2.5 1.7 0 3.3-.3 4.6-.3 1.2-.1 2.3.4 2.9 1.4 0 0 .1.3.2.3.1 0 .2-.3.2-.3.6-1 1.8-1.5 2.9-1.4 1.3 0 2.9.3 4.6.3 2.3.1 4.5-.8 6-2.5 5.5-5.6 8.3-6.4 13.8-15.2s3.4-26.3-12.3-26.7c-.1 0-.3 0-.5 0z" fill="#ff83a1" opacity=".8"/><path d="m750 1184.5-8-31.7c-.2-1.3.7-2.5 2-2.8h.6 10.9c1.3-.1 2.5.9 2.5 2.2v.6z" fill="#e6e6e6"/><path d="m750 1191.6c-10.9 0-21-2.6-28.7-6.9 0 18.1 28.7 25.2 28.7 25.2s28.7-8.1 28.7-25.2c-7.7 4.2-17.8 6.9-28.7 6.9z" fill="#f74668"/><g fill="#eb3b56"><path d="m772.2 1192.1c.1-.7.2-1.4.3-2.1 0-.4.2-.8.4-1.2.5-.6 1.5-1 1.9-.4s.2 1.5.1 2.1c-.1 1.5-.6 3-1.3 4.4-.1.2-.2.4-.4.5-.3.2-.6.3-.9.3-.5 0-.6-.4-.5-.7.1-.9.2-1.9.4-2.9z"/><path d="m765.4 1195.6.2-2.8c0-.5.1-1 .4-1.5.5-.8 1.6-1.2 2.2-.4.3.9.4 1.8.3 2.8 0 1.9-.4 3.8-1.2 5.6-.1.3-.2.5-.4.7-.3.2-.6.3-1 .3-.6-.1-.7-.6-.7-.9.1-1.3.2-2.6.2-3.8z"/><path d="m758.8 1198.4.3-3.4c0-.6.2-1.3.5-1.8.6-.9 1.8-1.4 2.3-.3.5 1 .3 2.5.2 3.5-.1 2.4-.5 4.7-1.4 6.9-.1.3-.3.6-.5.8-.3.3-.7.4-1.1.3-.6-.1-.7-.7-.7-1.2.2-1.6.3-3.2.4-4.8z"/><path d="m752.1 1200.3c0-1.3 0-2.6 0-3.9-.1-.7.1-1.4.4-2.1.6-1.1 1.8-1.6 2.5-.4.6 1.1.5 2.8.5 3.9.1 2.6-.2 5.3-1 7.8-.1.3-.2.7-.5.9-.3.3-.7.4-1.2.4-.7-.1-.8-.8-.8-1.4z"/><path d="m727.8 1192.1c-.1-.7-.2-1.4-.3-2.1 0-.4-.2-.8-.4-1.2-.5-.6-1.5-1-1.9-.4s-.2 1.5-.1 2.1c.1 1.5.6 3 1.3 4.4.1.2.2.4.4.5.3.2.6.3.9.3.5 0 .6-.4.5-.7-.1-.9-.2-1.9-.4-2.9z"/><path d="m734.6 1195.6-.2-2.8c0-.5-.1-1-.4-1.5-.5-.8-1.6-1.2-2.2-.4-.3.9-.4 1.8-.3 2.8 0 1.9.4 3.8 1.2 5.6.1.3.2.5.4.7.3.2.6.3 1 .3.6-.1.7-.6.7-.9 0-1.3-.1-2.6-.2-3.8z"/><path d="m741.3 1198.4c-.1-1.1-.2-2.3-.3-3.4 0-.6-.2-1.3-.5-1.8-.6-.9-1.8-1.4-2.3-.3-.5 1-.3 2.5-.2 3.5.1 2.4.5 4.7 1.4 6.9.1.3.3.6.5.8.3.3.7.4 1.1.3.6-.1.7-.7.7-1.2-.1-1.6-.2-3.2-.4-4.8z"/><path d="m748.1 1200.3c0-1.3 0-2.6 0-3.9.1-.7-.1-1.4-.4-2.1-.6-1.1-1.8-1.6-2.5-.4-.6 1.1-.5 2.8-.5 3.9-.1 2.6.2 5.3 1 7.8.1.3.2.7.5.9.3.3.7.4 1.2.4.7-.1.8-.8.8-1.4z"/><path d="m750 1188.5c-9.5 0-18.9-1.1-28.1-3.5 17.7 8.7 38.4 8.7 56.1 0-9.1 2.4-18.5 3.6-28 3.5z" opacity=".5"/></g><path d="m784.1 1217.9c-.2 1.2-1.3 2-2.4 1.8-.9-.1-1.7-.9-1.8-1.8-2.2.1-2.4 2.5-1.7 3.7.5.9 1.2 1.7 1.9 2.4.7.6 1.3 1.3 1.9 2.1 0 0 0 .1 0 0 .6-.7 1.2-1.4 1.9-2.1s1.4-1.5 1.9-2.4c.7-1.2.5-3.6-1.7-3.7z" fill="#e6e6e6"/><path d="m744.5 1150c-1.3-.1-2.5.9-2.5 2.2v.6l2.6 10.2c-2.3-1.8-5.4-3-9.9-2.9-12.8.3-16.5 12-14.5 21.1-.9 2.7-.4 5.7 1.4 7.8l-.1-1c.4 1.9 1.2 3.8 2.2 5.5.2.5.5 1 .7 1.4h-22.1v57c0 11.2 7.8 21.2 17.1 29.2-.1.3-.3.6-.4.9-1.1 2.5-1.8 5.2-2.2 7.9-3 1.5-6 4.9-6 7 0 2.7 2.9 2.1 6.5 2.1 2.8 0 5.3-.6 6.1-2.2 2.8-1.1 5.3-2.7 7.4-4.7.5-.5 1-1 1.5-1.6 5.6 3.5 11.4 6.7 17.4 9.4v-150h-5.2z" fill="#fff" opacity=".1"/><g clip-path="url(#a)"><path d="m708 1166.1c.6 0 1 .4 1 1v124c0 .5-.4 1-1 1-.5 0-1-.4-1-1v-124c0-.5.4-1 1-1z" fill="#e6e6e6"/><path d="m711 1163.1c-.2 1.7-1.8 2.8-3.5 2.6-1.3-.2-2.4-1.2-2.6-2.6-3.1.1-3.5 3.6-2.4 5.3.7 1.3 1.7 2.4 2.7 3.4 1 .9 1.9 1.9 2.7 3v.1-.1c.8-1.1 1.7-2.1 2.7-3 1.1-1 2-2.2 2.7-3.4 1.2-1.7.8-5.2-2.3-5.3z" fill="#eb3b56"/><path d="m702 1162.1h6v130h-6z" fill="#fff" opacity=".05"/></g><path d="m798.6 1226.6c.9 1.7 2.1 4.3 1 6.1-1.3 2.3-5.4 2.6-7.3.8 1.5-1.7.5-4.8-1.5-6.2 1.2-.9 2.3-1.9 3.3-3 .6-.6 1.2-1.3 2.2-.9.9.5 1.7 2.2 2.3 3.2z" fill="#eb3b56"/><path d="m797.5 1232.9c-.4.7-.9 1.3-1.6 1.6-.3.1-.7.2-1.1.2-.6 0-1.2-.1-1.8-.3-.4-.1-.8-.2-1.2-.4-.8-.5-1.3-1.2-1.6-2.1-.4-1.7-.3-3.4.4-5 .7-1.9 1.9-5 4.6-3.6 3.4 1.8 3.9 6.8 2.3 9.6z" fill="#eb3b56"/><text fill="#eb3b56" font-family="'ArialMT'" font-size="13" transform="translate(746.665 1163.522)">8</text><text fill="#e6e6e6" font-family="'ArialMT'" font-size="14" transform="translate(778.409 1214.109)">8</text><path d="m701.4 1226.6c-.9 1.7-2.1 4.3-1 6.1 1.3 2.3 5.4 2.6 7.3.8-1.5-1.7-.5-4.8 1.5-6.2-1.2-.9-2.3-1.9-3.3-3-.6-.6-1.2-1.3-2.2-.9-.9.5-1.7 2.2-2.3 3.2z" fill="#eb3b56"/><path d="m706.1 1231.2c-.1.5 0 .9.2 1.4.1.2.2.4.4.5.3.2.6.4.9.5.2.1.4.2.7.2.5.1 1-.1 1.4-.4.8-.7 1.3-1.5 1.5-2.5.3-1.2.9-3.1-.8-3.4-2.2-.4-4.1 1.8-4.3 3.7z" fill="#eb3b56"/></g></svg>