<svg height="150" viewBox="0 0 100 150" width="100" xmlns="http://www.w3.org/2000/svg" xmlns:xlink="http://www.w3.org/1999/xlink"><clipPath id="a"><path d="m1213.229 1467.679a3.086 3.086 0 0 0 -3.3-.579 2.4 2.4 0 0 0 .862-2.051c0-.034 0-.067 0-.1a2.819 2.819 0 1 0 -5.581.572 2.544 2.544 0 0 0 .86 1.579 3.086 3.086 0 0 0 -3.3.579 2.944 2.944 0 0 0 -.241 3.662 2.616 2.616 0 0 0 2.47 1.378 2.856 2.856 0 0 0 2-.737v1.328a5.871 5.871 0 0 1 -.928 1.646h.929v116.173a1 1 0 0 0 2 0v-116.173h.928a5.108 5.108 0 0 1 -.928-1.615v-1.359a2.858 2.858 0 0 0 2 .737 2.616 2.616 0 0 0 2.47-1.378 2.944 2.944 0 0 0 -.241-3.662z"/></clipPath><g transform="translate(-1200 -1450)"><path d="m1233.844 1576.552c6.382 3.924 2.708 10.189-2.806 15.637-4 3.956-10.69 6.594-12.642 5.062-2.566-2.013-1.854-8.549.824-15.12 2.925-7.179 8.274-9.483 14.624-5.579z" fill="#27123e"/><path d="m1224 1595.422c0 2.728-2.91 3.64-6.5 3.64s-6.5.648-6.5-2.08 5.25-7.8 8.84-7.8 4.16 3.512 4.16 6.24z" fill="#27123e"/><path d="m1266.156 1576.552c-6.382 3.924-2.708 10.189 2.806 15.637 4 3.956 10.69 6.594 12.642 5.062 2.566-2.013 1.854-8.549-.824-15.12-2.925-7.179-8.274-9.483-14.624-5.579z" fill="#27123e"/><path d="m1276 1595.422c0 2.728 2.91 3.64 6.5 3.64s6.5.648 6.5-2.08-5.25-7.8-8.84-7.8-4.16 3.512-4.16 6.24z" fill="#27123e"/><path d="m1295 1495h-90v57c0 23.524 38.313 42.183 45 45.259 6.688-3.076 45-21.735 45-45.259z" fill="#27123e"/><path d="m1292.5 1552c0 18.925-29.013 36.284-42.5 42.524-13.494-6.228-42.5-23.561-42.5-42.524v-57h-5v57c0 27.614 47.5 48 47.5 48s47.5-20.386 47.5-48v-57h-5z" fill="#27123e"/><path d="m1207.5 1495h-5v57c0 27.614 47.5 48 47.5 48v-105z" fill="#fff" opacity=".1"/><path d="m1221.7 1489.066c-2.507-2.929-2.366-7.518-.557-9.066" fill="#27123e"/><path d="m1278.1 1489.066c2.507-2.929 2.366-7.518.557-9.066" fill="#27123e"/><path d="m1278.814 1480.608c1.2 14.189-12.916 29.392-28.849 29.392s-28.85-12.162-28.85-29.392c0-.2 28.65-7.094 28.85-7.094 1.194 0 28.835 6.892 28.849 7.094z" fill="#27123e" opacity=".6"/><path d="m1276.146 1473.779c-6.507-4.927-14.507-2-14.507-2 2.795-2.07 4.662-3.715 4.312-7.11.006-.115.013-.23.013-.346 0-5.4-8.312-9.771-16.1-9.771s-16.1 4.375-16.1 9.771a6.921 6.921 0 0 0 .291 1.984c.321 2.348 2 3.765 4.3 5.472 0 0-8-2.923-14.507 2s-3.253 10.774-1.2 12.694 5.119 5.146 12.351 4.774c6.4-.33-.4 4.188 4 1.753-.525 6.7 1.361 6 1.361 6h19.278c-3.544-2.583-1.048-3.3-.639-6 4.3 2.385-.343-2.08 6-1.753 7.232.372 10.3-2.853 12.351-4.774s5.302-7.766-1.204-12.694z" fill="#27123e"/><path d="m1249.867 1456.548c6.982 0 14.1 3.922 14.1 7.771 0 .067-.005.134-.01.244a1.857 1.857 0 0 0 .008.307c.222 2.159-.638 3.168-3.514 5.3a2 2 0 0 0 1.871 3.488 16.093 16.093 0 0 1 4.87-.741 12.52 12.52 0 0 1 7.749 2.459c1.936 1.466 2.964 3.09 3.055 4.828a6.7 6.7 0 0 1 -2.01 4.812c-.422.4-.849.875-1.3 1.382-1.935 2.17-4.344 4.87-8.954 4.87q-.306 0-.624-.017c-.263-.013-.509-.019-.74-.019-2.248 0-3.754.637-4.557 1.94a2 2 0 0 0 -2.783 1.531 4.773 4.773 0 0 1 -.541 1.439 4.958 4.958 0 0 0 -.681 2.86h-14.752a14.709 14.709 0 0 1 -.055-3.844 2 2 0 0 0 -.912-1.838 2.046 2.046 0 0 0 -.4-.2 2.747 2.747 0 0 0 -.149-.283c-.864-1.439-2.637-1.606-3.9-1.606q-.341 0-.736.02-.318.016-.624.017c-4.61 0-7.019-2.7-8.955-4.87-.452-.508-.88-.987-1.3-1.382a6.7 6.7 0 0 1 -2.01-4.811c.091-1.739 1.119-3.363 3.055-4.829a12.513 12.513 0 0 1 7.749-2.459 16.1 16.1 0 0 1 4.864.739 2 2 0 0 0 1.877-3.486c-2.265-1.678-3.309-2.673-3.509-4.136a2.025 2.025 0 0 0 -.065-.3 4.957 4.957 0 0 1 -.208-1.413c0-3.849 7.114-7.771 14.1-7.771m0-2c-7.786 0-16.1 4.375-16.1 9.771a6.921 6.921 0 0 0 .291 1.984c.321 2.348 2 3.765 4.3 5.472a17.809 17.809 0 0 0 -5.55-.86 14.611 14.611 0 0 0 -8.957 2.864c-6.506 4.928-3.253 10.774-1.2 12.694 1.978 1.855 4.911 6.793 11.624 6.793.238 0 .479-.006.727-.019q.341-.018.633-.018c4.122 0 1.3 2.495 1.841 2.495a5.938 5.938 0 0 0 1.515-.726c-.434 5.542.782 6.021 1.215 6.021a.453.453 0 0 0 .146-.021h19.278c-3.544-2.583-1.048-3.3-.639-6a4.483 4.483 0 0 0 1.722.7c1.054 0-.558-2.474 3.641-2.474.2 0 .411.005.637.017.247.013.49.019.727.019 6.714 0 9.645-4.938 11.624-6.793 2.048-1.92 5.3-7.766-1.2-12.694a14.618 14.618 0 0 0 -8.957-2.864 17.809 17.809 0 0 0 -5.55.86c2.795-2.07 4.662-3.715 4.312-7.11.006-.115.013-.23.013-.346 0-5.4-8.312-9.771-16.1-9.771z" fill="#15b0bf" opacity=".3"/><path d="m1250 1491.554c-10.949 0-20.971-2.6-28.732-6.921 0 18.07 28.732 25.164 28.732 25.164s28.732-8.108 28.732-25.164c-7.761 4.316-17.783 6.921-28.732 6.921z" fill="#27123e"/><path d="m1250 1484.459-7.971-31.657a2.4 2.4 0 0 1 2.52-2.8h10.9a2.4 2.4 0 0 1 2.52 2.8z" fill="#15b0bf"/><g fill="#27123e" opacity=".96"><path d="m1272.166 1492.139q.144-1.07.286-2.139a2.172 2.172 0 0 1 .413-1.164c.5-.622 1.477-1.01 1.881-.4.371.565.168 1.5.128 2.139a10.977 10.977 0 0 1 -1.278 4.372 1.466 1.466 0 0 1 -.419.539 1.443 1.443 0 0 1 -.885.276c-.507-.033-.557-.4-.517-.7q.195-1.462.391-2.923z"/><path d="m1265.443 1495.583.178-2.758a2.775 2.775 0 0 1 .4-1.485c.532-.776 1.645-1.218 2.159-.4a5.556 5.556 0 0 1 .3 2.785 14.393 14.393 0 0 1 -1.171 5.593 1.624 1.624 0 0 1 -.449.673 1.42 1.42 0 0 1 -1.008.3c-.593-.074-.678-.554-.653-.939q.122-1.882.244-3.769z"/><path d="m1258.834 1498.442.273-3.415a3.737 3.737 0 0 1 .469-1.815c.595-.922 1.8-1.378 2.334-.313.486.98.269 2.452.244 3.489a19.728 19.728 0 0 1 -1.423 6.86 1.925 1.925 0 0 1 -.5.8 1.333 1.333 0 0 1 -1.094.293c-.635-.142-.712-.746-.675-1.222q.185-2.338.372-4.677z"/><path d="m1252.126 1500.3q.02-1.926.038-3.851a4.242 4.242 0 0 1 .369-2.055c.573-1.053 1.844-1.6 2.494-.414.6 1.09.474 2.752.526 3.92a22.637 22.637 0 0 1 -1.02 7.76 2.067 2.067 0 0 1 -.481.914 1.353 1.353 0 0 1 -1.158.358c-.7-.143-.824-.821-.819-1.358z"/><path d="m1227.834 1492.139q-.144-1.07-.286-2.139a2.172 2.172 0 0 0 -.413-1.164c-.5-.622-1.477-1.01-1.881-.4-.371.565-.168 1.5-.128 2.139a10.977 10.977 0 0 0 1.278 4.372 1.466 1.466 0 0 0 .419.539 1.443 1.443 0 0 0 .885.276c.507-.033.557-.4.517-.7q-.195-1.462-.391-2.923z"/><path d="m1234.641 1495.583-.178-2.758a2.784 2.784 0 0 0 -.4-1.485c-.532-.776-1.646-1.218-2.159-.4a5.557 5.557 0 0 0 -.3 2.785 14.375 14.375 0 0 0 1.171 5.593 1.605 1.605 0 0 0 .449.673 1.418 1.418 0 0 0 1.008.3c.593-.074.678-.554.653-.939q-.122-1.882-.244-3.769z"/><path d="m1241.333 1498.442q-.135-1.709-.272-3.415a3.738 3.738 0 0 0 -.469-1.815c-.6-.922-1.806-1.378-2.335-.313-.486.98-.268 2.452-.244 3.489a19.75 19.75 0 0 0 1.423 6.86 1.918 1.918 0 0 0 .5.8 1.331 1.331 0 0 0 1.093.293c.635-.142.713-.746.675-1.222q-.184-2.338-.371-4.677z"/><path d="m1248.125 1500.3q-.019-1.926-.038-3.851a4.24 4.24 0 0 0 -.369-2.055c-.573-1.053-1.844-1.6-2.494-.414-.6 1.09-.474 2.752-.526 3.92a22.637 22.637 0 0 0 1.02 7.76 2.067 2.067 0 0 0 .481.914 1.354 1.354 0 0 0 1.158.358c.695-.143.824-.821.819-1.358z"/></g><g fill="none" opacity=".2" stroke-linecap="round" stroke-miterlimit="10"><path d="m1250 1488.514a110 110 0 0 1 -28.055-3.51 63.359 63.359 0 0 0 56.11 0 110 110 0 0 1 -28.055 3.51z"/><path d="m1250 1491.55395508c-10.63305664 0-20.39196777-2.45593262-28.05505371-6.54992676 8.42700195 2.23901367 17.95507812 3.51000977 28.05505371 3.51000977s19.62805176-1.2709961 28.05505371-3.51000977c-7.66308594 4.09399414-17.42199707 6.54992676-28.05505371 6.54992676z" fill="#15b0bf"/></g><path d="m1286.077 1521.326a2.408 2.408 0 0 0 -2.574-.451 1.869 1.869 0 0 0 .672-1.6c0-.026 0-.052 0-.078a2.2 2.2 0 1 0 -4.35.446 1.985 1.985 0 0 0 .67 1.231 2.408 2.408 0 0 0 -2.574.451 2.3 2.3 0 0 0 -.188 2.856 2.04 2.04 0 0 0 1.926 1.074 2.479 2.479 0 0 0 1.832-.792 4.524 4.524 0 0 1 -1 2.536h3.006a4.266 4.266 0 0 1 -.978-2.522 2.46 2.46 0 0 0 1.814.778 2.04 2.04 0 0 0 1.926-1.074 2.3 2.3 0 0 0 -.182-2.855z" fill="#15b0bf"/><path d="m1244.549 1450a2.4 2.4 0 0 0 -2.52 2.8l.731 2.9c-5.021 1.647-8.99 4.886-8.99 8.615a6.921 6.921 0 0 0 .291 1.984c.321 2.348 2 3.765 4.3 5.472 0 0-8-2.923-14.507 2-3.459 2.621-4.159 5.5-3.749 7.911a8.143 8.143 0 0 0 1.595 7.376l-.06-.976a17.429 17.429 0 0 0 2.226 5.481c.222.484.454.962.7 1.429h-22.066v57c0 11.215 7.835 21.238 17.142 29.188-.144.307-.289.614-.422.943a33.931 33.931 0 0 0 -2.221 7.861c-3.01 1.541-6 4.931-6 6.99 0 2.728 2.91 2.08 6.5 2.08 2.843 0 5.254-.576 6.136-2.17a22.179 22.179 0 0 0 7.4-4.7q.792-.781 1.525-1.583a139.806 139.806 0 0 0 17.44 9.399v-150z" fill="#fff" opacity=".1"/><g clip-path="url(#a)"><rect fill="#15b0bf" height="128" rx="1" transform="translate(1207 1464.129)" width="2"/><path d="m1213.229 1467.679a3.086 3.086 0 0 0 -3.3-.579 2.4 2.4 0 0 0 .862-2.051c0-.034 0-.067 0-.1a2.819 2.819 0 1 0 -5.581.572 2.544 2.544 0 0 0 .86 1.579 3.086 3.086 0 0 0 -3.3.579 2.944 2.944 0 0 0 -.241 3.662 2.616 2.616 0 0 0 2.47 1.378 3.176 3.176 0 0 0 2.349-1.016 5.8 5.8 0 0 1 -1.277 3.253h3.856a5.483 5.483 0 0 1 -1.255-3.235 3.151 3.151 0 0 0 2.327 1 2.616 2.616 0 0 0 2.47-1.378 2.944 2.944 0 0 0 -.24-3.664z" fill="#27123e"/><path d="m0 0h6v130h-6z" fill="#fff" opacity=".1" transform="translate(1202 1462.129)"/></g><path d="m1298.565 1526.588c.915 1.685 2.086 4.268 1 6.134-1.332 2.289-5.444 2.589-7.284.792 1.471-1.7.545-4.83-1.53-6.172a18.369 18.369 0 0 0 3.268-2.973c.637-.632 1.209-1.3 2.15-.91 1.075.441 1.851 2.124 2.396 3.129z" fill="#27123e"/><path d="m1297.526 1532.88a3.535 3.535 0 0 1 -1.641 1.618 3.188 3.188 0 0 1 -1.074.208 6.893 6.893 0 0 1 -1.829-.26 4.7 4.7 0 0 1 -1.188-.437 3.614 3.614 0 0 1 -1.584-2.066 7.848 7.848 0 0 1 .356-4.979c.684-1.909 1.888-5.036 4.589-3.644 3.469 1.78 3.968 6.732 2.371 9.56z" fill="#27123e"/><path d="m1241.801 1525.811h10.869v15.617h-10.869z" fill="#15b0bf"/><path d="m1260.106 1577v-23.209c0-7.993-6.178-14.532-13.729-14.532-7.551 0-13.729 6.539-13.729 14.532v23.209z" fill="#15b0bf"/><path d="m1239 1540.62-10 6.185 10.671 10.387 10.388-6.129z" fill="#fff"/><path d="m1239.67 1557.625a.652.652 0 0 1 -.452-.167l-10.671-10.387a.367.367 0 0 1 .09-.6l10-6.185a.721.721 0 0 1 .422-.095.639.639 0 0 1 .386.16l11.059 10.443a.364.364 0 0 1 .122.322.422.422 0 0 1 -.217.292l-10.388 6.129a.7.7 0 0 1 -.351.088zm-9.876-10.752 9.976 9.71 9.478-5.592-10.334-9.759z" fill="#3c2a54"/><path d="m1231.233 1553.348h-.005-.027z" fill="#050505"/><path d="m1236.886 1556.917-.175-.357.165.359z" fill="#1f191a"/><g fill="#3c2a54"><path d="m1243.821 1551.318a.378.378 0 0 1 .433-.232c.2.029.331.18.291.337a.379.379 0 0 1 -.433.232c-.2-.029-.33-.179-.291-.337z"/><path d="m1243.519 1551.668a.09.09 0 0 1 .1-.055c.047.007.077.043.068.08a.089.089 0 0 1 -.1.054c-.047-.007-.078-.047-.068-.079z"/><path d="m1243.709 1550.908a.091.091 0 0 1 .1-.055c.047.007.078.043.068.08a.089.089 0 0 1 -.1.054c-.046-.007-.077-.042-.068-.079z"/><path d="m1244.678 1551.078a.091.091 0 0 1 .1-.055c.047.007.078.043.068.08a.088.088 0 0 1 -.1.054c-.046-.007-.077-.042-.068-.079z"/><path d="m1244.495 1551.809a.089.089 0 0 1 .1-.055c.047.007.077.042.068.079a.089.089 0 0 1 -.1.055c-.047-.007-.077-.042-.068-.079z"/><path d="m1244.241 1551.141c.3-.273.125-.5.125-.5a.373.373 0 0 0 -.125.5z"/><path d="m1244 1552.115c.3-.274.124-.5.124-.5a.373.373 0 0 0 -.124.5z"/><path d="m1244.482 1551.429a.651.651 0 0 0 .634.088.625.625 0 0 0 -.634-.088z"/><path d="m1243.241 1551.259a.651.651 0 0 0 .635.087.628.628 0 0 0 -.635-.087z"/><ellipse cx=".369" cy=".289" rx=".369" ry=".289" transform="matrix(1 -.027 .027 1 1239.15 1548.498)"/><path d="m1238.863 1549.074a.087.087 0 0 1 .1-.054c.047.007.078.042.069.079a.091.091 0 0 1 -.1.055c-.048-.007-.079-.043-.069-.08z"/><path d="m1239.053 1548.314a.089.089 0 0 1 .1-.054c.047.007.078.042.068.079a.088.088 0 0 1 -.1.054c-.046-.006-.077-.042-.068-.079z"/><path d="m1240.022 1548.484a.089.089 0 0 1 .1-.054c.047.006.078.042.068.079a.089.089 0 0 1 -.1.054.07.07 0 0 1 -.068-.079z"/><path d="m1239.839 1549.215a.089.089 0 0 1 .1-.054.069.069 0 0 1 .068.079.089.089 0 0 1 -.1.054.069.069 0 0 1 -.068-.079z"/><path d="m1239.585 1548.548c.3-.274.124-.5.124-.5a.373.373 0 0 0 -.124.5z"/><path d="m1239.34 1549.521c.305-.273.125-.5.125-.5a.374.374 0 0 0 -.125.5z"/><path d="m1239.826 1548.836a.652.652 0 0 0 .634.087.623.623 0 0 0 -.634-.087z"/><path d="m1238.585 1548.665a.653.653 0 0 0 .635.088.627.627 0 0 0 -.635-.088z"/><ellipse cx=".369" cy=".289" rx=".369" ry=".289" transform="matrix(1 -.027 .027 1 1231.339 1546.635)"/><path d="m1231.051 1547.212a.089.089 0 0 1 .1-.055c.047.007.077.042.068.079a.09.09 0 0 1 -.1.055c-.047-.007-.077-.043-.068-.079z"/><path d="m1231.242 1546.451a.089.089 0 0 1 .1-.054c.046.007.077.042.068.079a.091.091 0 0 1 -.1.055c-.047-.007-.078-.043-.068-.08z"/><path d="m1232.211 1546.622a.088.088 0 0 1 .1-.055c.047.007.078.042.069.079a.09.09 0 0 1 -.1.055c-.048-.007-.08-.043-.069-.079z"/><path d="m1232.027 1547.352a.089.089 0 0 1 .1-.054c.047.007.078.042.068.079a.089.089 0 0 1 -.1.055c-.046-.007-.077-.043-.068-.08z"/><path d="m1231.773 1546.685c.3-.274.125-.5.125-.5a.373.373 0 0 0 -.125.5z"/><path d="m1231.529 1547.658c.3-.273.125-.5.125-.5a.373.373 0 0 0 -.125.5z"/><path d="m1232.014 1546.973a.651.651 0 0 0 .635.087.628.628 0 0 0 -.635-.087z"/><path d="m1230.774 1546.8a.652.652 0 0 0 .634.087.624.624 0 0 0 -.634-.087z"/><path d="m1244.255 1548.726a.371.371 0 0 1 .426-.228c.2.028.324.176.286.331a.374.374 0 0 1 -.427.228c-.196-.028-.324-.176-.285-.331z"/><path d="m1243.957 1549.07a.088.088 0 0 1 .1-.054c.046.007.076.042.067.078a.089.089 0 0 1 -.1.054c-.046-.007-.076-.042-.067-.078z"/><path d="m1244.145 1548.322a.087.087 0 0 1 .1-.053c.046.006.076.041.067.078a.087.087 0 0 1 -.1.053c-.046-.006-.076-.041-.067-.078z"/><path d="m1245.1 1548.49a.087.087 0 0 1 .1-.054c.046.007.076.041.067.078a.087.087 0 0 1 -.1.053c-.048-.006-.078-.041-.067-.077z"/><path d="m1244.917 1549.208a.088.088 0 0 1 .1-.053c.046.006.076.041.067.077a.087.087 0 0 1 -.1.054c-.046-.007-.076-.041-.067-.078z"/><path d="m1244.667 1548.552c.3-.269.123-.49.123-.49a.368.368 0 0 0 -.123.49z"/><path d="m1244.427 1549.509c.3-.269.123-.49.123-.49a.368.368 0 0 0 -.123.49z"/><path d="m1244.905 1548.835a.639.639 0 0 0 .623.086.614.614 0 0 0 -.623-.086z"/><path d="m1243.685 1548.668a.642.642 0 0 0 .624.085.615.615 0 0 0 -.624-.085z"/><ellipse cx=".363" cy=".284" rx=".363" ry=".284" transform="matrix(.99963928 -.02685739 .02685739 .99963928 1237.444 1546.004)"/><path d="m1237.161 1546.571a.089.089 0 0 1 .1-.054c.046.007.076.042.067.078a.088.088 0 0 1 -.1.054c-.046-.007-.076-.042-.067-.078z"/><path d="m1237.349 1545.824a.087.087 0 0 1 .1-.054c.046.007.076.042.067.078a.089.089 0 0 1 -.1.054c-.046-.002-.076-.042-.067-.078z"/><ellipse cx=".085" cy=".067" rx=".085" ry=".067" transform="matrix(.99965044 -.02643866 .02643866 .99965044 1238.298 1545.938)"/><ellipse cx=".085" cy=".067" rx=".085" ry=".067" transform="matrix(.99965044 -.02643866 .02643866 .99965044 1238.118 1546.657)"/><path d="m1237.871 1546.053c.3-.269.123-.49.123-.49a.368.368 0 0 0 -.123.49z"/><path d="m1237.631 1547.01c.3-.269.123-.489.123-.489a.367.367 0 0 0 -.123.489z"/><path d="m1238.108 1546.336a.641.641 0 0 0 .624.086.615.615 0 0 0 -.624-.086z"/><path d="m1236.889 1546.169a.641.641 0 0 0 .624.086.616.616 0 0 0 -.624-.086z"/><path d="m1242.761 1546.2a.374.374 0 0 1 .426-.229c.2.029.325.177.286.332a.374.374 0 0 1 -.426.228c-.197-.031-.325-.177-.286-.331z"/><path d="m1242.464 1546.544a.087.087 0 0 1 .1-.054c.046.007.076.041.067.078a.087.087 0 0 1 -.1.053c-.046-.006-.076-.041-.067-.077z"/><path d="m1242.651 1545.8a.088.088 0 0 1 .1-.053c.046.006.076.041.067.077a.087.087 0 0 1 -.1.054c-.046-.011-.076-.045-.067-.078z"/><path d="m1243.6 1545.963a.087.087 0 0 1 .1-.053c.047.006.077.041.067.077a.086.086 0 0 1 -.1.054c-.042-.007-.072-.041-.067-.078z"/><path d="m1243.424 1546.682a.089.089 0 0 1 .1-.054c.046.007.076.042.067.078a.088.088 0 0 1 -.1.054c-.046-.007-.076-.042-.067-.078z"/><path d="m1243.174 1546.026c.3-.269.123-.49.123-.49a.368.368 0 0 0 -.123.49z"/><path d="m1242.934 1546.983c.3-.269.123-.49.123-.49a.368.368 0 0 0 -.123.49z"/><path d="m1243.411 1546.309a.641.641 0 0 0 .624.086.617.617 0 0 0 -.624-.086z"/><path d="m1242.191 1546.141a.64.64 0 0 0 .624.086.616.616 0 0 0 -.624-.086z"/><path d="m1239.784 1543.635a.372.372 0 0 1 .426-.229c.2.029.325.177.286.331a.374.374 0 0 1 -.426.229c-.197-.029-.325-.177-.286-.331z"/><path d="m1239.487 1543.978a.087.087 0 0 1 .1-.053c.046.006.076.041.067.077a.087.087 0 0 1 -.1.054c-.046-.006-.077-.041-.067-.078z"/><path d="m1239.674 1543.231a.089.089 0 0 1 .1-.054c.046.007.076.042.067.078a.089.089 0 0 1 -.1.054c-.046-.009-.076-.042-.067-.078z"/><path d="m1240.627 1543.4a.087.087 0 0 1 .1-.053c.046.006.076.041.067.077a.087.087 0 0 1 -.1.054c-.046-.009-.076-.043-.067-.078z"/><path d="m1240.447 1544.117a.089.089 0 0 1 .1-.054c.046.007.076.042.067.078a.089.089 0 0 1 -.1.054c-.046-.007-.076-.042-.067-.078z"/><path d="m1240.2 1543.46c.3-.269.123-.489.123-.489a.367.367 0 0 0 -.123.489z"/><path d="m1239.956 1544.418c.3-.269.123-.49.123-.49a.368.368 0 0 0 -.123.49z"/><path d="m1240.434 1543.744a.639.639 0 0 0 .624.085.615.615 0 0 0 -.624-.085z"/><path d="m1239.214 1543.576a.64.64 0 0 0 .624.086.616.616 0 0 0 -.624-.086z"/><path d="m1235.68 1543.958a.372.372 0 0 1 .426-.229c.2.029.324.177.286.332a.375.375 0 0 1 -.427.228c-.196-.028-.324-.177-.285-.331z"/><path d="m1235.382 1544.3a.087.087 0 0 1 .1-.054c.046.007.076.041.067.078a.088.088 0 0 1 -.1.053c-.049-.004-.076-.039-.067-.077z"/><path d="m1235.57 1543.554a.087.087 0 0 1 .1-.053c.046.006.076.041.067.077a.087.087 0 0 1 -.1.054c-.046-.007-.076-.041-.067-.078z"/><path d="m1236.523 1543.721a.087.087 0 0 1 .1-.053c.046.006.076.041.067.078a.087.087 0 0 1 -.1.053c-.046-.006-.076-.041-.067-.078z"/><path d="m1236.342 1544.44a.09.09 0 0 1 .1-.054c.046.007.076.042.067.078a.087.087 0 0 1 -.1.054c-.046-.007-.076-.042-.067-.078z"/><path d="m1236.092 1543.784c.3-.269.123-.49.123-.49a.368.368 0 0 0 -.123.49z"/><path d="m1235.852 1544.741c.3-.269.123-.49.123-.49a.368.368 0 0 0 -.123.49z"/><path d="m1236.329 1544.067a.64.64 0 0 0 .624.086.615.615 0 0 0 -.624-.086z"/><path d="m1235.11 1543.9a.641.641 0 0 0 .624.086.616.616 0 0 0 -.624-.086z"/><path d="m1234.646 1548.08a.372.372 0 0 1 .426-.228c.2.028.324.176.286.331a.374.374 0 0 1 -.427.228c-.196-.028-.324-.176-.285-.331z"/><path d="m1234.348 1548.424a.088.088 0 0 1 .1-.054c.046.007.076.042.067.078a.089.089 0 0 1 -.1.054c-.046-.007-.076-.042-.067-.078z"/><path d="m1234.536 1547.676a.087.087 0 0 1 .1-.053c.046.006.076.041.067.078a.087.087 0 0 1 -.1.053c-.046-.006-.076-.041-.067-.078z"/><path d="m1235.489 1547.844a.087.087 0 0 1 .1-.054c.046.007.076.041.067.078a.087.087 0 0 1 -.1.053c-.046-.006-.076-.041-.067-.077z"/><path d="m1235.308 1548.562a.088.088 0 0 1 .1-.053c.046.006.076.041.067.077a.087.087 0 0 1 -.1.054c-.046-.007-.075-.04-.067-.078z"/><path d="m1235.058 1547.906c.3-.269.123-.49.123-.49a.368.368 0 0 0 -.123.49z"/><path d="m1234.818 1548.863c.3-.269.123-.489.123-.489a.367.367 0 0 0 -.123.489z"/><path d="m1235.3 1548.189a.64.64 0 0 0 .624.086.615.615 0 0 0 -.624-.086z"/><path d="m1234.076 1548.022a.642.642 0 0 0 .624.085.615.615 0 0 0 -.624-.085z"/><path d="m1234.055 1550.436a.373.373 0 0 1 .426-.229c.2.028.325.177.286.331a.373.373 0 0 1 -.426.229c-.197-.029-.325-.177-.286-.331z"/><path d="m1233.758 1550.779a.087.087 0 0 1 .1-.053c.046.006.076.041.067.077a.087.087 0 0 1 -.1.054c-.046-.006-.077-.041-.067-.078z"/><path d="m1233.945 1550.032a.089.089 0 0 1 .1-.054c.046.007.076.042.067.078a.089.089 0 0 1 -.1.054c-.046-.01-.076-.042-.067-.078z"/><path d="m1234.9 1550.2a.089.089 0 0 1 .1-.054c.046.007.076.042.067.078a.087.087 0 0 1 -.1.054c-.048-.008-.078-.043-.067-.078z"/><path d="m1234.718 1550.918a.088.088 0 0 1 .1-.054c.046.007.076.042.067.078a.089.089 0 0 1 -.1.054c-.046-.007-.076-.042-.067-.078z"/><path d="m1234.467 1550.261c.3-.269.123-.489.123-.489a.367.367 0 0 0 -.123.489z"/><path d="m1234.227 1551.219c.3-.269.123-.49.123-.49a.368.368 0 0 0 -.123.49z"/><path d="m1234.7 1550.545a.639.639 0 0 0 .624.085.615.615 0 0 0 -.624-.085z"/><path d="m1233.485 1550.377a.641.641 0 0 0 .624.086.617.617 0 0 0 -.624-.086z"/><path d="m1236.4 1552.3a.374.374 0 0 1 .426-.229c.2.029.325.177.286.332a.373.373 0 0 1 -.426.228c-.193-.031-.321-.177-.286-.331z"/><path d="m1236.106 1552.644a.087.087 0 0 1 .1-.054c.046.007.076.041.067.078a.087.087 0 0 1 -.1.053c-.046-.006-.073-.041-.067-.077z"/><path d="m1236.294 1551.9a.087.087 0 0 1 .1-.053c.046.006.076.041.067.077a.087.087 0 0 1 -.1.054c-.046-.011-.077-.045-.067-.078z"/><path d="m1237.246 1552.063a.089.089 0 0 1 .1-.053c.046.006.076.041.067.078a.087.087 0 0 1 -.1.053c-.046-.006-.076-.041-.067-.078z"/><path d="m1237.066 1552.782a.089.089 0 0 1 .1-.054c.046.007.077.042.067.078a.087.087 0 0 1 -.1.054c-.046-.007-.076-.042-.067-.078z"/><path d="m1236.816 1552.126c.3-.269.123-.49.123-.49a.368.368 0 0 0 -.123.49z"/><path d="m1236.576 1553.083c.3-.269.123-.49.123-.49a.368.368 0 0 0 -.123.49z"/><path d="m1237.053 1552.409a.641.641 0 0 0 .624.086.616.616 0 0 0 -.624-.086z"/><path d="m1235.833 1552.241a.641.641 0 0 0 .624.086.616.616 0 0 0 -.624-.086z"/><path d="m1239.879 1551.276a.372.372 0 0 1 .426-.229c.2.029.325.177.286.331a.374.374 0 0 1 -.427.229c-.196-.028-.324-.177-.285-.331z"/><path d="m1239.581 1551.619a.088.088 0 0 1 .1-.053c.046.006.076.041.067.078a.087.087 0 0 1 -.1.053c-.048-.006-.076-.041-.067-.078z"/><path d="m1239.769 1550.872a.089.089 0 0 1 .1-.054c.046.007.076.042.067.078a.087.087 0 0 1 -.1.054c-.046-.007-.076-.042-.067-.078z"/><path d="m1240.722 1551.039a.087.087 0 0 1 .1-.053c.046.006.076.041.067.077a.087.087 0 0 1 -.1.054c-.046-.007-.076-.041-.067-.078z"/><path d="m1240.542 1551.758a.088.088 0 0 1 .1-.054c.046.007.076.042.067.078a.089.089 0 0 1 -.1.054c-.047-.007-.077-.042-.067-.078z"/><path d="m1240.291 1551.1c.3-.269.123-.489.123-.489a.366.366 0 0 0 -.123.489z"/><path d="m1240.051 1552.059c.3-.269.123-.49.123-.49a.368.368 0 0 0 -.123.49z"/><path d="m1240.529 1551.385a.639.639 0 0 0 .623.086.614.614 0 0 0 -.623-.086z"/><path d="m1239.309 1551.217a.641.641 0 0 0 .624.086.616.616 0 0 0 -.624-.086z"/><path d="m1239.066 1554.515a.374.374 0 0 1 .426-.229c.2.028.325.177.286.331a.372.372 0 0 1 -.426.229c-.197-.029-.325-.177-.286-.331z"/><path d="m1238.769 1554.858a.087.087 0 0 1 .1-.053c.046.006.076.041.067.077a.087.087 0 0 1 -.1.054c-.046-.006-.076-.036-.067-.078z"/><path d="m1238.957 1554.111a.088.088 0 0 1 .1-.054c.046.007.076.042.067.078a.089.089 0 0 1 -.1.054c-.046-.007-.077-.042-.067-.078z"/><path d="m1239.909 1554.278a.089.089 0 0 1 .1-.054c.047.007.077.042.068.078a.087.087 0 0 1 -.1.054c-.047-.007-.077-.042-.068-.078z"/><path d="m1239.729 1555a.088.088 0 0 1 .1-.054c.046.007.076.042.067.078a.089.089 0 0 1 -.1.054c-.046-.01-.076-.045-.067-.078z"/><path d="m1239.479 1554.34c.3-.269.123-.489.123-.489a.367.367 0 0 0 -.123.489z"/><path d="m1239.239 1555.3c.3-.269.123-.49.123-.49a.368.368 0 0 0 -.123.49z"/><path d="m1239.716 1554.624a.639.639 0 0 0 .624.085.615.615 0 0 0 -.624-.085z"/><path d="m1238.5 1554.456a.64.64 0 0 0 .624.086.616.616 0 0 0 -.624-.086z"/><path d="m1240.485 1557.337 15.045-17.644 16.97 17.94-16.4 17.632z"/></g><path d="m1256.505 1556.308q-.654-.66-1.3-1.319a.217.217 0 0 1 -.041-.068 3.934 3.934 0 0 1 .655-4.379 4.1 4.1 0 0 1 2.491-1.349 4.906 4.906 0 0 1 2.518.219 2.538 2.538 0 0 1 1.654 1.578 3.387 3.387 0 0 1 .065 1.787 6.279 6.279 0 0 1 -.628 1.737.211.211 0 0 1 -.14.087 14.746 14.746 0 0 0 -3.932 1.1c-.447.192-.888.399-1.342.607z" fill="#fff"/><path d="m1255.768 1556.722c-.268.168-.529.328-.784.494a11.378 11.378 0 0 0 -3.208 2.944.131.131 0 0 1 -.086.051 10.5 10.5 0 0 1 -3.232-.175 4.331 4.331 0 0 1 -1.76-.778 2.437 2.437 0 0 1 -.764-.985 2.282 2.282 0 0 1 -.126-1.71 2.628 2.628 0 0 1 1.533-1.424 8.319 8.319 0 0 1 4.413-.465 10.329 10.329 0 0 1 2.593.684.587.587 0 0 1 .191.124c.384.382.762.767 1.143 1.151z" fill="#fff"/><path d="m1255.5 1563.124a11.617 11.617 0 0 1 3.283-2.82 16.069 16.069 0 0 1 5.378-2.117c-.269.733-2.05 2.317-3.6 3.188a14.168 14.168 0 0 1 -5.061 1.749z" fill="#fff"/><path d="m1264.1 1557.412a16.445 16.445 0 0 0 -9.547 5.426l-.483-.488c-.221-.223-.22-.223-.058-.455a9.553 9.553 0 0 1 2.084-2.089 15.742 15.742 0 0 1 2.445-1.527 15.444 15.444 0 0 1 4.514-1.529.513.513 0 0 1 .568.172 6.706 6.706 0 0 0 .477.49z" fill="#fff"/><path d="m1253.179 1561.448c-.214-.216-.442-.443-.663-.675-.021-.023 0-.08.019-.113a7.28 7.28 0 0 1 1.139-1.355 14.957 14.957 0 0 1 3.638-2.491 16.385 16.385 0 0 1 2.839-1.114 11.617 11.617 0 0 1 1.759-.367.255.255 0 0 1 .166.038c.223.214.435.434.65.651a16.388 16.388 0 0 0 -9.547 5.426z" fill="#fff"/><path d="m1254.013 1554.418-1.692-.392a.3.3 0 0 1 -.077-.026 7.639 7.639 0 0 1 -1.609-1.071 1.536 1.536 0 0 1 -.483-1.579c.1-.452.536-.691 1.141-.635a2.612 2.612 0 0 1 1.992.975c.193.27.36.551.533.829a.277.277 0 0 1 .043.165 4.785 4.785 0 0 0 .152 1.719c.003.01 0 .02 0 .015z" fill="#fff"/><path d="m1250.993 1549.2-2.721 1.547-.328-.331 2.72-1.546z" fill="#fff"/><path d="m1252.417 1552.361-.544.309-3.933-3.975.544-.309z" fill="#fff"/><path d="m1268.029 1554.037-40.529 22.963h39.47z" fill="#3c2a54"/><path d="m1267.5 1554.243a1.512 1.512 0 0 1 .624 1.171 2.189 2.189 0 0 1 -4.216 0 1.446 1.446 0 0 1 .621-1.172z" fill="#3c2a54"/><path d="m1264.574 1548.017h2.869v6.227h-2.869z" fill="#3c2a54"/><path d="m1264.571 1549.271v-.244h2.869v.244z" fill="#15b0bf"/><path d="m1264.573 1550.509v-.244h2.869v.244z" fill="#15b0bf"/><path d="m1264.575 1551.746v-.244h2.869v.244z" fill="#15b0bf"/><path d="m1264.576 1552.739h2.869v.244h-2.869z" fill="#15b0bf"/><path d="m1266.23 1548.427h1.741l-.113-16.427-1.743-1.134z" fill="#3c2a54"/><path d="m1265.687 1530.865-1.738 1.137.113 16.427h1.74z" fill="#3c2a54"/><path d="m1262.394 1547.572h6.864v.976h-6.864z" fill="#15b0bf"/><path d="m1260.3 1520.631a.633.633 0 0 0 -.732.261l-1.308 2.753a1.3 1.3 0 0 0 -.537.011l-2.193.525v-.006l2.19-.524-.266-3.291-1.383 1.181-2.576-2.127c-.011 0-.022 0-.034 0l-1.5 1.856-3.17-2.443-.947 2.132-3.861-2.784-1.011 3.919-2.439-1.292-.946 3.427-2.4-.9a.261.261 0 0 1 -.056.018l-.29 3.039-2.237-.555 2.236 2.819 3.824-.914v.006l-3.822.914c-.442.106-.715.4-.612.645a.527.527 0 0 0 .373.267l-4.128 1.041c-.3.075-.462.321-.363.548a.584.584 0 0 0 .543.3.746.746 0 0 0 .181-.022l7.828-1.974v5.9h-4l2.089 6.508h.746v-.849h.647v.849h.484v-.849h.647v.849h.485v-.849h.647v.849h.485v-.849h.646v.849h.485v-.849h.647v.849h.485v-.849h.647v.849h.485v-.849h.646v.849h.485v-.849h.647v.849h.485v-.849h.647v.849h.484v-.849h.647v.849h.485v-.849h.647v.849h4.079v-16.169l3.109-.784a.528.528 0 0 0 .357-.265l1.648-3.47c.096-.221-.055-.469-.355-.55zm-8.2 14.723h-9.724v-6.332l9.724-2.452zm0-10.352-9.724 2.326v-.007l9.724-2.326z" fill="#3c2a54"/><path d="m1240.448 1520.824c.374-.089.58-.391.461-.677a.771.771 0 0 0 -.89-.354c-.374.09-.58.392-.461.677a.769.769 0 0 0 .89.354z" fill="#3c2a54"/><path d="m1244.489 1517.42a.853.853 0 0 0 -.986-.392c-.416.1-.641.436-.51.75a.855.855 0 0 0 .987.4c.42-.104.641-.441.509-.758z" fill="#3c2a54"/><path d="m1237.18 1523.325a.447.447 0 0 0 .314-.577.692.692 0 0 0 -.8-.319c-.333.08-.522.352-.415.61a.7.7 0 0 0 .8.319.222.222 0 0 0 .045-.015v-.036z" fill="#3c2a54"/><path d="m1234.238 1525.965c.3-.072.468-.317.372-.547a.623.623 0 0 0 -.72-.29c-.3.072-.469.317-.371.551a.624.624 0 0 0 .719.286z" fill="#3c2a54"/><path d="m1249.282 1518.145a.769.769 0 0 0 -.89-.354c-.374.089-.58.391-.461.677a.757.757 0 0 0 .857.358.118.118 0 0 0 .033 0c.374-.094.579-.396.461-.681z" fill="#3c2a54"/><path d="m1257.875 1520.312c.3-.072.468-.317.372-.547a.623.623 0 0 0 -.72-.29c-.3.072-.469.317-.371.551a.623.623 0 0 0 .719.286z" fill="#3c2a54"/><path d="m1253.495 1519.414a.682.682 0 0 0 .163-.022c.338-.08.523-.351.415-.609a.691.691 0 0 0 -.8-.319c-.333.08-.517.35-.41.608a.636.636 0 0 0 .6.341l.016-.017z" fill="#3c2a54"/><ellipse cx="1.621" cy="2.297" fill="#fff" rx="1.621" ry="2.297" transform="matrix(.81003141 -.58638649 .58638649 .81003141 1243.146 1523.165)"/><path d="m1241.229 1525.171.248.381.554.061-.4.3.095.419-.5-.2-.5.2.095-.419-.4-.3.554-.061z" fill="#fff"/><path d="m1251.525 1522.568.248.381.554.061-.4.3.095.419-.5-.2-.5.2.095-.419-.4-.3.554-.061z" fill="#fff"/><path d="m1231.136 1549.3-.363 26.4h5.307l-1.546-23.16z" fill="#3c2a54"/><path d="m1236.653 1554.876 1.716 18.22 2.288-.434-1.361-15.647-2.071-2.139z" fill="#3c2a54"/><path d="m1241.8 1557.912.095 1.044 1.049 11.537h2.288l.3-7.7" fill="#3c2a54"/><path d="m1232.843 1571.711c1.111 0 1.113-1.31 0-1.31s-1.113 1.31 0 1.31z" fill="#fff"/><path d="m1233.242 1564.958-.062-.01.38.168-.038-.03.222.289-.012-.049c-.09-.347-.637-.546-1.062-.457a.669.669 0 0 0 -.6.806.855.855 0 0 0 .717.546.946.946 0 0 0 1.062-.458.662.662 0 0 0 -.6-.8z" fill="#fff"/><path d="m1233.238 1561.222c1.112 0 1.113-1.31 0-1.31s-1.113 1.31 0 1.31z" fill="#fff"/><path d="m1233.125 1556.155c1.111 0 1.113-1.31 0-1.31s-1.113 1.31 0 1.31z" fill="#fff"/><path d="m1244.075 1566.482h-.029l.182.072-.019-.014.112.131-.007-.023a.446.446 0 0 0 -.508-.193.3.3 0 0 0 -.254.385.413.413 0 0 0 .349.24.428.428 0 0 0 .479-.231.317.317 0 0 0 -.305-.363z" fill="#fff"/><path d="m1243.956 1564.748c.516-.02.476-.628-.041-.608s-.475.628.041.608z" fill="#fff"/><path d="m1243.745 1562.4c.516-.02.476-.628-.041-.608s-.476.628.041.608z" fill="#fff"/><path d="m1238.293 1558.937c.8-.043.719-.99-.086-.948s-.719.99.086.948z" fill="#15b0bf"/><path d="m1238.617 1562.474c.8-.042.719-.99-.087-.947s-.719.99.087.947z" fill="#15b0bf"/><path d="m1239.375 1565.914a.566.566 0 0 0 .177-.284.508.508 0 0 0 -.49-.56c-.316-.048-.691.116-.738.372l-.007.036.142-.217-.029.03a.41.41 0 0 0 .062.67.778.778 0 0 0 .883-.047z" fill="#15b0bf"/><path d="m1238.763 1569.585v.032c.055.609 1.305.545 1.249-.066v-.032c-.055-.61-1.3-.545-1.249.066z" fill="#15b0bf"/><text fill="#27123e" font-family="MyriadPro-Regular, Myriad Pro" font-size="13" transform="translate(1250 1463.522)"><tspan x="-3.523" y="0">K</tspan></text><text fill="#15b0bf" font-family="MyriadPro-Regular, Myriad Pro" font-size="14" transform="translate(1282 1514.109)"><tspan x="-3.794" y="0">K</tspan></text><path d="m1201.435 1526.588c-.915 1.685-2.086 4.268-1 6.134 1.332 2.289 5.444 2.589 7.284.792-1.471-1.7-.545-4.83 1.53-6.172a18.369 18.369 0 0 1 -3.268-2.973c-.637-.632-1.209-1.3-2.15-.91-1.075.441-1.851 2.124-2.396 3.129z" fill="#3c2a54"/><path d="m1206.092 1531.2a2.285 2.285 0 0 0 .181 1.37 1.861 1.861 0 0 0 .4.49 3.694 3.694 0 0 0 .894.541 2.435 2.435 0 0 0 .67.224 1.89 1.89 0 0 0 1.392-.411 4.76 4.76 0 0 0 1.514-2.51c.339-1.161.858-3.093-.8-3.41-2.123-.406-4.005 1.779-4.251 3.706z" fill="#3c2a54"/></g></svg>