<svg height="150" viewBox="0 0 100 150" width="100" xmlns="http://www.w3.org/2000/svg" xmlns:xlink="http://www.w3.org/1999/xlink"><clipPath id="a"><path d="m13.229 1467.679a3.086 3.086 0 0 0 -3.3-.579 2.4 2.4 0 0 0 .862-2.051c0-.034 0-.067 0-.1a2.82 2.82 0 1 0 -5.581.572 2.544 2.544 0 0 0 .86 1.579 3.086 3.086 0 0 0 -3.3.579 2.944 2.944 0 0 0 -.241 3.662 2.616 2.616 0 0 0 2.471 1.378 2.856 2.856 0 0 0 2-.737v1.328a5.87 5.87 0 0 1 -.928 1.646h.928v116.173a1 1 0 0 0 2 0v-116.173h.928a5.107 5.107 0 0 1 -.928-1.615v-1.359a2.858 2.858 0 0 0 2 .737 2.616 2.616 0 0 0 2.47-1.378 2.944 2.944 0 0 0 -.241-3.662z"/></clipPath><g transform="translate(0 -1450)"><g fill="#27123e"><path d="m33.844 1576.552c6.382 3.924 2.708 10.189-2.806 15.637-4 3.956-10.69 6.594-12.642 5.062-2.566-2.013-1.854-8.549.824-15.12 2.925-7.179 8.274-9.483 14.624-5.579z"/><path d="m24 1595.422c0 2.728-2.91 3.64-6.5 3.64s-6.5.648-6.5-2.08 5.25-7.8 8.84-7.8 4.16 3.512 4.16 6.24z"/><path d="m66.156 1576.552c-6.382 3.924-2.708 10.189 2.806 15.637 4 3.956 10.69 6.594 12.642 5.062 2.566-2.013 1.854-8.549-.824-15.12-2.925-7.179-8.274-9.483-14.624-5.579z"/><path d="m76 1595.422c0 2.728 2.91 3.64 6.5 3.64s6.5.648 6.5-2.08-5.25-7.8-8.84-7.8-4.16 3.512-4.16 6.24z"/><path d="m95 1495h-90v57c0 23.524 38.313 42.183 45 45.259 6.688-3.076 45-21.735 45-45.259z"/><path d="m92.5 1552c0 18.925-29.013 36.284-42.5 42.524-13.5-6.224-42.5-23.561-42.5-42.524v-57h-5v57c0 27.614 47.5 48 47.5 48s47.5-20.386 47.5-48v-57h-5z"/></g><path d="m70.384 1544.132c-5.073-5.542-12.869-2.255-12.869-2.255 2.178-2.329 3.634-4.179 3.362-8 0-.13.009-.259.009-.39a10.99 10.99 0 1 0 -21.753 2.232c.25 2.641 1.556 4.235 3.352 6.155 0 0-7.8-3.287-12.869 2.255a11.482 11.482 0 0 0 -.939 14.278c1.6 2.16 3.99 5.788 9.629 5.369 4.989-.371 5.725-1.221 9.158-3.96a22.62 22.62 0 0 1 -4.979 12.681h15.03c-2.763-2.906-5.209-9.569-4.89-12.61 3.356 2.682 4.124 3.522 9.069 3.889 5.639.419 8.032-3.209 9.629-5.369a11.482 11.482 0 0 0 -.939-14.275z" fill="#15b0bf"/><path d="m7.5 1495h-5v57c0 27.614 47.5 48 47.5 48v-105z" fill="#fff" opacity=".1"/><path d="m21.7 1489.066c-2.507-2.929-2.366-7.518-.557-9.066" fill="#27123e"/><path d="m78.1 1489.066c2.507-2.929 2.366-7.518.557-9.066" fill="#27123e"/><path d="m78.814 1480.608c1.195 14.192-12.914 29.392-28.849 29.392s-28.85-12.162-28.85-29.392c0-.2 28.65-7.094 28.85-7.094 1.194 0 28.835 6.892 28.849 7.094z" fill="#27123e" opacity=".6"/><path d="m76.146 1473.779c-6.507-4.927-14.507-2-14.507-2 2.795-2.07 4.662-3.715 4.312-7.11.006-.115.013-.23.013-.346 0-5.4-8.312-9.771-16.1-9.771s-16.1 4.375-16.1 9.771a6.922 6.922 0 0 0 .291 1.984c.321 2.348 2 3.765 4.3 5.472 0 0-8-2.923-14.507 2s-3.253 10.774-1.2 12.694 5.119 5.146 12.351 4.774c6.4-.33-.4 4.188 4 1.753-.525 6.7 1.361 6 1.361 6h19.279c-3.544-2.583-1.048-3.3-.639-6 4.3 2.385-.343-2.08 6-1.753 7.232.372 10.3-2.853 12.351-4.774s5.301-7.766-1.205-12.694z" fill="#27123e"/><path d="m49.867 1456.548c6.982 0 14.1 3.922 14.1 7.771 0 .067-.005.134-.01.244a1.853 1.853 0 0 0 .008.307c.222 2.159-.638 3.168-3.514 5.3a2 2 0 0 0 1.871 3.488 16.093 16.093 0 0 1 4.87-.741 12.52 12.52 0 0 1 7.749 2.459c1.936 1.466 2.964 3.09 3.055 4.828a6.7 6.7 0 0 1 -2.01 4.812c-.422.4-.849.875-1.3 1.382-1.935 2.17-4.344 4.87-8.954 4.87q-.306 0-.624-.017c-.263-.013-.509-.019-.74-.019-2.248 0-3.754.637-4.557 1.94a2 2 0 0 0 -2.783 1.531 4.771 4.771 0 0 1 -.541 1.439 4.959 4.959 0 0 0 -.687 2.858h-14.751a14.708 14.708 0 0 1 -.055-3.844 2 2 0 0 0 -.912-1.838 2.045 2.045 0 0 0 -.4-.2 2.756 2.756 0 0 0 -.149-.283c-.864-1.439-2.637-1.606-3.9-1.606q-.341 0-.736.02-.318.016-.624.017c-4.61 0-7.019-2.7-8.955-4.87-.452-.508-.88-.987-1.3-1.382a6.7 6.7 0 0 1 -2.01-4.811c.091-1.739 1.119-3.363 3.055-4.829a12.513 12.513 0 0 1 7.749-2.459 16.1 16.1 0 0 1 4.864.739 2 2 0 0 0 1.877-3.486c-2.265-1.678-3.309-2.673-3.509-4.136a2.027 2.027 0 0 0 -.065-.3 4.96 4.96 0 0 1 -.208-1.413c0-3.849 7.114-7.771 14.1-7.771m0-2c-7.786 0-16.1 4.375-16.1 9.771a6.922 6.922 0 0 0 .291 1.984c.321 2.348 2 3.765 4.3 5.472a17.809 17.809 0 0 0 -5.55-.86 14.611 14.611 0 0 0 -8.957 2.864c-6.506 4.928-3.253 10.774-1.2 12.694 1.978 1.855 4.911 6.793 11.624 6.793.238 0 .479-.006.727-.019q.341-.018.633-.018c4.122 0 1.3 2.495 1.841 2.495a5.939 5.939 0 0 0 1.52-.724c-.434 5.542.782 6.021 1.215 6.021a.454.454 0 0 0 .146-.021h19.278c-3.544-2.583-1.048-3.3-.639-6a4.483 4.483 0 0 0 1.722.7c1.054 0-.558-2.474 3.641-2.474.2 0 .411.005.637.017.247.013.49.019.727.019 6.714 0 9.645-4.938 11.624-6.793 2.048-1.92 5.3-7.766-1.2-12.694a14.618 14.618 0 0 0 -8.957-2.864 17.809 17.809 0 0 0 -5.55.86c2.795-2.07 4.662-3.715 4.312-7.11.006-.115.013-.23.013-.346 0-5.4-8.312-9.771-16.1-9.771z" fill="#15b0bf" opacity=".3"/><path d="m50 1491.554c-10.949 0-20.971-2.6-28.732-6.921 0 18.067 28.732 25.167 28.732 25.167s28.732-8.108 28.732-25.164c-7.761 4.313-17.783 6.918-28.732 6.918z" fill="#3b2860"/><path d="m50 1484.459-7.971-31.659a2.4 2.4 0 0 1 2.52-2.8h10.9a2.4 2.4 0 0 1 2.52 2.8z" fill="#15b0bf"/><g fill="#27123e" opacity=".96"><path d="m72.166 1492.139q.144-1.07.286-2.139a2.171 2.171 0 0 1 .413-1.164c.5-.622 1.477-1.01 1.881-.4.371.565.168 1.5.128 2.139a10.977 10.977 0 0 1 -1.278 4.372 1.466 1.466 0 0 1 -.419.539 1.443 1.443 0 0 1 -.885.276c-.507-.033-.557-.4-.517-.7q.195-1.462.391-2.923z"/><path d="m65.443 1495.583.178-2.758a2.775 2.775 0 0 1 .4-1.485c.532-.776 1.645-1.218 2.159-.4a5.556 5.556 0 0 1 .3 2.785 14.394 14.394 0 0 1 -1.171 5.593 1.624 1.624 0 0 1 -.449.673 1.42 1.42 0 0 1 -1.008.3c-.593-.074-.678-.554-.653-.939q.122-1.882.244-3.769z"/><path d="m58.834 1498.442.273-3.415a3.737 3.737 0 0 1 .469-1.815c.6-.922 1.805-1.378 2.334-.313.486.98.269 2.452.244 3.489a19.728 19.728 0 0 1 -1.423 6.86 1.927 1.927 0 0 1 -.5.8 1.333 1.333 0 0 1 -1.094.293c-.635-.142-.712-.746-.675-1.222q.185-2.338.372-4.677z"/><path d="m52.126 1500.3q.02-1.926.038-3.851a4.24 4.24 0 0 1 .369-2.055c.573-1.053 1.844-1.6 2.494-.414.6 1.09.474 2.752.526 3.92a22.638 22.638 0 0 1 -1.02 7.76 2.066 2.066 0 0 1 -.481.914 1.353 1.353 0 0 1 -1.158.358c-.695-.143-.824-.821-.819-1.358z"/><path d="m27.834 1492.139q-.144-1.07-.286-2.139a2.171 2.171 0 0 0 -.413-1.164c-.5-.622-1.477-1.01-1.881-.4-.371.565-.168 1.5-.128 2.139a10.977 10.977 0 0 0 1.278 4.372 1.466 1.466 0 0 0 .419.539 1.443 1.443 0 0 0 .885.276c.507-.033.557-.4.517-.7q-.195-1.462-.391-2.923z"/><path d="m34.641 1495.583-.178-2.758a2.784 2.784 0 0 0 -.4-1.485c-.532-.776-1.646-1.218-2.159-.4a5.556 5.556 0 0 0 -.3 2.785 14.376 14.376 0 0 0 1.171 5.593 1.6 1.6 0 0 0 .449.673 1.418 1.418 0 0 0 1.008.3c.593-.074.678-.554.653-.939q-.122-1.882-.244-3.769z"/><path d="m41.333 1498.442q-.135-1.709-.272-3.415a3.737 3.737 0 0 0 -.469-1.815c-.595-.922-1.806-1.378-2.335-.313-.486.98-.268 2.452-.244 3.489a19.75 19.75 0 0 0 1.423 6.86 1.919 1.919 0 0 0 .5.8 1.331 1.331 0 0 0 1.093.293c.635-.142.713-.746.675-1.222q-.184-2.338-.371-4.677z"/><path d="m48.125 1500.3q-.02-1.926-.038-3.851a4.24 4.24 0 0 0 -.369-2.055c-.573-1.053-1.844-1.6-2.494-.414-.6 1.09-.474 2.752-.526 3.92a22.638 22.638 0 0 0 1.02 7.76 2.066 2.066 0 0 0 .481.914 1.353 1.353 0 0 0 1.158.358c.695-.143.824-.821.819-1.358z"/></g><g fill="none" opacity=".2" stroke-linecap="round" stroke-miterlimit="10"><path d="m50 1488.514a110 110 0 0 1 -28.055-3.514 60.068 60.068 0 0 0 28.055 6.554 60.068 60.068 0 0 0 28.055-6.554 110 110 0 0 1 -28.055 3.514z"/><path d="m50 1491.55395508c-10.63299942 0-20.3920002-2.45593262-28.05500031-6.54992676 8.42700005 2.23901367 17.95500184 3.51000977 28.05500031 3.51000977s19.62799835-1.2709961 28.05500031-3.51000977c-7.66300202 4.09399414-17.42200089 6.54992676-28.05500031 6.54992676z" fill="#15b0bf"/></g><path d="m86.077 1521.326a2.408 2.408 0 0 0 -2.574-.451 1.868 1.868 0 0 0 .672-1.6c0-.026 0-.052 0-.078a2.2 2.2 0 1 0 -4.35.446 1.985 1.985 0 0 0 .67 1.231 2.408 2.408 0 0 0 -2.574.451 2.3 2.3 0 0 0 -.188 2.856 2.04 2.04 0 0 0 1.926 1.074 2.479 2.479 0 0 0 1.832-.792 4.524 4.524 0 0 1 -1 2.536h3.009a4.267 4.267 0 0 1 -.978-2.522 2.461 2.461 0 0 0 1.814.778 2.04 2.04 0 0 0 1.926-1.074 2.3 2.3 0 0 0 -.185-2.855z" fill="#15b0bf"/><path d="m44.549 1450a2.4 2.4 0 0 0 -2.52 2.8l.731 2.9c-5.021 1.647-8.99 4.886-8.99 8.615a6.922 6.922 0 0 0 .291 1.984c.321 2.348 2 3.765 4.3 5.472 0 0-8-2.923-14.507 2-3.459 2.621-4.159 5.5-3.749 7.911a8.143 8.143 0 0 0 1.6 7.376l-.06-.976a17.43 17.43 0 0 0 2.226 5.481c.222.484.454.962.7 1.429h-22.071v57c0 11.215 7.835 21.238 17.142 29.188-.144.307-.289.614-.422.943a33.93 33.93 0 0 0 -2.22 7.869c-3.01 1.541-6 4.931-6 6.99 0 2.728 2.91 2.08 6.5 2.08 2.843 0 5.254-.576 6.136-2.17a22.179 22.179 0 0 0 7.4-4.7q.792-.781 1.525-1.583a139.8 139.8 0 0 0 17.439 9.391v-150z" fill="#fff" opacity=".1"/><g clip-path="url(#a)"><rect fill="#15b0bf" height="128" rx="1" transform="translate(7 1464.129)" width="2"/><path d="m13.229 1467.679a3.086 3.086 0 0 0 -3.3-.579 2.4 2.4 0 0 0 .862-2.051c0-.034 0-.067 0-.1a2.82 2.82 0 1 0 -5.581.572 2.544 2.544 0 0 0 .86 1.579 3.086 3.086 0 0 0 -3.3.579 2.944 2.944 0 0 0 -.241 3.662 2.616 2.616 0 0 0 2.471 1.378 3.176 3.176 0 0 0 2.349-1.016 5.8 5.8 0 0 1 -1.277 3.253h3.856a5.483 5.483 0 0 1 -1.255-3.235 3.151 3.151 0 0 0 2.327 1 2.616 2.616 0 0 0 2.47-1.378 2.944 2.944 0 0 0 -.241-3.664z" fill="#27123e"/><path d="m0 0h6v130h-6z" fill="#fff" opacity=".1" transform="translate(2 1462.129)"/></g><path d="m98.565 1526.588c.915 1.685 2.086 4.268.995 6.134-1.332 2.289-5.444 2.589-7.284.792 1.471-1.7.545-4.83-1.53-6.172a18.369 18.369 0 0 0 3.268-2.973c.637-.632 1.209-1.3 2.15-.91 1.08.441 1.856 2.124 2.401 3.129z" fill="#27123e"/><path d="m97.526 1532.88a3.535 3.535 0 0 1 -1.641 1.618 3.188 3.188 0 0 1 -1.074.208 6.894 6.894 0 0 1 -1.829-.26 4.7 4.7 0 0 1 -1.188-.437 3.614 3.614 0 0 1 -1.584-2.066 7.848 7.848 0 0 1 .356-4.979c.684-1.909 1.888-5.036 4.589-3.644 3.469 1.78 3.968 6.732 2.371 9.56z" fill="#27123e"/><text fill="#27123e" font-family="MyriadPro-Regular, Myriad Pro" font-size="13" transform="translate(45.736 1463.522)"><tspan x="0" y="0">A</tspan></text><text fill="#15b0bf" font-family="MyriadPro-Regular, Myriad Pro" font-size="14" transform="translate(77.408 1514.109)"><tspan x="0" y="0">A</tspan></text><path d="m1.435 1526.588c-.915 1.685-2.086 4.268-.995 6.134 1.332 2.289 5.444 2.589 7.284.792-1.471-1.7-.545-4.83 1.53-6.172a18.368 18.368 0 0 1 -3.268-2.973c-.637-.632-1.209-1.3-2.15-.91-1.08.441-1.856 2.124-2.401 3.129z" fill="#3c2a54"/><path d="m6.092 1531.2a2.285 2.285 0 0 0 .181 1.37 1.861 1.861 0 0 0 .4.49 3.693 3.693 0 0 0 .894.541 2.435 2.435 0 0 0 .67.224 1.89 1.89 0 0 0 1.392-.411 4.759 4.759 0 0 0 1.514-2.51c.339-1.161.858-3.093-.8-3.41-2.123-.406-4.005 1.779-4.251 3.706z" fill="#3c2a54"/></g></svg>