<svg height="150" viewBox="0 0 100 150" width="100" xmlns="http://www.w3.org/2000/svg" xmlns:xlink="http://www.w3.org/1999/xlink"><clipPath id="a"><path d="m1111.028 1163.107a3.061 3.061 0 0 1 -6.056 0c-3.1.075-3.514 3.552-2.43 5.309a16.234 16.234 0 0 0 2.729 3.439c.572.592 1.2 1.222 1.729 1.793v117.489a.994.994 0 0 0 .992.992h.016a.994.994 0 0 0 .992-.992v-117.489c.527-.571 1.157-1.2 1.729-1.793a16.234 16.234 0 0 0 2.729-3.439c1.084-1.757.673-5.234-2.43-5.309z"/></clipPath><g transform="translate(-1100 -1150)"><path d="m1133.844 1276.552c6.382 3.924 2.708 10.189-2.806 15.637-4 3.956-10.69 6.594-12.642 5.062-2.566-2.013-1.854-8.549.824-15.12 2.925-7.179 8.274-9.483 14.624-5.579z" fill="#752125"/><path d="m1124 1295.422c0 2.728-2.91 3.64-6.5 3.64s-6.5.648-6.5-2.08 5.25-7.8 8.84-7.8 4.16 3.512 4.16 6.24z" fill="#eb3b56"/><path d="m1166.156 1276.552c-6.382 3.924-2.708 10.189 2.806 15.637 4 3.956 10.69 6.594 12.642 5.062 2.566-2.013 1.854-8.549-.824-15.12-2.925-7.179-8.274-9.483-14.624-5.579z" fill="#752125"/><path d="m1176 1295.422c0 2.728 2.91 3.64 6.5 3.64s6.5.648 6.5-2.08-5.25-7.8-8.84-7.8-4.16 3.512-4.16 6.24z" fill="#eb3b56"/><path d="m1150 1297.259c6.687-3.076 45-21.735 45-45.259v-57h-90v57c0 23.524 38.312 42.183 45 45.259z" fill="#e5284c"/><path d="m1156.765 1237.011v-17.111h-9.909v15.54a13.836 13.836 0 0 0 -7.651 6.665 5.2 5.2 0 0 0 -2.1.154c-3.167.98-9.5 2.94-8.447 8.818s7.391 6.858 7.391 6.858l5.28 15.675 1.7-.122.692 2.541 19.818.968v-25.887c.006-6.028-2.739-11.31-6.774-14.099z" fill="#fff"/><path d="m1167.054 1236.547-2.894.954.27 3.36 2.945-.941z" fill="#fff"/><path d="m1172.5 1255.433-14.692-19.078-4.406 6.288a13.262 13.262 0 0 0 -5.619.1l-9.037-8.107-3.014 2.35 1.419 4.269c-.124.029-.249.054-.372.092-3.1.957-10.349 3.2-9.146 9.894.856 4.766 5.036 6.915 7.606 7.526l5.346 15.872 7.483-.534.445 1.339 8.87-2.071.686.968zm-18.335 15.108a15.132 15.132 0 0 1 -3.834-7.124l3.946 5.57zm-8.79-9.413c-2.659-5.685.081-13.536 1.108-16.08.163-.038.336-.08.531-.129.141-.036.3-.075.459-.113l1.011.946a23.117 23.117 0 0 0 -3.22 8.508l-.706 1.008.507.716a16.7 16.7 0 0 0 .31 5.144zm3.075-11.416a31.116 31.116 0 0 1 1.126-3.361l.777.645zm.216 11.355a20.713 20.713 0 0 0 .471 2.518 9.913 9.913 0 0 1 -1.572-4.072zm3.5-16.662-.976 1.393-1.5-1.349-.051-.046a10.4 10.4 0 0 1 2.529.002zm-10.087 28.184-.254-.754 5.029-.641-.552-2.4 1.134 3.412zm14.05-.312.044-.611.872 1.231c-.253-.157-.561-.359-.914-.62z" fill="#f74668"/><path d="m1167.8 1240.081 2.922-.842-.163-3.369-2.974.826z" fill="#fff"/><path d="m1168.043 1240.072-2.826 1.178.483 3.331 2.878-1.168z" fill="#fff"/><path d="m1169 1243.753 2.894-.954-.269-3.36-2.946.94z" fill="#fff"/><path d="m1168.682 1251.387-36.95 25.613h35.985z" fill="#f74668"/><path d="m1172.164 1242.965-.31-3.857-.867.277-.185-3.835-3.489.969-.029-.305-3.4 1.121.31 3.857 2.248-.718-1.51.629.555 3.828 3.232-1.312.045.467zm-.55-.332-2.389.788-.273-2.874 2.433-.777zm-1.3-6.441.138 2.872-2.411.694-.183-2.884zm-5.876 1.475 2.389-.788.274 2.874-2.433.777zm1.478 6.563-.411-2.833 2.334-.973.455 2.841zm2.411-4.048 1.687-.485-1.614.515.1 1.034z" fill="#f74668"/><ellipse cx="1168.097" cy="1240.081" fill="#fff" rx=".977" ry="1.081"/><path d="m1168.095 1241.405a1.176 1.176 0 0 1 -.63-.185 1.37 1.37 0 0 1 -.452-1.78 1.253 1.253 0 0 1 .8-.647 1.159 1.159 0 0 1 .914.15 1.368 1.368 0 0 1 .451 1.779 1.25 1.25 0 0 1 -.8.648 1.2 1.2 0 0 1 -.283.035zm0-2.164a.62.62 0 0 0 -.148.019.738.738 0 0 0 -.467.389.921.921 0 0 0 .275 1.171.61.61 0 0 0 .485.082.739.739 0 0 0 .466-.389.92.92 0 0 0 -.275-1.17.611.611 0 0 0 -.331-.102z" fill="#f74668"/><path d="m1163.053 1250.871a10 10 0 0 1 1.3-2.806c.864-1.2 3.888-2.4 3.888-2.4l-1.728 3.607-3.025 1.6z" fill="#fff"/><path d="m1163.555 1251.113h-.836l.081-.3a10.186 10.186 0 0 1 1.333-2.881c.9-1.249 3.876-2.443 4-2.494l.612-.243-2.033 4.244zm-.157-.484h.018l2.89-1.532 1.412-2.946a9.307 9.307 0 0 0 -3.151 2.048 9.431 9.431 0 0 0 -1.167 2.43z" fill="#f74668"/><path d="m1162.829 1240.53a7.687 7.687 0 0 1 .666 2.766c.035 1.445-1.951 3.6-1.951 3.6l-.532-2.213a17.586 17.586 0 0 0 .428-2.122c.098-.892 1.389-2.031 1.389-2.031z" fill="#fff"/><path d="m1161.4 1247.42-.661-2.741.015-.055a17.51 17.51 0 0 0 .423-2.089 4.735 4.735 0 0 1 1.469-2.181l.268-.236.15.314a7.889 7.889 0 0 1 .688 2.859c.037 1.52-1.929 3.671-2.013 3.762zm-.125-2.735.4 1.664c.549-.67 1.578-2.062 1.554-3.047a7.333 7.333 0 0 0 -.5-2.333 3.566 3.566 0 0 0 -1.035 1.616 17.241 17.241 0 0 1 -.415 2.1z" fill="#f74668"/><path d="m1164.528 1244.194s-3.024 4.81-3.024 7.616v2.806h.432v-3.207c0-1.2 1.728-4.409 2.16-5.211a18.22 18.22 0 0 0 .865-2z" fill="#fff"/><path d="m1157.808 1239.742 7.3-3.871-4.658-6.577.029.018 2.543-6.506-9.387-5.806-7.823 3.387.89.541-4.462 12.027 3.875 3 .724-14.947 3.267 1.988z" fill="#f74668"/><g fill="#fff"><path d="m1153.444 1222.309.343.478.426-.388-.32-.482z"/><path d="m1151.74 1222.146.343.478.426-.388-.32-.482z"/><path d="m1150.074 1221.587.343.478.426-.388-.32-.482z"/><path d="m1148.748 1221.535.425-.388-.136-.2c-.073-.005-.146-.006-.219-.013s-.153-.02-.228-.035l-.185.162z"/><path d="m1155.148 1222.472.343.478.426-.388-.32-.482z"/><path d="m1157.635 1222.574-.32-.482-.448.392.343.478z"/><path d="m1159.355 1222.571-.32-.482-.448.392.343.478z"/><path d="m1160.54 1222.4.343.478.426-.388-.272-.409-.034-.05h-.037l-.043.037z"/><path d="m1154.677 1226.108-.177-.35-.209-.414-.281.122.209.414.177.35z"/><path d="m1154.085 1224.889-.177-.35-.205-.407-.281.122.205.407.177.35z"/><path d="m1153.5 1223.675-.177-.35-.226-.447-.281.122.226.447.177.35z"/><path d="m1155.25 1227.279-.17-.353-.178-.371-.038-.079-.283.117.041.084.176.366.169.353z"/><path d="m1155.853 1228.533-.169-.353-.216-.451-.283.117.216.451.17.353z"/><path d="m1156.455 1229.788-.169-.353-.217-.451-.141.058-.142.059.216.451.169.353z"/><path d="m1157.057 1231.042-.169-.353-.216-.451-.142.058-.142.058.216.451.17.353z"/><path d="m1157.66 1232.3-.17-.353-.216-.451-.283.117.217.451.169.353z"/><path d="m1158.262 1233.55-.169-.353-.216-.451-.283.117.216.451.169.353z"/><path d="m1158.865 1234.8-.169-.353-.216-.451-.283.117.216.451.17.353z"/><path d="m1158.939 1235.314-.141.058.216.451.169.353.283-.117-.169-.353-.216-.451z"/><path d="m1159.377 1236.578.023.049.193.4.169.353.283-.117-.169-.353-.193-.4-.023-.049z"/><path d="m1159.979 1237.832.216.451.169.353.283-.117-.169-.353-.216-.451z"/><path d="m1152.514 1223.054-.107.043-.106.044.358.757 6.533 14.346.338.714.1-.323-7.095-15.533z"/><path d="m1158.892 1233.466-4.181-8.655c-.065.025-.1.041-.107.043l-.095-.2.106-.043-1.046-2.166-.027-.057-.212.088.042.087 5.357 11.088c-.014-.083.08-.14.163-.185z"/><path d="m1158.987 1233.663a.3.3 0 0 0 -.054.037l-.071-.067h-.011v.115l-.111-.078 2.443 4.312c.033-.107.067-.213.1-.32z"/><path d="m1159.348 1261.135c-.778.485-1.672 1.06-2.587 1.606-.589.351-1.208.658-1.814.983a.463.463 0 0 1 -.437-.047.287.287 0 0 1 -.066-.2.664.664 0 0 0 -.1-.438.9.9 0 0 1 -.077-.77.8.8 0 0 1 .237-.278 34.7 34.7 0 0 1 4.577-3.436 30.459 30.459 0 0 1 2.9-1.652.561.561 0 0 1 .469-.063.672.672 0 0 1 .4.344.438.438 0 0 0 .363.263.783.783 0 0 1 .246.081.218.218 0 0 1 .051.381q-1.021.924-2.134 1.753c-.637.463-1.276.922-2.028 1.473z"/><path d="m1151.161 1260.115a35.005 35.005 0 0 1 3.163-2.66 39.27 39.27 0 0 1 6.668-4.047 1.888 1.888 0 0 1 .024.284c-.01.136-.043.271-.056.408-.024.23-.042.461-.057.692a.1.1 0 0 1 -.059.1c-.609.327-1.227.642-1.819.994-1.126.667-2.21 1.391-3.265 2.151-.732.526-1.448 1.071-2.16 1.622-.31.24-.588.515-.884.772a.14.14 0 0 1 -.1.03c-.317-.058-.632-.124-.949-.183a1.171 1.171 0 0 1 -.506-.163z"/><path d="m1154.079 1261.431a2.979 2.979 0 0 0 -.265-.4 3.033 3.033 0 0 0 -.379-.306 45.4 45.4 0 0 1 7.488-5.116 2.715 2.715 0 0 0 .2.429 2.951 2.951 0 0 0 .338.358 34.926 34.926 0 0 0 -3.857 2.307 33.939 33.939 0 0 0 -3.525 2.728z"/><path d="m1152.331 1252.029 3.864 3.268-1.674 1.142-2.212-4.4z"/><path d="m1152.457 1258.035-2.81-3.545.011-.013 4.2 2.457z"/><path d="m1155.749 1250.536 2.676 3.376-1.527.924-1.168-4.293z"/><path d="m1151.788 1258.6-1.141 1.031-2.622-2.365.009-.017z"/><path d="m1159.229 1253.466-.267-3.67.02-.005 1.642 3.006z"/><path d="m1150.232 1252.215a.43.43 0 0 1 -.105.631.512.512 0 0 1 -.674-.1.43.43 0 0 1 .1-.63.51.51 0 0 1 .679.099z"/><path d="m1155.551 1249.365a.505.505 0 0 1 -.672-.093.43.43 0 0 1 .1-.631.511.511 0 0 1 .674.095.426.426 0 0 1 -.102.629z"/><path d="m1147.866 1254.839a.5.5 0 0 1 .672.1.429.429 0 0 1 -.107.63.51.51 0 0 1 -.673-.1.426.426 0 0 1 .108-.63z"/><path d="m1158.169 1247.808a.508.508 0 0 1 .679.1.43.43 0 0 1 -.106.625.511.511 0 0 1 -.68-.1.428.428 0 0 1 .107-.625z"/><path d="m1151.878 1250.645a.428.428 0 0 1 .1-.625.508.508 0 0 1 .679.1.425.425 0 0 1 -.108.628.505.505 0 0 1 -.671-.103z"/><path d="m1153.276 1265.848-.665-.829-.829 1.218z"/><path d="m1151.33 1267.192-.665-.829-.829 1.218z"/><path d="m1149.385 1268.537-.666-.829-.829 1.218z"/><path d="m1147.44 1269.881-.665-.829-.829 1.218z"/><path d="m1145.5 1271.226-.666-.829-.829 1.218z"/><path d="m1143.55 1272.57-.666-.829-.829 1.218z"/><path d="m1141.605 1273.915-.665-.829-.829 1.218z"/><path d="m1139.66 1275.259-.665-.829-.829 1.218z"/></g><path d="m1192.5 1252c0 18.925-29.013 36.284-42.5 42.524-13.494-6.228-42.5-23.561-42.5-42.524v-57h-5v57c0 27.614 47.5 48 47.5 48s47.5-20.386 47.5-48v-57h-5z" fill="#d31341"/><path d="m1121.7 1189.066c-2.507-2.929-2.366-7.518-.557-9.066" fill="#eb3b56"/><path d="m1178.1 1189.066c2.507-2.929 2.366-7.518.557-9.066" fill="#eb3b56"/><path d="m1178.814 1180.608c1.2 14.189-12.916 29.392-28.849 29.392s-28.85-12.162-28.85-29.392c0-.2 28.65-7.094 28.85-7.094 1.194 0 28.835 6.892 28.849 7.094z" fill="#eb3b56"/><path d="m1165.266 1160.15c-11.9-.285-14.636 8.768-15.266 13.123-.63-4.355-3.37-13.408-15.266-13.123-15.643.376-17.716 17.843-12.251 26.671s8.293 9.566 13.759 15.2c5.147 5.307 11.3-.155 13.57 3.5 0 0 .121.427.188.311.067.116.188-.311.188-.311 2.273-3.659 8.423 1.8 13.57-3.5 5.466-5.634 8.293-6.373 13.759-15.2s3.392-26.295-12.251-26.671z" fill="#e5284c"/><path d="m1135.278 1160.144v2c9.648 0 12.124 7.152 12.742 11.416a2 2 0 0 0 3.958 0c.618-4.264 3.093-11.416 12.742-11.416.163 0 .33 0 .5.006 5.113.122 8.967 2.316 11.148 6.344a18.5 18.5 0 0 1 -.55 17.274 39.721 39.721 0 0 1 -8.934 10.567c-1.324 1.175-2.825 2.506-4.559 4.294a5.845 5.845 0 0 1 -4.586 1.869 21.917 21.917 0 0 1 -2.363-.173 20.973 20.973 0 0 0 -2.272-.168 6.6 6.6 0 0 1 -6.2 0 20.973 20.973 0 0 0 -2.272.168 21.917 21.917 0 0 1 -2.363.173 5.845 5.845 0 0 1 -4.586-1.869c-1.734-1.788-3.235-3.119-4.559-4.294a39.721 39.721 0 0 1 -8.934-10.567 18.5 18.5 0 0 1 -.55-17.274c2.181-4.028 6.035-6.222 11.148-6.344.168 0 .332-.006.5-.006v-2m29.443 0c-11.436 0-14.1 8.842-14.721 13.129-.621-4.287-3.287-13.129-14.721-13.129-.18 0-.361 0-.545.006-15.643.376-17.716 17.843-12.251 26.671s8.293 9.566 13.759 15.2a7.858 7.858 0 0 0 6.021 2.477c1.69 0 3.29-.341 4.635-.341a3.068 3.068 0 0 1 2.914 1.368s.094.331.162.331c.009 0 .018-.006.026-.02.008.014.017.02.026.02.068 0 .162-.331.162-.331a3.068 3.068 0 0 1 2.914-1.368c1.345 0 2.945.341 4.635.341a7.86 7.86 0 0 0 6.021-2.477c5.466-5.634 8.293-6.373 13.759-15.2s3.392-26.3-12.251-26.671c-.184 0-.366-.006-.545-.006z" fill="#ff83a1" opacity=".8"/><path d="m1150 1184.459-7.971-31.657a2.4 2.4 0 0 1 2.52-2.8h10.9a2.4 2.4 0 0 1 2.52 2.8z" fill="#e6e6e6"/><path d="m1150 1191.554c-10.949 0-20.971-2.6-28.732-6.921 0 18.07 28.732 25.164 28.732 25.164s28.732-8.108 28.732-25.164c-7.761 4.316-17.783 6.921-28.732 6.921z" fill="#f74668"/><path d="m1172.166 1192.139q.144-1.07.286-2.139a2.172 2.172 0 0 1 .413-1.164c.5-.622 1.477-1.01 1.881-.4.371.565.168 1.5.128 2.139a10.977 10.977 0 0 1 -1.278 4.372 1.466 1.466 0 0 1 -.419.539 1.443 1.443 0 0 1 -.885.276c-.507-.033-.557-.4-.517-.7q.195-1.462.391-2.923z" fill="#eb3b56"/><path d="m1165.443 1195.583.178-2.758a2.775 2.775 0 0 1 .4-1.485c.532-.776 1.645-1.218 2.159-.4a5.556 5.556 0 0 1 .3 2.785 14.393 14.393 0 0 1 -1.171 5.593 1.624 1.624 0 0 1 -.449.673 1.42 1.42 0 0 1 -1.008.3c-.593-.074-.678-.554-.653-.939q.122-1.882.244-3.769z" fill="#eb3b56"/><path d="m1158.834 1198.442.273-3.415a3.737 3.737 0 0 1 .469-1.815c.595-.922 1.8-1.378 2.334-.313.486.98.269 2.452.244 3.489a19.728 19.728 0 0 1 -1.423 6.86 1.925 1.925 0 0 1 -.5.8 1.333 1.333 0 0 1 -1.094.293c-.635-.142-.712-.746-.675-1.222q.185-2.338.372-4.677z" fill="#eb3b56"/><path d="m1152.126 1200.3q.02-1.926.038-3.851a4.242 4.242 0 0 1 .369-2.055c.573-1.053 1.844-1.6 2.494-.414.6 1.09.474 2.752.526 3.92a22.637 22.637 0 0 1 -1.02 7.76 2.067 2.067 0 0 1 -.481.914 1.353 1.353 0 0 1 -1.158.358c-.7-.143-.824-.821-.819-1.358z" fill="#eb3b56"/><path d="m1127.834 1192.139q-.144-1.07-.286-2.139a2.172 2.172 0 0 0 -.413-1.164c-.5-.622-1.477-1.01-1.881-.4-.371.565-.168 1.5-.128 2.139a10.977 10.977 0 0 0 1.278 4.372 1.466 1.466 0 0 0 .419.539 1.443 1.443 0 0 0 .885.276c.507-.033.557-.4.517-.7q-.195-1.462-.391-2.923z" fill="#eb3b56"/><path d="m1134.641 1195.583-.178-2.758a2.784 2.784 0 0 0 -.4-1.485c-.532-.776-1.646-1.218-2.159-.4a5.557 5.557 0 0 0 -.3 2.785 14.375 14.375 0 0 0 1.171 5.593 1.605 1.605 0 0 0 .449.673 1.418 1.418 0 0 0 1.008.3c.593-.074.678-.554.653-.939q-.122-1.882-.244-3.769z" fill="#eb3b56"/><path d="m1141.333 1198.442q-.135-1.709-.272-3.415a3.738 3.738 0 0 0 -.469-1.815c-.6-.922-1.806-1.378-2.335-.313-.486.98-.268 2.452-.244 3.489a19.75 19.75 0 0 0 1.423 6.86 1.918 1.918 0 0 0 .5.8 1.331 1.331 0 0 0 1.093.293c.635-.142.713-.746.675-1.222q-.184-2.338-.371-4.677z" fill="#eb3b56"/><path d="m1148.125 1200.3q-.019-1.926-.038-3.851a4.24 4.24 0 0 0 -.369-2.055c-.573-1.053-1.844-1.6-2.494-.414-.6 1.09-.474 2.752-.526 3.92a22.637 22.637 0 0 0 1.02 7.76 2.067 2.067 0 0 0 .481.914 1.354 1.354 0 0 0 1.158.358c.695-.143.824-.821.819-1.358z" fill="#eb3b56"/><path d="m1150 1188.514a110 110 0 0 1 -28.055-3.51 63.359 63.359 0 0 0 56.11 0 110 110 0 0 1 -28.055 3.51z" fill="#eb3b56" opacity=".5"/><path d="m1184.1 1217.908a2.126 2.126 0 0 1 -4.206 0c-2.154.052-2.44 2.466-1.687 3.686a11.253 11.253 0 0 0 1.9 2.388 18.159 18.159 0 0 1 1.869 2.065s.017.059.026.043c.009.016.026-.043.026-.043a18.159 18.159 0 0 1 1.869-2.065 11.253 11.253 0 0 0 1.9-2.388c.746-1.22.46-3.634-1.697-3.686z" fill="#e6e6e6"/><path d="m1144.549 1150a2.4 2.4 0 0 0 -2.52 2.8l2.571 10.209c-2.256-1.769-5.421-2.967-9.866-2.861-12.771.307-16.495 12.005-14.458 21.093a8.007 8.007 0 0 0 1.424 7.823l-.06-.976a17.429 17.429 0 0 0 2.226 5.481c.222.484.454.962.7 1.429h-22.066v57c0 11.215 7.835 21.238 17.142 29.188-.144.307-.289.614-.422.943a33.931 33.931 0 0 0 -2.221 7.861c-3.01 1.541-6 4.931-6 6.99 0 2.728 2.91 2.08 6.5 2.08 2.843 0 5.254-.576 6.136-2.17a22.179 22.179 0 0 0 7.4-4.7q.792-.781 1.525-1.583a139.806 139.806 0 0 0 17.44 9.393v-150z" fill="#fff" opacity=".1"/><g clip-path="url(#a)"><rect fill="#e6e6e6" height="126" rx=".992" transform="translate(1107 1166.129)" width="2"/><path d="m1111.028 1163.107a3.061 3.061 0 0 1 -6.056 0c-3.1.075-3.514 3.552-2.43 5.309a16.234 16.234 0 0 0 2.729 3.439 26.178 26.178 0 0 1 2.692 2.973s.024.085.037.062c.013.023.037-.062.037-.062a26.178 26.178 0 0 1 2.692-2.973 16.234 16.234 0 0 0 2.729-3.439c1.084-1.757.673-5.234-2.43-5.309z" fill="#eb3b56"/><path d="m0 0h6v130h-6z" fill="#fff" opacity=".05" transform="translate(1102 1162.129)"/></g><path d="m1198.565 1226.588c.915 1.685 2.086 4.268 1 6.134-1.332 2.289-5.444 2.589-7.284.792 1.471-1.7.545-4.83-1.53-6.172a18.369 18.369 0 0 0 3.268-2.973c.637-.632 1.209-1.3 2.15-.91 1.075.441 1.851 2.124 2.396 3.129z" fill="#eb3b56"/><path d="m1197.526 1232.88a3.535 3.535 0 0 1 -1.641 1.618 3.188 3.188 0 0 1 -1.074.208 6.893 6.893 0 0 1 -1.829-.26 4.7 4.7 0 0 1 -1.188-.437 3.614 3.614 0 0 1 -1.584-2.066 7.848 7.848 0 0 1 .356-4.979c.684-1.909 1.888-5.036 4.589-3.644 3.469 1.78 3.968 6.732 2.371 9.56z" fill="#eb3b56"/><text fill="#eb3b56" font-family="MyriadPro-Regular, Myriad Pro" font-size="13" transform="translate(1150 1163.522)"><tspan x="-4.478" y="0">Q</tspan></text><text fill="#e6e6e6" font-family="MyriadPro-Regular, Myriad Pro" font-size="14" transform="translate(1182 1214.109)"><tspan x="-4.823" y="0">Q</tspan></text><path d="m1101.435 1226.588c-.915 1.685-2.086 4.268-1 6.134 1.332 2.289 5.444 2.589 7.284.792-1.471-1.7-.545-4.83 1.53-6.172a18.369 18.369 0 0 1 -3.268-2.973c-.637-.632-1.209-1.3-2.15-.91-1.075.441-1.851 2.124-2.396 3.129z" fill="#eb3b56"/><path d="m1106.092 1231.2a2.285 2.285 0 0 0 .181 1.37 1.861 1.861 0 0 0 .4.49 3.694 3.694 0 0 0 .894.541 2.435 2.435 0 0 0 .67.224 1.89 1.89 0 0 0 1.392-.411 4.76 4.76 0 0 0 1.514-2.51c.339-1.161.858-3.093-.8-3.41-2.123-.406-4.005 1.779-4.251 3.706z" fill="#eb3b56"/></g></svg>