<svg height="150" viewBox="0 0 100 150" width="100" xmlns="http://www.w3.org/2000/svg" xmlns:xlink="http://www.w3.org/1999/xlink"><clipPath id="a"><path d="m1113.229 1467.679a3.086 3.086 0 0 0 -3.3-.579 2.4 2.4 0 0 0 .862-2.051c0-.034 0-.067 0-.1a2.819 2.819 0 1 0 -5.581.572 2.544 2.544 0 0 0 .86 1.579 3.086 3.086 0 0 0 -3.3.579 2.944 2.944 0 0 0 -.241 3.662 2.616 2.616 0 0 0 2.47 1.378 2.856 2.856 0 0 0 2-.737v1.328a5.871 5.871 0 0 1 -.928 1.646h.929v116.173a1 1 0 0 0 2 0v-116.173h.928a5.108 5.108 0 0 1 -.928-1.615v-1.359a2.858 2.858 0 0 0 2 .737 2.616 2.616 0 0 0 2.47-1.378 2.944 2.944 0 0 0 -.241-3.662z"/></clipPath><g transform="translate(-1100 -1450)"><path d="m1133.844 1576.552c6.382 3.924 2.708 10.189-2.806 15.637-4 3.956-10.69 6.594-12.642 5.062-2.566-2.013-1.854-8.549.824-15.12 2.925-7.179 8.274-9.483 14.624-5.579z" fill="#27123e"/><path d="m1124 1595.422c0 2.728-2.91 3.64-6.5 3.64s-6.5.648-6.5-2.08 5.25-7.8 8.84-7.8 4.16 3.512 4.16 6.24z" fill="#27123e"/><path d="m1166.156 1576.552c-6.382 3.924-2.708 10.189 2.806 15.637 4 3.956 10.69 6.594 12.642 5.062 2.566-2.013 1.854-8.549-.824-15.12-2.925-7.179-8.274-9.483-14.624-5.579z" fill="#27123e"/><path d="m1176 1595.422c0 2.728 2.91 3.64 6.5 3.64s6.5.648 6.5-2.08-5.25-7.8-8.84-7.8-4.16 3.512-4.16 6.24z" fill="#27123e"/><path d="m1195 1495h-90v57c0 23.524 38.313 42.183 45 45.259 6.688-3.076 45-21.735 45-45.259z" fill="#27123e"/><path d="m1192.5 1552c0 18.925-29.013 36.284-42.5 42.524-13.494-6.228-42.5-23.561-42.5-42.524v-57h-5v57c0 27.614 47.5 48 47.5 48s47.5-20.386 47.5-48v-57h-5z" fill="#27123e"/><path d="m1107.5 1495h-5v57c0 27.614 47.5 48 47.5 48v-105z" fill="#fff" opacity=".1"/><path d="m1121.7 1489.066c-2.507-2.929-2.366-7.518-.557-9.066" fill="#27123e"/><path d="m1178.1 1489.066c2.507-2.929 2.366-7.518.557-9.066" fill="#27123e"/><path d="m1178.814 1480.608c1.2 14.189-12.916 29.392-28.849 29.392s-28.85-12.162-28.85-29.392c0-.2 28.65-7.094 28.85-7.094 1.194 0 28.835 6.892 28.849 7.094z" fill="#27123e" opacity=".6"/><path d="m1176.146 1473.779c-6.507-4.927-14.507-2-14.507-2 2.795-2.07 4.662-3.715 4.312-7.11.006-.115.013-.23.013-.346 0-5.4-8.312-9.771-16.1-9.771s-16.1 4.375-16.1 9.771a6.921 6.921 0 0 0 .291 1.984c.321 2.348 2 3.765 4.3 5.472 0 0-8-2.923-14.507 2s-3.253 10.774-1.2 12.694 5.119 5.146 12.351 4.774c6.4-.33-.4 4.188 4 1.753-.525 6.7 1.361 6 1.361 6h19.278c-3.544-2.583-1.048-3.3-.639-6 4.3 2.385-.343-2.08 6-1.753 7.232.372 10.3-2.853 12.351-4.774s5.302-7.766-1.204-12.694z" fill="#27123e"/><path d="m1149.867 1456.548c6.982 0 14.1 3.922 14.1 7.771 0 .067-.005.134-.01.244a1.857 1.857 0 0 0 .008.307c.222 2.159-.638 3.168-3.514 5.3a2 2 0 0 0 1.871 3.488 16.093 16.093 0 0 1 4.87-.741 12.52 12.52 0 0 1 7.749 2.459c1.936 1.466 2.964 3.09 3.055 4.828a6.7 6.7 0 0 1 -2.01 4.812c-.422.4-.849.875-1.3 1.382-1.935 2.17-4.344 4.87-8.954 4.87q-.306 0-.624-.017c-.263-.013-.509-.019-.74-.019-2.248 0-3.754.637-4.557 1.94a2 2 0 0 0 -2.783 1.531 4.773 4.773 0 0 1 -.541 1.439 4.958 4.958 0 0 0 -.681 2.86h-14.752a14.709 14.709 0 0 1 -.055-3.844 2 2 0 0 0 -.912-1.838 2.046 2.046 0 0 0 -.4-.2 2.747 2.747 0 0 0 -.149-.283c-.864-1.439-2.637-1.606-3.9-1.606q-.341 0-.736.02-.318.016-.624.017c-4.61 0-7.019-2.7-8.955-4.87-.452-.508-.88-.987-1.3-1.382a6.7 6.7 0 0 1 -2.01-4.811c.091-1.739 1.119-3.363 3.055-4.829a12.513 12.513 0 0 1 7.749-2.459 16.1 16.1 0 0 1 4.864.739 2 2 0 0 0 1.877-3.486c-2.265-1.678-3.309-2.673-3.509-4.136a2.025 2.025 0 0 0 -.065-.3 4.957 4.957 0 0 1 -.208-1.413c0-3.849 7.114-7.771 14.1-7.771m0-2c-7.786 0-16.1 4.375-16.1 9.771a6.921 6.921 0 0 0 .291 1.984c.321 2.348 2 3.765 4.3 5.472a17.809 17.809 0 0 0 -5.55-.86 14.611 14.611 0 0 0 -8.957 2.864c-6.506 4.928-3.253 10.774-1.2 12.694 1.978 1.855 4.911 6.793 11.624 6.793.238 0 .479-.006.727-.019q.341-.018.633-.018c4.122 0 1.3 2.495 1.841 2.495a5.938 5.938 0 0 0 1.515-.726c-.434 5.542.782 6.021 1.215 6.021a.453.453 0 0 0 .146-.021h19.278c-3.544-2.583-1.048-3.3-.639-6a4.483 4.483 0 0 0 1.722.7c1.054 0-.558-2.474 3.641-2.474.2 0 .411.005.637.017.247.013.49.019.727.019 6.714 0 9.645-4.938 11.624-6.793 2.048-1.92 5.3-7.766-1.2-12.694a14.618 14.618 0 0 0 -8.957-2.864 17.809 17.809 0 0 0 -5.55.86c2.795-2.07 4.662-3.715 4.312-7.11.006-.115.013-.23.013-.346 0-5.4-8.312-9.771-16.1-9.771z" fill="#15b0bf" opacity=".3"/><path d="m1150 1491.554c-10.949 0-20.971-2.6-28.732-6.921 0 18.07 28.732 25.164 28.732 25.164s28.732-8.108 28.732-25.164c-7.761 4.316-17.783 6.921-28.732 6.921z" fill="#27123e"/><path d="m1150 1484.459-7.971-31.657a2.4 2.4 0 0 1 2.52-2.8h10.9a2.4 2.4 0 0 1 2.52 2.8z" fill="#15b0bf"/><g fill="#27123e" opacity=".96"><path d="m1172.166 1492.139q.144-1.07.286-2.139a2.172 2.172 0 0 1 .413-1.164c.5-.622 1.477-1.01 1.881-.4.371.565.168 1.5.128 2.139a10.977 10.977 0 0 1 -1.278 4.372 1.466 1.466 0 0 1 -.419.539 1.443 1.443 0 0 1 -.885.276c-.507-.033-.557-.4-.517-.7q.195-1.462.391-2.923z"/><path d="m1165.443 1495.583.178-2.758a2.775 2.775 0 0 1 .4-1.485c.532-.776 1.645-1.218 2.159-.4a5.556 5.556 0 0 1 .3 2.785 14.393 14.393 0 0 1 -1.171 5.593 1.624 1.624 0 0 1 -.449.673 1.42 1.42 0 0 1 -1.008.3c-.593-.074-.678-.554-.653-.939q.122-1.882.244-3.769z"/><path d="m1158.834 1498.442.273-3.415a3.737 3.737 0 0 1 .469-1.815c.595-.922 1.8-1.378 2.334-.313.486.98.269 2.452.244 3.489a19.728 19.728 0 0 1 -1.423 6.86 1.925 1.925 0 0 1 -.5.8 1.333 1.333 0 0 1 -1.094.293c-.635-.142-.712-.746-.675-1.222q.185-2.338.372-4.677z"/><path d="m1152.126 1500.3q.02-1.926.038-3.851a4.242 4.242 0 0 1 .369-2.055c.573-1.053 1.844-1.6 2.494-.414.6 1.09.474 2.752.526 3.92a22.637 22.637 0 0 1 -1.02 7.76 2.067 2.067 0 0 1 -.481.914 1.353 1.353 0 0 1 -1.158.358c-.7-.143-.824-.821-.819-1.358z"/><path d="m1127.834 1492.139q-.144-1.07-.286-2.139a2.172 2.172 0 0 0 -.413-1.164c-.5-.622-1.477-1.01-1.881-.4-.371.565-.168 1.5-.128 2.139a10.977 10.977 0 0 0 1.278 4.372 1.466 1.466 0 0 0 .419.539 1.443 1.443 0 0 0 .885.276c.507-.033.557-.4.517-.7q-.195-1.462-.391-2.923z"/><path d="m1134.641 1495.583-.178-2.758a2.784 2.784 0 0 0 -.4-1.485c-.532-.776-1.646-1.218-2.159-.4a5.557 5.557 0 0 0 -.3 2.785 14.375 14.375 0 0 0 1.171 5.593 1.605 1.605 0 0 0 .449.673 1.418 1.418 0 0 0 1.008.3c.593-.074.678-.554.653-.939q-.122-1.882-.244-3.769z"/><path d="m1141.333 1498.442q-.135-1.709-.272-3.415a3.738 3.738 0 0 0 -.469-1.815c-.6-.922-1.806-1.378-2.335-.313-.486.98-.268 2.452-.244 3.489a19.75 19.75 0 0 0 1.423 6.86 1.918 1.918 0 0 0 .5.8 1.331 1.331 0 0 0 1.093.293c.635-.142.713-.746.675-1.222q-.184-2.338-.371-4.677z"/><path d="m1148.125 1500.3q-.019-1.926-.038-3.851a4.24 4.24 0 0 0 -.369-2.055c-.573-1.053-1.844-1.6-2.494-.414-.6 1.09-.474 2.752-.526 3.92a22.637 22.637 0 0 0 1.02 7.76 2.067 2.067 0 0 0 .481.914 1.354 1.354 0 0 0 1.158.358c.695-.143.824-.821.819-1.358z"/></g><g fill="none" opacity=".2" stroke-linecap="round" stroke-miterlimit="10"><path d="m1150 1488.514a110 110 0 0 1 -28.055-3.51 63.359 63.359 0 0 0 56.11 0 110 110 0 0 1 -28.055 3.51z"/><path d="m1150 1491.55395508c-10.63305664 0-20.39196777-2.45593262-28.05505371-6.54992676 8.42700195 2.23901367 17.95507812 3.51000977 28.05505371 3.51000977s19.62805176-1.2709961 28.05505371-3.51000977c-7.66308594 4.09399414-17.42199707 6.54992676-28.05505371 6.54992676z" fill="#15b0bf"/></g><path d="m1156.765 1537.011v-17.111h-9.909v15.54a13.836 13.836 0 0 0 -7.651 6.665 5.2 5.2 0 0 0 -2.1.154c-3.167.98-9.5 2.94-8.447 8.818s7.391 6.858 7.391 6.858l5.28 15.675 1.7-.122.692 2.541 19.818.968v-25.887c.006-6.028-2.739-11.31-6.774-14.099z" fill="#15b0bf"/><path d="m1167.054 1536.547-2.894.954.27 3.36 2.945-.941z" fill="#15b0bf"/><path d="m1172.5 1555.433-14.692-19.078-4.406 6.288a13.262 13.262 0 0 0 -5.619.1l-9.037-8.107-3.014 2.35 1.419 4.269c-.124.029-.249.054-.372.092-3.1.957-10.349 3.2-9.146 9.894.856 4.766 5.036 6.915 7.606 7.526l5.346 15.872 7.483-.534.445 1.339 8.87-2.071.686.968zm-18.335 15.108a15.132 15.132 0 0 1 -3.834-7.124l3.946 5.57zm-8.79-9.413c-2.659-5.685.081-13.536 1.108-16.08.163-.038.336-.08.531-.129.141-.036.3-.075.459-.113l1.011.946a23.117 23.117 0 0 0 -3.22 8.508l-.706 1.008.507.716a16.7 16.7 0 0 0 .31 5.144zm3.075-11.416a31.116 31.116 0 0 1 1.126-3.361l.777.645zm.216 11.355a20.713 20.713 0 0 0 .471 2.518 9.913 9.913 0 0 1 -1.572-4.072zm3.5-16.662-.976 1.393-1.5-1.349-.051-.046a10.4 10.4 0 0 1 2.529.002zm-10.087 28.184-.254-.754 5.029-.641-.552-2.4 1.134 3.412zm14.05-.312.044-.611.872 1.231c-.253-.157-.561-.359-.914-.62z" fill="#3c2a54"/><path d="m1167.8 1540.081 2.922-.842-.163-3.369-2.974.826z" fill="#15b0bf"/><path d="m1168.043 1540.072-2.826 1.178.483 3.331 2.878-1.168z" fill="#15b0bf"/><path d="m1169 1543.753 2.894-.954-.269-3.36-2.946.94z" fill="#15b0bf"/><path d="m1168.682 1551.387-36.95 25.613h35.985z" fill="#3c2a54"/><path d="m1172.164 1542.965-.31-3.857-.867.277-.185-3.835-3.489.969-.029-.305-3.4 1.121.31 3.857 2.248-.718-1.51.629.555 3.828 3.232-1.312.045.467zm-.55-.332-2.389.788-.273-2.874 2.433-.777zm-1.3-6.441.138 2.872-2.411.694-.183-2.884zm-5.876 1.475 2.389-.788.274 2.874-2.433.777zm1.478 6.563-.411-2.833 2.334-.973.455 2.841zm2.411-4.048 1.687-.485-1.614.515.1 1.034z" fill="#3c2a54"/><ellipse cx="1168.097" cy="1540.081" fill="#15b0bf" rx=".977" ry="1.081"/><path d="m1168.095 1541.405a1.176 1.176 0 0 1 -.63-.185 1.37 1.37 0 0 1 -.452-1.78 1.253 1.253 0 0 1 .8-.647 1.159 1.159 0 0 1 .914.15 1.368 1.368 0 0 1 .451 1.779 1.25 1.25 0 0 1 -.8.648 1.2 1.2 0 0 1 -.283.035zm0-2.164a.62.62 0 0 0 -.148.019.738.738 0 0 0 -.467.389.921.921 0 0 0 .275 1.171.61.61 0 0 0 .485.082.739.739 0 0 0 .466-.389.92.92 0 0 0 -.275-1.17.611.611 0 0 0 -.331-.102z" fill="#3c2a54"/><path d="m1163.053 1550.871a10 10 0 0 1 1.3-2.806c.864-1.2 3.888-2.4 3.888-2.4l-1.728 3.607-3.025 1.6z" fill="#15b0bf"/><path d="m1163.555 1551.113h-.836l.081-.3a10.186 10.186 0 0 1 1.333-2.881c.9-1.249 3.876-2.443 4-2.494l.612-.243-2.033 4.244zm-.157-.484h.018l2.89-1.532 1.412-2.946a9.307 9.307 0 0 0 -3.151 2.048 9.431 9.431 0 0 0 -1.167 2.43z" fill="#3c2a54"/><path d="m1162.829 1540.53a7.687 7.687 0 0 1 .666 2.766c.035 1.445-1.951 3.6-1.951 3.6l-.532-2.213a17.586 17.586 0 0 0 .428-2.122c.098-.892 1.389-2.031 1.389-2.031z" fill="#15b0bf"/><path d="m1161.4 1547.42-.661-2.741.015-.055a17.51 17.51 0 0 0 .423-2.089 4.735 4.735 0 0 1 1.469-2.181l.268-.236.15.314a7.889 7.889 0 0 1 .688 2.859c.037 1.52-1.929 3.671-2.013 3.762zm-.125-2.735.4 1.664c.549-.67 1.578-2.062 1.554-3.047a7.333 7.333 0 0 0 -.5-2.333 3.566 3.566 0 0 0 -1.035 1.616 17.241 17.241 0 0 1 -.415 2.1z" fill="#3c2a54"/><path d="m1164.528 1544.194s-3.024 4.81-3.024 7.616v2.806h.432v-3.207c0-1.2 1.728-4.409 2.16-5.211a18.22 18.22 0 0 0 .865-2z" fill="#15b0bf"/><path d="m1157.808 1539.742 7.3-3.871-4.658-6.577.029.018 2.543-6.506-9.387-5.806-7.823 3.387.89.541-4.462 12.027 3.875 3 .724-14.947 3.267 1.988z" fill="#3c2a54"/><path d="m1153.444 1522.309.343.478.426-.388-.32-.482z" fill="#fff"/><path d="m1151.74 1522.146.343.478.426-.388-.32-.482z" fill="#fff"/><path d="m1150.074 1521.587.343.478.426-.388-.32-.482z" fill="#fff"/><path d="m1148.748 1521.535.425-.388-.136-.2c-.073-.005-.146-.006-.219-.013s-.153-.02-.228-.035l-.185.162z" fill="#fff"/><path d="m1155.148 1522.472.343.478.426-.388-.32-.482z" fill="#fff"/><path d="m1157.635 1522.574-.32-.482-.448.392.343.478z" fill="#fff"/><path d="m1159.355 1522.571-.32-.482-.448.392.343.478z" fill="#fff"/><path d="m1160.54 1522.4.343.478.426-.388-.272-.409-.034-.05h-.037l-.043.037z" fill="#fff"/><path d="m1154.677 1526.108-.177-.35-.209-.414-.281.122.209.414.177.35z" fill="#15b0bf"/><path d="m1154.085 1524.889-.177-.35-.205-.407-.281.122.205.407.177.35z" fill="#15b0bf"/><path d="m1153.5 1523.675-.177-.35-.226-.447-.281.122.226.447.177.35z" fill="#15b0bf"/><path d="m1155.25 1527.279-.17-.353-.178-.371-.038-.079-.283.117.041.084.176.366.169.353z" fill="#15b0bf"/><path d="m1155.853 1528.533-.169-.353-.216-.451-.283.117.216.451.17.353z" fill="#15b0bf"/><path d="m1156.455 1529.788-.169-.353-.217-.451-.141.058-.142.059.216.451.169.353z" fill="#15b0bf"/><path d="m1157.057 1531.042-.169-.353-.216-.451-.142.058-.142.058.216.451.17.353z" fill="#15b0bf"/><path d="m1157.66 1532.3-.17-.353-.216-.451-.283.117.217.451.169.353z" fill="#15b0bf"/><path d="m1158.262 1533.55-.169-.353-.216-.451-.283.117.216.451.169.353z" fill="#15b0bf"/><path d="m1158.865 1534.8-.169-.353-.216-.451-.283.117.216.451.17.353z" fill="#15b0bf"/><path d="m1158.939 1535.314-.141.058.216.451.169.353.283-.117-.169-.353-.216-.451z" fill="#15b0bf"/><path d="m1159.377 1536.578.023.049.193.4.169.353.283-.117-.169-.353-.193-.4-.023-.049z" fill="#15b0bf"/><path d="m1159.979 1537.832.216.451.169.353.283-.117-.169-.353-.216-.451z" fill="#15b0bf"/><path d="m1152.514 1523.054-.107.043-.106.044.358.757 6.533 14.346.338.714.1-.323-7.095-15.533z" fill="#15b0bf"/><path d="m1158.892 1533.466-4.181-8.655c-.065.025-.1.041-.107.043l-.095-.2.106-.043-1.046-2.166-.027-.057-.212.088.042.087 5.357 11.088c-.014-.083.08-.14.163-.185z" fill="#15b0bf"/><path d="m1158.987 1533.663a.3.3 0 0 0 -.054.037l-.071-.067h-.011v.115l-.111-.078 2.443 4.312c.033-.107.067-.213.1-.32z" fill="#15b0bf"/><g fill="#fff"><path d="m1159.348 1561.135c-.778.485-1.672 1.06-2.587 1.606-.589.351-1.208.658-1.814.983a.463.463 0 0 1 -.437-.047.287.287 0 0 1 -.066-.2.664.664 0 0 0 -.1-.438.9.9 0 0 1 -.077-.77.8.8 0 0 1 .237-.278 34.7 34.7 0 0 1 4.577-3.436 30.459 30.459 0 0 1 2.9-1.652.561.561 0 0 1 .469-.063.672.672 0 0 1 .4.344.438.438 0 0 0 .363.263.783.783 0 0 1 .246.081.218.218 0 0 1 .051.381q-1.021.924-2.134 1.753c-.637.463-1.276.922-2.028 1.473z"/><path d="m1151.161 1560.115a35.005 35.005 0 0 1 3.163-2.66 39.27 39.27 0 0 1 6.668-4.047 1.888 1.888 0 0 1 .024.284c-.01.136-.043.271-.056.408-.024.23-.042.461-.057.692a.1.1 0 0 1 -.059.1c-.609.327-1.227.642-1.819.994-1.126.667-2.21 1.391-3.265 2.151-.732.526-1.448 1.071-2.16 1.622-.31.24-.588.515-.884.772a.14.14 0 0 1 -.1.03c-.317-.058-.632-.124-.949-.183a1.171 1.171 0 0 1 -.506-.163z"/><path d="m1154.079 1561.431a2.979 2.979 0 0 0 -.265-.4 3.033 3.033 0 0 0 -.379-.306 45.4 45.4 0 0 1 7.488-5.116 2.715 2.715 0 0 0 .2.429 2.951 2.951 0 0 0 .338.358 34.926 34.926 0 0 0 -3.857 2.307 33.939 33.939 0 0 0 -3.525 2.728z"/><path d="m1152.331 1552.029 3.864 3.268-1.674 1.142-2.212-4.4z"/><path d="m1152.457 1558.035-2.81-3.545.011-.013 4.2 2.457z"/><path d="m1155.749 1550.536 2.676 3.376-1.527.924-1.168-4.293z"/><path d="m1151.788 1558.6-1.141 1.031-2.622-2.365.009-.017z"/><path d="m1159.229 1553.466-.267-3.67.02-.005 1.642 3.006z"/><path d="m1150.232 1552.215a.43.43 0 0 1 -.105.631.512.512 0 0 1 -.674-.1.43.43 0 0 1 .1-.63.51.51 0 0 1 .679.099z"/><path d="m1155.551 1549.365a.505.505 0 0 1 -.672-.093.43.43 0 0 1 .1-.631.511.511 0 0 1 .674.095.426.426 0 0 1 -.102.629z"/><path d="m1147.866 1554.839a.5.5 0 0 1 .672.1.429.429 0 0 1 -.107.63.51.51 0 0 1 -.673-.1.426.426 0 0 1 .108-.63z"/><path d="m1158.169 1547.808a.508.508 0 0 1 .679.1.43.43 0 0 1 -.106.625.511.511 0 0 1 -.68-.1.428.428 0 0 1 .107-.625z"/><path d="m1151.878 1550.645a.428.428 0 0 1 .1-.625.508.508 0 0 1 .679.1.425.425 0 0 1 -.108.628.505.505 0 0 1 -.671-.103z"/><path d="m1153.276 1565.848-.665-.829-.829 1.218z"/><path d="m1151.33 1567.192-.665-.829-.829 1.218z"/><path d="m1149.385 1568.537-.666-.829-.829 1.218z"/><path d="m1147.44 1569.881-.665-.829-.829 1.218z"/><path d="m1145.5 1571.226-.666-.829-.829 1.218z"/><path d="m1143.55 1572.57-.666-.829-.829 1.218z"/><path d="m1141.605 1573.915-.665-.829-.829 1.218z"/><path d="m1139.66 1575.259-.665-.829-.829 1.218z"/></g><path d="m1186.077 1521.326a2.408 2.408 0 0 0 -2.574-.451 1.869 1.869 0 0 0 .672-1.6c0-.026 0-.052 0-.078a2.2 2.2 0 1 0 -4.35.446 1.985 1.985 0 0 0 .67 1.231 2.408 2.408 0 0 0 -2.574.451 2.3 2.3 0 0 0 -.188 2.856 2.04 2.04 0 0 0 1.926 1.074 2.479 2.479 0 0 0 1.832-.792 4.524 4.524 0 0 1 -1 2.536h3.006a4.266 4.266 0 0 1 -.978-2.522 2.46 2.46 0 0 0 1.814.778 2.04 2.04 0 0 0 1.926-1.074 2.3 2.3 0 0 0 -.182-2.855z" fill="#15b0bf"/><path d="m1144.549 1450a2.4 2.4 0 0 0 -2.52 2.8l.731 2.9c-5.021 1.647-8.99 4.886-8.99 8.615a6.921 6.921 0 0 0 .291 1.984c.321 2.348 2 3.765 4.3 5.472 0 0-8-2.923-14.507 2-3.459 2.621-4.159 5.5-3.749 7.911a8.143 8.143 0 0 0 1.595 7.376l-.06-.976a17.429 17.429 0 0 0 2.226 5.481c.222.484.454.962.7 1.429h-22.066v57c0 11.215 7.835 21.238 17.142 29.188-.144.307-.289.614-.422.943a33.931 33.931 0 0 0 -2.221 7.861c-3.01 1.541-6 4.931-6 6.99 0 2.728 2.91 2.08 6.5 2.08 2.843 0 5.254-.576 6.136-2.17a22.179 22.179 0 0 0 7.4-4.7q.792-.781 1.525-1.583a139.806 139.806 0 0 0 17.44 9.399v-150z" fill="#fff" opacity=".1"/><g clip-path="url(#a)"><rect fill="#15b0bf" height="128" rx="1" transform="translate(1107 1464.129)" width="2"/><path d="m1113.229 1467.679a3.086 3.086 0 0 0 -3.3-.579 2.4 2.4 0 0 0 .862-2.051c0-.034 0-.067 0-.1a2.819 2.819 0 1 0 -5.581.572 2.544 2.544 0 0 0 .86 1.579 3.086 3.086 0 0 0 -3.3.579 2.944 2.944 0 0 0 -.241 3.662 2.616 2.616 0 0 0 2.47 1.378 3.176 3.176 0 0 0 2.349-1.016 5.8 5.8 0 0 1 -1.277 3.253h3.856a5.483 5.483 0 0 1 -1.255-3.235 3.151 3.151 0 0 0 2.327 1 2.616 2.616 0 0 0 2.47-1.378 2.944 2.944 0 0 0 -.24-3.664z" fill="#27123e"/><path d="m0 0h6v130h-6z" fill="#fff" opacity=".1" transform="translate(1102 1462.129)"/></g><path d="m1198.565 1526.588c.915 1.685 2.086 4.268 1 6.134-1.332 2.289-5.444 2.589-7.284.792 1.471-1.7.545-4.83-1.53-6.172a18.369 18.369 0 0 0 3.268-2.973c.637-.632 1.209-1.3 2.15-.91 1.075.441 1.851 2.124 2.396 3.129z" fill="#27123e"/><path d="m1197.526 1532.88a3.535 3.535 0 0 1 -1.641 1.618 3.188 3.188 0 0 1 -1.074.208 6.893 6.893 0 0 1 -1.829-.26 4.7 4.7 0 0 1 -1.188-.437 3.614 3.614 0 0 1 -1.584-2.066 7.848 7.848 0 0 1 .356-4.979c.684-1.909 1.888-5.036 4.589-3.644 3.469 1.78 3.968 6.732 2.371 9.56z" fill="#27123e"/><text fill="#27123e" font-family="MyriadPro-Regular, Myriad Pro" font-size="13" transform="translate(1150 1463.522)"><tspan x="-4.478" y="0">Q</tspan></text><text fill="#15b0bf" font-family="MyriadPro-Regular, Myriad Pro" font-size="14" transform="translate(1182 1514.109)"><tspan x="-4.823" y="0">Q</tspan></text><path d="m1101.435 1526.588c-.915 1.685-2.086 4.268-1 6.134 1.332 2.289 5.444 2.589 7.284.792-1.471-1.7-.545-4.83 1.53-6.172a18.369 18.369 0 0 1 -3.268-2.973c-.637-.632-1.209-1.3-2.15-.91-1.075.441-1.851 2.124-2.396 3.129z" fill="#3c2a54"/><path d="m1106.092 1531.2a2.285 2.285 0 0 0 .181 1.37 1.861 1.861 0 0 0 .4.49 3.694 3.694 0 0 0 .894.541 2.435 2.435 0 0 0 .67.224 1.89 1.89 0 0 0 1.392-.411 4.76 4.76 0 0 0 1.514-2.51c.339-1.161.858-3.093-.8-3.41-2.123-.406-4.005 1.779-4.251 3.706z" fill="#3c2a54"/></g></svg>