<svg height="200" viewBox="0 0 1280 200" width="1280" xmlns="http://www.w3.org/2000/svg" xmlns:xlink="http://www.w3.org/1999/xlink"><clipPath id="a"><path d="m0 0h1280v200h-1280z"/></clipPath><linearGradient id="b" gradientUnits="objectBoundingBox" x1=".5" x2=".5" y2="1"><stop offset="0" stop-color="#15566e"/><stop offset="1" stop-color="#267a99"/></linearGradient><radialGradient id="c" cx="40" cy="9.239" gradientTransform="matrix(.237 0 0 .066 30.5 8.631)" gradientUnits="userSpaceOnUse" r="133.933"><stop offset="0" stop-color="#1494a9"/><stop offset="1" stop-color="#1494a9" stop-opacity="0"/></radialGradient><radialGradient id="d" cx="24.292" cy="8.5" gradientTransform="matrix(.35 0 0 .143 15.792 7.287)" r="55.21" xlink:href="#c"/><g clip-path="url(#a)"><path d="m0 0h1280v800h-1280z" fill="#27123e"/><path d="m0 0h1280v154h-1280z" fill="#229faf" transform="translate(-.405)"/><path d="m0 0h1280v41h-1280z" fill="#117ea4" transform="translate(-.405 2)"/><path d="m0 0h1280v32h-1280z" fill="#c1ffff" transform="translate(-.405)"/><path d="m0 0h1280v21h-1280z" fill="#62aad6" transform="translate(-.405)"/><path d="m0 0h1280v14h-1280z" fill="#adedf4" transform="translate(-.405)"/><path d="m0 0h1280v46h-1280z" fill="#c1ffff" transform="translate(-.405 154)"/><path d="m0 0h1280v13h-1280z" fill="#73bbd6" transform="translate(-.405 164)"/><path d="m0 0h21.718v136.334h-21.718z" fill="#aee8fe" transform="translate(409.143 21.666)"/><path d="m0 0h1.252v136.334h-1.252z" fill="#53aab9" opacity=".58" transform="translate(414.032 21.666)"/><path d="m0 0h1.252v136.334h-1.252z" fill="#53aab9" opacity=".58" transform="matrix(-1 0 0 -1 425.972 158)"/><path d="m0 0h1.252v136.334h-1.252z" fill="#53aab9" opacity=".58" transform="translate(419.376 21.666)"/><path d="m0 0h30v13.666h-30z" fill="#4fabcc" transform="translate(405 8)"/><path d="m0 0h30v5.666h-30z" fill="#a3e2fe" transform="translate(405 16)"/><path d="m409.143 21.666v2.915l21.718 4.533v-7.448z" fill="#256375" opacity=".3"/><path d="m0 0h21.718v136.334h-21.718z" fill="#aee8fe" transform="translate(289.143 21.666)"/><path d="m0 0h1.252v136.334h-1.252z" fill="#53aab9" opacity=".58" transform="translate(294.032 21.666)"/><path d="m0 0h1.252v136.334h-1.252z" fill="#53aab9" opacity=".58" transform="matrix(-1 0 0 -1 305.972 158)"/><path d="m0 0h1.252v136.334h-1.252z" fill="#53aab9" opacity=".58" transform="translate(299.376 21.666)"/><path d="m0 0h30v13.666h-30z" fill="#4fabcc" transform="translate(285 8)"/><path d="m0 0h30v5.666h-30z" fill="#a3e2fe" transform="translate(285 16)"/><path d="m289.143 21.666v2.915l21.718 4.533v-7.448z" fill="#256375" opacity=".3"/><path d="m0 0h21.718v136.334h-21.718z" fill="#aee8fe" transform="translate(169.143 21.666)"/><path d="m0 0h1.252v136.334h-1.252z" fill="#53aab9" opacity=".58" transform="translate(174.032 21.666)"/><path d="m0 0h1.252v136.334h-1.252z" fill="#53aab9" opacity=".58" transform="matrix(-1 0 0 -1 185.972 158)"/><path d="m0 0h1.252v136.334h-1.252z" fill="#53aab9" opacity=".58" transform="translate(179.376 21.666)"/><path d="m0 0h30v13.666h-30z" fill="#4fabcc" transform="translate(165 8)"/><path d="m0 0h30v5.666h-30z" fill="#a3e2fe" transform="translate(165 16)"/><path d="m169.143 21.666v2.915l21.718 4.533v-7.448z" fill="#256375" opacity=".3"/><path d="m0 0h21.718v136.334h-21.718z" fill="#aee8fe" transform="translate(49.143 21.666)"/><path d="m0 0h1.252v136.334h-1.252z" fill="#53aab9" opacity=".58" transform="translate(54.032 21.666)"/><path d="m0 0h1.252v136.334h-1.252z" fill="#53aab9" opacity=".58" transform="matrix(-1 0 0 -1 65.972 158)"/><path d="m0 0h1.252v136.334h-1.252z" fill="#53aab9" opacity=".58" transform="translate(59.376 21.666)"/><path d="m0 0h30v13.666h-30z" fill="#4fabcc" transform="translate(45 8)"/><path d="m0 0h30v5.666h-30z" fill="#a3e2fe" transform="translate(45 16)"/><path d="m49.143 21.666v2.915l21.718 4.533v-7.448z" fill="#256375" opacity=".3"/><path d="m0 0h21.718v136.334h-21.718z" fill="#aee8fe" transform="translate(529.143 21.666)"/><path d="m0 0h1.252v136.334h-1.252z" fill="#53aab9" opacity=".58" transform="translate(534.032 21.666)"/><path d="m0 0h1.252v136.334h-1.252z" fill="#53aab9" opacity=".58" transform="matrix(-1 0 0 -1 545.972 158)"/><path d="m0 0h1.252v136.334h-1.252z" fill="#53aab9" opacity=".58" transform="translate(539.376 21.666)"/><path d="m0 0h30v13.666h-30z" fill="#4fabcc" transform="translate(525 8)"/><path d="m0 0h30v5.666h-30z" fill="#a3e2fe" transform="translate(525 16)"/><path d="m529.143 21.666v2.915l21.718 4.533v-7.448z" fill="#256375" opacity=".3"/><path d="m0 0h21.718v136.334h-21.718z" fill="#aee8fe" transform="translate(1089.143 21.666)"/><path d="m0 0h1.252v136.334h-1.252z" fill="#53aab9" opacity=".58" transform="translate(1094.032 21.666)"/><path d="m0 0h1.252v136.334h-1.252z" fill="#53aab9" opacity=".58" transform="matrix(-1 0 0 -1 1105.972 158)"/><path d="m0 0h1.252v136.334h-1.252z" fill="#53aab9" opacity=".58" transform="translate(1099.376 21.666)"/><path d="m0 0h30v13.666h-30z" fill="#4fabcc" transform="translate(1085 8)"/><path d="m0 0h30v5.666h-30z" fill="#a3e2fe" transform="translate(1085 16)"/><path d="m1089.143 21.666v2.915l21.718 4.533v-7.448z" fill="#256375" opacity=".3"/><path d="m0 0h21.718v136.334h-21.718z" fill="#aee8fe" transform="translate(969.143 21.666)"/><path d="m0 0h1.252v136.334h-1.252z" fill="#53aab9" opacity=".58" transform="translate(974.032 21.666)"/><path d="m0 0h1.252v136.334h-1.252z" fill="#53aab9" opacity=".58" transform="matrix(-1 0 0 -1 985.972 158)"/><path d="m0 0h1.252v136.334h-1.252z" fill="#53aab9" opacity=".58" transform="translate(979.376 21.666)"/><path d="m0 0h30v13.666h-30z" fill="#4fabcc" transform="translate(965 8)"/><path d="m0 0h30v5.666h-30z" fill="#a3e2fe" transform="translate(965 16)"/><path d="m969.143 21.666v2.915l21.718 4.533v-7.448z" fill="#256375" opacity=".3"/><path d="m0 0h21.718v136.334h-21.718z" fill="#aee8fe" transform="translate(849.143 21.666)"/><path d="m0 0h1.252v136.334h-1.252z" fill="#53aab9" opacity=".58" transform="translate(854.032 21.666)"/><path d="m0 0h1.252v136.334h-1.252z" fill="#53aab9" opacity=".58" transform="matrix(-1 0 0 -1 865.972 158)"/><path d="m0 0h1.252v136.334h-1.252z" fill="#53aab9" opacity=".58" transform="translate(859.376 21.666)"/><path d="m0 0h30v13.666h-30z" fill="#4fabcc" transform="translate(845 8)"/><path d="m0 0h30v5.666h-30z" fill="#a3e2fe" transform="translate(845 16)"/><path d="m849.143 21.666v2.915l21.718 4.533v-7.448z" fill="#256375" opacity=".3"/><path d="m0 0h21.718v136.334h-21.718z" fill="#aee8fe" transform="translate(729.143 21.666)"/><path d="m0 0h1.252v136.334h-1.252z" fill="#53aab9" opacity=".58" transform="translate(734.032 21.666)"/><path d="m0 0h1.252v136.334h-1.252z" fill="#53aab9" opacity=".58" transform="matrix(-1 0 0 -1 745.972 158)"/><path d="m0 0h1.252v136.334h-1.252z" fill="#53aab9" opacity=".58" transform="translate(739.376 21.666)"/><path d="m0 0h30v13.666h-30z" fill="#4fabcc" transform="translate(725 8)"/><path d="m0 0h30v5.666h-30z" fill="#a3e2fe" transform="translate(725 16)"/><path d="m729.143 21.666v2.915l21.718 4.533v-7.448z" fill="#256375" opacity=".3"/><path d="m0 0h21.718v136.334h-21.718z" fill="#aee8fe" transform="translate(1209.143 21.666)"/><path d="m0 0h1.252v136.334h-1.252z" fill="#53aab9" opacity=".58" transform="translate(1214.032 21.666)"/><path d="m0 0h1.252v136.334h-1.252z" fill="#53aab9" opacity=".58" transform="matrix(-1 0 0 -1 1225.972 158)"/><path d="m0 0h1.252v136.334h-1.252z" fill="#53aab9" opacity=".58" transform="translate(1219.376 21.666)"/><path d="m0 0h30v13.666h-30z" fill="#4fabcc" transform="translate(1205 8)"/><path d="m0 0h30v5.666h-30z" fill="#a3e2fe" transform="translate(1205 16)"/><path d="m1209.143 21.666v2.915l21.718 4.533v-7.448z" fill="#256375" opacity=".3"/><g fill="#1494a9" stroke="#267a99" stroke-miterlimit="10" stroke-width="2"><g opacity=".56" transform="translate(95 52)"><path d="m0 0h50v90h-50z" stroke="none"/><path d="m1 1h48v88h-48z" fill="none"/></g><g opacity=".56" transform="translate(215 52)"><path d="m0 0h50v90h-50z" stroke="none"/><path d="m1 1h48v88h-48z" fill="none"/></g><g opacity=".56" transform="translate(335 52)"><path d="m0 0h50v90h-50z" stroke="none"/><path d="m1 1h48v88h-48z" fill="none"/></g><g opacity=".56" transform="translate(455 52)"><path d="m0 0h50v90h-50z" stroke="none"/><path d="m1 1h48v88h-48z" fill="none"/></g></g><path d="m800 117.381 30 30v-199.381h-60v199.381z" fill="url(#b)"/><path d="m823.5 131.625-23.5-24.525-23.5 24.521v-184.121h47zm-23.5-25.967 22.5 23.479v-180.637h-45v180.637z" fill="#15b0bf"/><path d="m815.555 56.021c-4.568-4.981-9.876-9.841-12.1-12.392-1.666-1.913-2.847-3.368-3.333-3.975v-.311s-.043.056-.123.156c-.08-.1-.123-.156-.123-.156v.311c-.486.607-1.667 2.062-3.333 3.975-2.223 2.551-7.531 7.411-12.1 12.392s-4.938 9.962-4.074 14.092 5.184 8.018 11.974 7.168a7.566 7.566 0 0 0 4.826-2.564 15.78 15.78 0 0 1 -3.922 8.89h13.168c-2.4-2.685-3.255-6.491-3.562-8.857a7.57 7.57 0 0 0 4.8 2.531c6.79.85 11.11-3.038 11.974-7.168s.495-9.113-4.072-14.092z" fill="#27123e" opacity=".2"/><path d="m920 117.381 30 30v-199.381h-60v199.381z" fill="url(#b)"/><path d="m943.5 131.625-23.5-24.525-23.5 24.521v-184.121h47zm-23.5-25.967 22.5 23.479v-180.637h-45v180.637z" fill="#15b0bf"/><path d="m930.094 43.833c-7.865-.19-9.677 5.817-10.094 8.706-.416-2.889-2.228-8.9-10.093-8.706-10.342.249-11.713 11.837-8.1 17.694a54.054 54.054 0 0 0 9.1 11.464c3.4 3.521 7.469 7.483 8.972 9.91 0 0 .08.284.124.207.045.077.125-.207.125-.207 1.5-2.427 5.568-6.389 8.972-9.91a54.083 54.083 0 0 0 9.1-11.464c3.607-5.857 2.236-17.445-8.106-17.694z" fill="#27123e" opacity=".2"/><path d="m1040 117.381 30 30v-199.381h-60v199.381z" fill="url(#b)"/><path d="m1063.5 131.625-23.5-24.525-23.5 24.521v-184.121h47zm-23.5-25.967 22.5 23.479v-180.637h-45v180.637z" fill="#15b0bf"/><path d="m1039.744 37.3-19.744 23.982 19.744 24.368 20.256-24.175z" fill="#27123e" opacity=".2"/><path d="m1160 117.381 30 30v-199.381h-60v199.381z" fill="url(#b)"/><path d="m1183.5 131.625-23.5-24.525-23.5 24.521v-184.121h47zm-23.5-25.967 22.5 23.479v-180.637h-45v180.637z" fill="#15b0bf"/><path d="m1177.431 58.6c-4.338-4.74-11.005-1.928-11.005-1.928 1.863-1.992 3.108-3.574 2.875-6.839 0-.111.009-.222.009-.333a9.4 9.4 0 1 0 -18.6 1.908c.214 2.258 1.33 3.622 2.866 5.264 0 0-6.667-2.812-11 1.928a9.816 9.816 0 0 0 -.8 12.209c1.365 1.847 3.412 4.949 8.233 4.591 4.267-.317 4.9-1.044 7.832-3.386a19.346 19.346 0 0 1 -4.258 10.844h12.852c-2.362-2.485-4.454-8.183-4.181-10.784 2.869 2.294 3.527 3.012 7.755 3.326 4.822.358 6.869-2.744 8.234-4.591a9.817 9.817 0 0 0 -.812-12.209z" fill="#27123e" opacity=".2"/></g><g transform="translate(1 -.114)"><path d="m583.727 141.525h114.545v11.846h-114.545z" fill="#1695a4"/><path d="m567.364 153.371h147.273v11.846h-147.273z" fill="#1695a4"/><path d="m551 164h180v13.063h-180z" fill="#1695a4"/><path d="m689 177h-92.4l-.064-11.575.064-.208 7.4-24.217h74l11 24.284z" fill="#15b0bf"/><path d="m668.8 177h-55.2v-11.783l7.4-24.217h40l7.4 24.217z" fill="#44bfcb"/><path d="m551 164h180v13.063h-180z" fill="#5e8bca" opacity=".34"/><ellipse cx="40" cy="9.5" fill="url(#c)" opacity=".49" rx="40" ry="9.5" transform="translate(600 137)"/><circle cx="60" cy="60" fill="#15b0bf" r="60" transform="matrix(.23420899 -.97218627 .97218627 .23420899 567.616 144.279)"/><circle cx="53.66" cy="53.66" fill="#1695a4" r="53.66" transform="matrix(.70710678 -.70710678 .70710678 .70710678 564.114 100)"/><circle cx="50.607" cy="50.607" fill="#2c5871" r="50.607" transform="matrix(.233 -.972 .972 .233 578.975 137.391)"/><path d="m0 0h4.031v5.829h-4.031z" fill="#15b0bf" transform="matrix(.57336196 -.81930218 .81930218 .57336196 671.319 50.111)"/><path d="m0 0h6.705v8.611h-6.705z" fill="#15b0bf" transform="matrix(.573 -.819 .819 .573 672.492 46.011)"/><path d="m0 0h1.228v5.829h-1.228z" opacity=".3" transform="matrix(.57369081 -.81907195 .81907195 .57369081 672.927 47.814)"/><path d="m636.88 35.921h6.162v6.416h-6.162z" fill="#15b0bf"/><path d="m630.99 30.907h17.942v5.014h-17.942z" fill="#15b0bf"/><path d="m636.88 35.921h6.162v1.094h-6.162z" opacity=".3"/><ellipse cx="24.292" cy="8.5" fill="url(#d)" opacity=".49" rx="24.292" ry="8.5" transform="translate(551 150)"/><ellipse cx="580.575" cy="123.232" fill="#fff" rx="12.846" ry="2.456"/><path d="m567.729 118.093h25.693v5.139h-25.693z" fill="#fff"/><g fill="#27123e"><path d="m566.083 119.961a2.212 2.212 0 0 1 .044-.909 2.1 2.1 0 0 1 .609-1.077.9.9 0 0 1 .828-.264.854.854 0 0 1 .568.5 1.873 1.873 0 0 1 .112 1.217 2.017 2.017 0 0 1 -.283.669 2.707 2.707 0 0 1 -.8.717 2.754 2.754 0 0 1 .579 1.138 2.14 2.14 0 0 1 0 .844 2.079 2.079 0 0 1 -.587 1.114 1.172 1.172 0 0 1 -1.107.357 1.241 1.241 0 0 1 -.845-.746 1.818 1.818 0 0 1 -.067-1.229 2.154 2.154 0 0 1 .277-.665 2.8 2.8 0 0 1 .986-.829 2.511 2.511 0 0 1 -.314-.837zm.017 4.039a.643.643 0 0 0 .584-.2 1.85 1.85 0 0 0 .516-.991 1.632 1.632 0 0 0 -.006-.656 2.461 2.461 0 0 0 -.513-.936.158.158 0 0 0 -.061-.073 2.015 2.015 0 0 0 -.645.579 2.454 2.454 0 0 0 -.292.7 2.029 2.029 0 0 0 -.036 1c.093.339.253.537.453.577zm1.4-6.038a.545.545 0 0 0 -.53.25 1.853 1.853 0 0 0 -.371.78 1.713 1.713 0 0 0 -.039.677 2.243 2.243 0 0 0 .371.832 1.916 1.916 0 0 0 .562-.526 2.233 2.233 0 0 0 .335-.763 1.849 1.849 0 0 0 -.011-.888.447.447 0 0 0 -.317-.357z"/><path d="m568.146 120.44a2.223 2.223 0 0 1 .012-.911 2.108 2.108 0 0 1 .569-1.1.892.892 0 0 1 .817-.293.85.85 0 0 1 .584.475 1.867 1.867 0 0 1 .155 1.211 1.993 1.993 0 0 1 -.26.679 2.683 2.683 0 0 1 -.772.745 2.777 2.777 0 0 1 .618 1.117 2.153 2.153 0 0 1 .027.843 2.085 2.085 0 0 1 -.546 1.134 1.169 1.169 0 0 1 -1.093.4 1.233 1.233 0 0 1 -.868-.715 1.817 1.817 0 0 1 -.111-1.225 2.164 2.164 0 0 1 .254-.675 2.8 2.8 0 0 1 .955-.864 2.475 2.475 0 0 1 -.341-.821zm.162 4.04a.643.643 0 0 0 .575-.224 1.854 1.854 0 0 0 .48-1.009 1.605 1.605 0 0 0 -.03-.655 2.455 2.455 0 0 0 -.544-.918.151.151 0 0 0 -.063-.07 2.007 2.007 0 0 0 -.623.6 2.449 2.449 0 0 0 -.267.712 2.028 2.028 0 0 0 0 1c.101.334.264.526.472.564zm1.185-6.084a.541.541 0 0 0 -.519.269 1.86 1.86 0 0 0 -.344.792 1.737 1.737 0 0 0 -.015.678 2.255 2.255 0 0 0 .4.818 1.915 1.915 0 0 0 .542-.546 2.212 2.212 0 0 0 .308-.774 1.851 1.851 0 0 0 -.043-.887.446.446 0 0 0 -.329-.346z"/><path d="m570.221 120.844a2.224 2.224 0 0 1 -.02-.91 2.108 2.108 0 0 1 .53-1.118.892.892 0 0 1 .8-.323.851.851 0 0 1 .6.454 1.877 1.877 0 0 1 .2 1.205 2.046 2.046 0 0 1 -.235.688 2.694 2.694 0 0 1 -.745.772 2.767 2.767 0 0 1 .656 1.094 2.13 2.13 0 0 1 .056.842 2.085 2.085 0 0 1 -.505 1.153 1.166 1.166 0 0 1 -1.076.434 1.234 1.234 0 0 1 -.892-.683 1.827 1.827 0 0 1 -.153-1.22 2.184 2.184 0 0 1 .229-.684 2.809 2.809 0 0 1 .923-.9 2.453 2.453 0 0 1 -.368-.804zm.3 4.032a.643.643 0 0 0 .566-.245 1.855 1.855 0 0 0 .443-1.026 1.631 1.631 0 0 0 -.052-.653 2.455 2.455 0 0 0 -.576-.9.148.148 0 0 0 -.065-.068 2.011 2.011 0 0 0 -.6.623 2.449 2.449 0 0 0 -.241.721 2.022 2.022 0 0 0 .035 1c.115.331.283.517.494.548zm.968-6.123a.542.542 0 0 0 -.508.288 1.858 1.858 0 0 0 -.315.8 1.718 1.718 0 0 0 .009.678 2.243 2.243 0 0 0 .427.8 1.914 1.914 0 0 0 .522-.565 2.247 2.247 0 0 0 .28-.784 1.85 1.85 0 0 0 -.074-.885.444.444 0 0 0 -.337-.332z"/><path d="m572.3 121.173a2.2 2.2 0 0 1 -.051-.908 2.1 2.1 0 0 1 .489-1.136.888.888 0 0 1 .791-.351.849.849 0 0 1 .615.432 1.879 1.879 0 0 1 .239 1.2 2.009 2.009 0 0 1 -.211.695 2.668 2.668 0 0 1 -.716.8 2.755 2.755 0 0 1 .693 1.07 2.142 2.142 0 0 1 .087.84 2.1 2.1 0 0 1 -.464 1.169 1.166 1.166 0 0 1 -1.059.473 1.228 1.228 0 0 1 -.914-.652 1.819 1.819 0 0 1 -.2-1.213 2.2 2.2 0 0 1 .2-.692 2.826 2.826 0 0 1 .89-.93 2.485 2.485 0 0 1 -.389-.797zm.445 4.019a.645.645 0 0 0 .557-.264 1.867 1.867 0 0 0 .406-1.041 1.62 1.62 0 0 0 -.075-.651 2.472 2.472 0 0 0 -.606-.877.148.148 0 0 0 -.068-.065 2 2 0 0 0 -.577.644 2.436 2.436 0 0 0 -.216.729 2.032 2.032 0 0 0 .07 1c.129.321.303.502.514.525zm.752-6.153c-.178-.022-.346.08-.5.305a1.873 1.873 0 0 0 -.286.815 1.736 1.736 0 0 0 .033.677 2.242 2.242 0 0 0 .455.788 1.921 1.921 0 0 0 .5-.583 2.238 2.238 0 0 0 .251-.794 1.849 1.849 0 0 0 -.1-.882.445.445 0 0 0 -.35-.326z"/><path d="m574.4 121.429a2.223 2.223 0 0 1 -.084-.906 2.107 2.107 0 0 1 .449-1.153.891.891 0 0 1 .778-.379.848.848 0 0 1 .628.41 1.873 1.873 0 0 1 .281 1.189 2.008 2.008 0 0 1 -.185.7 2.686 2.686 0 0 1 -.687.823 2.769 2.769 0 0 1 .729 1.045 2.128 2.128 0 0 1 .116.836 2.088 2.088 0 0 1 -.421 1.185 1.168 1.168 0 0 1 -1.042.51 1.225 1.225 0 0 1 -.935-.619 1.821 1.821 0 0 1 -.238-1.206 2.177 2.177 0 0 1 .18-.7 2.8 2.8 0 0 1 .855-.961 2.476 2.476 0 0 1 -.424-.774zm.586 4a.641.641 0 0 0 .546-.284 1.86 1.86 0 0 0 .369-1.054 1.6 1.6 0 0 0 -.1-.648 2.46 2.46 0 0 0 -.636-.855.151.151 0 0 0 -.07-.063 2.023 2.023 0 0 0 -.554.665 2.442 2.442 0 0 0 -.189.736 2.044 2.044 0 0 0 .1.992c.14.321.32.496.532.511zm.533-6.176c-.178-.015-.342.093-.486.323a1.885 1.885 0 0 0 -.257.824 1.736 1.736 0 0 0 .057.676 2.233 2.233 0 0 0 .482.771 1.913 1.913 0 0 0 .479-.6 2.226 2.226 0 0 0 .224-.8 1.854 1.854 0 0 0 -.136-.877.442.442 0 0 0 -.365-.317z"/><path d="m576.5 121.61a2.22 2.22 0 0 1 -.115-.9 2.1 2.1 0 0 1 .407-1.167.884.884 0 0 1 .763-.406.846.846 0 0 1 .643.387 1.873 1.873 0 0 1 .322 1.178 2.011 2.011 0 0 1 -.16.708 2.681 2.681 0 0 1 -.658.847 2.762 2.762 0 0 1 .766 1.018 2.156 2.156 0 0 1 .145.832 2.086 2.086 0 0 1 -.379 1.2 1.164 1.164 0 0 1 -1.022.547 1.229 1.229 0 0 1 -.956-.586 1.819 1.819 0 0 1 -.28-1.2 2.164 2.164 0 0 1 .155-.705 2.788 2.788 0 0 1 .82-.99 2.49 2.49 0 0 1 -.451-.763zm.726 3.977a.643.643 0 0 0 .536-.3 1.86 1.86 0 0 0 .331-1.067 1.63 1.63 0 0 0 -.121-.644 2.443 2.443 0 0 0 -.665-.831.148.148 0 0 0 -.072-.061 2 2 0 0 0 -.53.684 2.469 2.469 0 0 0 -.163.742 2.045 2.045 0 0 0 .139.988c.143.313.329.481.541.489zm.315-6.191c-.178-.009-.338.1-.474.34a1.871 1.871 0 0 0 -.227.833 1.712 1.712 0 0 0 .08.673 2.23 2.23 0 0 0 .509.754 1.92 1.92 0 0 0 .457-.617 2.216 2.216 0 0 0 .2-.81 1.859 1.859 0 0 0 -.166-.872.445.445 0 0 0 -.383-.297z"/><path d="m578.6 121.717a2.213 2.213 0 0 1 -.147-.9 2.111 2.111 0 0 1 .365-1.181.888.888 0 0 1 .749-.433.845.845 0 0 1 .655.365 1.871 1.871 0 0 1 .364 1.165 2.017 2.017 0 0 1 -.135.714 2.69 2.69 0 0 1 -.627.869 2.765 2.765 0 0 1 .8.991 2.151 2.151 0 0 1 .174.826 2.086 2.086 0 0 1 -.337 1.212 1.165 1.165 0 0 1 -1 .582 1.226 1.226 0 0 1 -.976-.551 1.825 1.825 0 0 1 -.322-1.186 2.168 2.168 0 0 1 .13-.71 2.785 2.785 0 0 1 .784-1.018 2.486 2.486 0 0 1 -.477-.745zm.865 3.949a.642.642 0 0 0 .525-.322 1.855 1.855 0 0 0 .293-1.078 1.625 1.625 0 0 0 -.143-.639 2.471 2.471 0 0 0 -.694-.808.157.157 0 0 0 -.074-.058 1.992 1.992 0 0 0 -.505.7 2.424 2.424 0 0 0 -.137.748 2.031 2.031 0 0 0 .174.982c.156.309.347.474.559.475zm.1-6.2c-.179 0-.335.116-.462.356a1.874 1.874 0 0 0 -.2.84 1.741 1.741 0 0 0 .1.67 2.244 2.244 0 0 0 .535.735 1.914 1.914 0 0 0 .436-.632 2.242 2.242 0 0 0 .166-.816 1.865 1.865 0 0 0 -.2-.866.444.444 0 0 0 -.38-.285z"/><path d="m580.7 121.75a2.225 2.225 0 0 1 -.179-.893 2.109 2.109 0 0 1 .324-1.193.887.887 0 0 1 .732-.459.852.852 0 0 1 .669.341 1.875 1.875 0 0 1 .4 1.152 2.012 2.012 0 0 1 -.11.718 2.661 2.661 0 0 1 -.6.891 2.764 2.764 0 0 1 .836.962 2.156 2.156 0 0 1 .2.819 2.087 2.087 0 0 1 -.293 1.223 1.164 1.164 0 0 1 -.981.617 1.226 1.226 0 0 1 -.995-.516 1.824 1.824 0 0 1 -.363-1.174 2.191 2.191 0 0 1 .1-.713 2.811 2.811 0 0 1 .748-1.046 2.473 2.473 0 0 1 -.488-.729zm1 3.915a.636.636 0 0 0 .513-.34 1.854 1.854 0 0 0 .255-1.087 1.61 1.61 0 0 0 -.166-.634 2.451 2.451 0 0 0 -.722-.783.153.153 0 0 0 -.076-.055 2.01 2.01 0 0 0 -.48.719 2.464 2.464 0 0 0 -.11.753 2.029 2.029 0 0 0 .209.975c.177.305.371.459.583.452zm-.122-6.2c-.178 0-.33.128-.449.372a1.893 1.893 0 0 0 -.168.847 1.733 1.733 0 0 0 .128.666 2.234 2.234 0 0 0 .56.716 1.934 1.934 0 0 0 .413-.648 2.221 2.221 0 0 0 .137-.821 1.853 1.853 0 0 0 -.227-.858.444.444 0 0 0 -.388-.271z"/><path d="m582.8 121.708a2.228 2.228 0 0 1 -.21-.886 2.113 2.113 0 0 1 .282-1.2.885.885 0 0 1 .716-.484.849.849 0 0 1 .68.318 1.869 1.869 0 0 1 .445 1.137 1.99 1.99 0 0 1 -.085.721 2.683 2.683 0 0 1 -.564.911 2.783 2.783 0 0 1 .87.932 2.153 2.153 0 0 1 .232.811 2.084 2.084 0 0 1 -.251 1.233 1.165 1.165 0 0 1 -.958.652 1.229 1.229 0 0 1 -1.013-.481 1.831 1.831 0 0 1 -.4-1.161 2.173 2.173 0 0 1 .08-.717 2.8 2.8 0 0 1 .71-1.071 2.489 2.489 0 0 1 -.534-.715zm1.143 3.878a.641.641 0 0 0 .5-.358 1.853 1.853 0 0 0 .217-1.1 1.632 1.632 0 0 0 -.188-.628 2.455 2.455 0 0 0 -.75-.756.146.146 0 0 0 -.078-.053 2.019 2.019 0 0 0 -.454.736 2.441 2.441 0 0 0 -.084.756 2.046 2.046 0 0 0 .243.967c.184.303.387.45.599.436zm-.341-6.189c-.179.009-.326.139-.436.388a1.877 1.877 0 0 0 -.138.852 1.748 1.748 0 0 0 .151.661 2.254 2.254 0 0 0 .585.695 1.9 1.9 0 0 0 .39-.662 2.222 2.222 0 0 0 .109-.825 1.853 1.853 0 0 0 -.258-.85.442.442 0 0 0 -.398-.256z"/><path d="m584.907 121.592a2.23 2.23 0 0 1 -.241-.877 2.105 2.105 0 0 1 .239-1.214.886.886 0 0 1 .7-.509.848.848 0 0 1 .691.293 1.872 1.872 0 0 1 .486 1.121 2.01 2.01 0 0 1 -.06.724 2.664 2.664 0 0 1 -.532.93 2.764 2.764 0 0 1 .9.9 2.127 2.127 0 0 1 .261.8 2.08 2.08 0 0 1 -.207 1.241 1.165 1.165 0 0 1 -.935.685 1.227 1.227 0 0 1 -1.03-.445 1.823 1.823 0 0 1 -.446-1.145 2.192 2.192 0 0 1 .055-.719 2.79 2.79 0 0 1 .672-1.1 2.51 2.51 0 0 1 -.553-.685zm1.279 3.835a.641.641 0 0 0 .488-.375 1.858 1.858 0 0 0 .179-1.1 1.627 1.627 0 0 0 -.211-.621 2.463 2.463 0 0 0 -.776-.729.149.149 0 0 0 -.08-.05 2.005 2.005 0 0 0 -.428.751 2.42 2.42 0 0 0 -.057.758 2.03 2.03 0 0 0 .277.959c.19.289.397.429.608.407zm-.559-6.173c-.178.016-.321.151-.422.4a1.875 1.875 0 0 0 -.108.856 1.735 1.735 0 0 0 .175.656 2.23 2.23 0 0 0 .609.674 1.911 1.911 0 0 0 .367-.675 2.244 2.244 0 0 0 .079-.829 1.858 1.858 0 0 0 -.287-.84.445.445 0 0 0 -.413-.242z"/><path d="m587.005 121.4a2.215 2.215 0 0 1 -.272-.868 2.1 2.1 0 0 1 .2-1.221.885.885 0 0 1 .681-.534.846.846 0 0 1 .7.268 1.877 1.877 0 0 1 .525 1.1 2.024 2.024 0 0 1 -.034.726 2.677 2.677 0 0 1 -.5.948 2.779 2.779 0 0 1 .935.868 2.145 2.145 0 0 1 .289.793 2.087 2.087 0 0 1 -.163 1.248 1.171 1.171 0 0 1 -.912.718 1.231 1.231 0 0 1 -1.046-.409 1.826 1.826 0 0 1 -.486-1.129 2.162 2.162 0 0 1 .029-.72 2.793 2.793 0 0 1 .634-1.119 2.476 2.476 0 0 1 -.58-.669zm1.414 3.787a.638.638 0 0 0 .475-.392 1.858 1.858 0 0 0 .14-1.109 1.628 1.628 0 0 0 -.233-.613 2.462 2.462 0 0 0 -.8-.7.149.149 0 0 0 -.082-.047 2.014 2.014 0 0 0 -.4.766 2.451 2.451 0 0 0 -.03.76 2.044 2.044 0 0 0 .311.948c.2.286.409.419.619.389zm-.777-6.149c-.177.022-.315.162-.407.418a1.854 1.854 0 0 0 -.078.859 1.722 1.722 0 0 0 .2.649 2.239 2.239 0 0 0 .634.652 1.9 1.9 0 0 0 .343-.688 2.237 2.237 0 0 0 .05-.831 1.855 1.855 0 0 0 -.317-.829.444.444 0 0 0 -.425-.228z"/><path d="m589.1 121.138a2.23 2.23 0 0 1 -.3-.859 2.107 2.107 0 0 1 .153-1.227.892.892 0 0 1 .663-.558.853.853 0 0 1 .712.244 1.869 1.869 0 0 1 .564 1.083 2.015 2.015 0 0 1 -.008.727 2.677 2.677 0 0 1 -.467.965 2.78 2.78 0 0 1 .966.835 2.143 2.143 0 0 1 .318.782 2.09 2.09 0 0 1 -.12 1.253 1.169 1.169 0 0 1 -.888.749 1.232 1.232 0 0 1 -1.06-.37 1.825 1.825 0 0 1 -.526-1.111 2.19 2.19 0 0 1 0-.722 2.807 2.807 0 0 1 .595-1.14 2.5 2.5 0 0 1 -.602-.651zm1.549 3.734a.639.639 0 0 0 .461-.409 1.857 1.857 0 0 0 .1-1.113 1.627 1.627 0 0 0 -.254-.6 2.473 2.473 0 0 0 -.828-.672.144.144 0 0 0 -.083-.044 1.991 1.991 0 0 0 -.375.78 2.416 2.416 0 0 0 0 .76 2.042 2.042 0 0 0 .344.936c.204.275.421.399.631.362zm-.994-6.118c-.177.028-.31.174-.393.432a1.865 1.865 0 0 0 -.048.862 1.735 1.735 0 0 0 .22.641 2.233 2.233 0 0 0 .658.63 1.905 1.905 0 0 0 .318-.7 2.21 2.21 0 0 0 .021-.832 1.859 1.859 0 0 0 -.346-.818.448.448 0 0 0 -.434-.215z"/><path d="m591.18 120.8a2.212 2.212 0 0 1 -.333-.847 2.094 2.094 0 0 1 .11-1.232.891.891 0 0 1 .643-.581.851.851 0 0 1 .721.218 1.859 1.859 0 0 1 .6 1.062 2 2 0 0 1 .017.727 2.677 2.677 0 0 1 -.432.982 2.773 2.773 0 0 1 1 .8 2.145 2.145 0 0 1 .345.77 2.08 2.08 0 0 1 -.076 1.256 1.169 1.169 0 0 1 -.862.781 1.231 1.231 0 0 1 -1.074-.332 1.821 1.821 0 0 1 -.566-1.092 2.2 2.2 0 0 1 -.022-.721 2.8 2.8 0 0 1 .556-1.161 2.481 2.481 0 0 1 -.627-.63zm1.681 3.677a.645.645 0 0 0 .448-.425 1.848 1.848 0 0 0 .061-1.116 1.613 1.613 0 0 0 -.275-.6 2.453 2.453 0 0 0 -.852-.642.148.148 0 0 0 -.085-.041 2.009 2.009 0 0 0 -.348.793 2.408 2.408 0 0 0 .023.759 2.029 2.029 0 0 0 .378.924c.22.271.442.392.65.347zm-1.21-6.079c-.176.035-.3.184-.378.446a1.869 1.869 0 0 0 -.018.863 1.723 1.723 0 0 0 .244.633 2.229 2.229 0 0 0 .68.606 1.92 1.92 0 0 0 .294-.711 2.2 2.2 0 0 0 -.009-.833 1.837 1.837 0 0 0 -.375-.8.445.445 0 0 0 -.438-.202z"/><path d="m593.253 120.386a2.215 2.215 0 0 1 -.363-.835 2.1 2.1 0 0 1 .066-1.235.9.9 0 0 1 .625-.6.855.855 0 0 1 .729.192 1.862 1.862 0 0 1 .641 1.04 1.989 1.989 0 0 1 .043.726 2.7 2.7 0 0 1 -.4 1 2.769 2.769 0 0 1 1.025.763 2.119 2.119 0 0 1 .373.757 2.081 2.081 0 0 1 -.032 1.259 1.174 1.174 0 0 1 -.835.811 1.234 1.234 0 0 1 -1.087-.294 1.822 1.822 0 0 1 -.6-1.07 2.165 2.165 0 0 1 -.047-.72 2.8 2.8 0 0 1 .515-1.181 2.48 2.48 0 0 1 -.653-.613zm1.813 3.614a.646.646 0 0 0 .433-.441 1.852 1.852 0 0 0 .022-1.118 1.587 1.587 0 0 0 -.3-.584 2.455 2.455 0 0 0 -.875-.612.155.155 0 0 0 -.087-.038 2.013 2.013 0 0 0 -.32.805 2.441 2.441 0 0 0 .05.759 2.026 2.026 0 0 0 .41.909c.233.264.46.373.667.32zm-1.426-6.032c-.174.04-.3.195-.363.459a1.873 1.873 0 0 0 .013.863 1.743 1.743 0 0 0 .266.624 2.226 2.226 0 0 0 .7.581 1.9 1.9 0 0 0 .27-.721 2.212 2.212 0 0 0 -.038-.832 1.844 1.844 0 0 0 -.4-.791.445.445 0 0 0 -.448-.182z"/><ellipse cx="580.575" cy="118.094" rx="12.846" ry="2.456"/></g><path d="m574.867 101.686s-2.73.479-8.352-5.563a114.33 114.33 0 0 1 -10.4-13.357s11.085 5.083 14.485 9.642a24.915 24.915 0 0 1 4.267 9.278z" fill="#fff"/><path d="m574.11 101.764s-.6-3.491-9.107-4.217a91.308 91.308 0 0 0 -18 .668s9.7 7.707 15.785 7.308a27.01 27.01 0 0 0 11.322-3.759z" fill="#fff"/><path d="m568.465 108.953c0-2.573 2-7.993 4.835-9.084 6.245-2.4 11.6-1.456 14.149 1.091 2 2 5.551-.96 8.551 3.04 1.447 1.93 2 6-2 10-2.878 2.878-6.95 6.539-10.55 6.4s-7.606.577-10.394-1.271-4.591-7.178-4.591-10.176z" fill="#fff"/><path d="m550.481 98.962a26.6 26.6 0 0 0 7.993 4c4 1 11.157 1.1 12.073-.451s-1.1-3.3-3.081-3.545a84.425 84.425 0 0 0 -16.985-.004z" fill="#eb3b56"/><path d="m558.474 84.974 13.836 14.636s-1.3-5.1-3.845-7.642a44.77 44.77 0 0 0 -9.991-6.994z" fill="#eb3b56"/><path d="m593.254 123.96-9.4 1.737a95.829 95.829 0 0 1 -10.221 1.07 1.241 1.241 0 0 0 -.161.019 1.2 1.2 0 0 0 -.82.571c-.075.13-7.581 13.093-9.6 16.764a1.693 1.693 0 0 0 .157 1.915c2.7 3.521 26.664 5.078 31.614 4.163.45-.084 1.5-.278 1.8-1.157.748-2.245-1.921-23.317-2.069-24.226a1.085 1.085 0 0 0 -1.3-.856z" fill="#453468"/><path d="m578.653 137.09c.153.019.33.033.518.046a92.009 92.009 0 0 0 2.4-9.992c-3.829.506-7.924.707-7.924.707s-1.83 3.16-3.931 6.81a52.268 52.268 0 0 0 8.937 2.429z" fill="#524165"/><path d="m582.15 127.138a93.209 93.209 0 0 1 -2.4 10.025c3.964.119 12.794-.728 15.007-.948-.532-5.1-1.144-10.048-1.33-11.19l-9.4 1.737c-.6.112-1.245.213-1.9.305.009.025.028.045.023.071z" fill="#453468"/><path d="m575.581 148.33c.018-.059 1.861-5.988 3.4-10.614l.015-.046c-.158-.012-.308-.025-.442-.042a52.285 52.285 0 0 1 -9.089-2.471c-.01 0-.012-.016-.022-.02-2.1 3.644-4.392 7.655-5.383 9.457-.88 1.6 4.773 2.924 11.521 3.77.005-.012-.004-.022 0-.034z" fill="#fff"/><path d="m579.578 137.7c-.017.052-.034.106-.051.159-1.5 4.5-3.278 10.213-3.39 10.572 8.752 1.053 19.073 1.306 19.4.32.3-.907-.154-6.464-.724-12-2.202.224-11.223 1.097-15.235.949z" fill="#453468"/><path d="m572.038 139.125-3.129 2.491 1.836 3.352 3.2-2.5z" fill="#ef6278"/><path d="m578.244 131.58c-.483-.689-1.063-1.374-1.3-1.724-.174-.264-.295-.462-.345-.545l.007-.039-.019.018-.013-.021-.007.038c-.076.068-.26.229-.517.44-.343.281-1.135.8-1.834 1.344a1.931 1.931 0 0 0 -.833 1.681 1.245 1.245 0 0 0 1.392 1.075 1.057 1.057 0 0 0 .68-.241 2.086 2.086 0 0 1 -.7 1.039l1.7.207a1.98 1.98 0 0 1 -.268-1.153.939.939 0 0 0 .566.389 1.4 1.4 0 0 0 1.7-.7 1.792 1.792 0 0 0 -.209-1.808z" fill="#fff"/><ellipse cx="576.956" cy="142.424" fill="#fdfdfd" rx="17.485" ry="14.488"/><path d="m595.44 132.367a33.6 33.6 0 0 1 3.045-2.385c.733-.39 1.777-.564 1.866 1.3s.91 3.336-.667 4.94-2.311 1.995-2.822.739-1.422-4.594-1.422-4.594z" fill="#fdfdfd"/><path d="m590.445 132.932s-3.145-5.825-6.345-3.932-4.514 3.306-3.179 6.812 4.352 7.486 10.159 6.373a30.914 30.914 0 0 0 9.359-3.259s-2.713-4.486-2.836-6.117a2.957 2.957 0 0 0 -.97-2.222z" fill="#27123e"/><circle cx="559.971" cy="144.422" fill="#fdfdfd" r="3.497"/><path d="m579.853 145.777a3.65 3.65 0 0 1 -.533 2.833c-.944 1.807-2.627 2.957-2.586 3.655s-.287 1.068 1.848 1.642 8.952 3.324 10.39 3.939 2.5.9 3.531.492 1.355-.78 2.3-2.587 1.97-2.218.2-2.464-2.34 1.889-4.1 1.643-8.254-3.364-8.994-4.021.862-3.2.862-3.2z" fill="#fdfdfd"/><path d="m575.955 146.8a3.652 3.652 0 0 1 -2.744.884c-2.039.033-3.853-.9-4.447-.527s-1.075.258-.56 2.408 1.354 9.453 1.5 11.009.4 2.632 1.253 3.338 1.333.818 3.371.784 2.89.673 2.263-1-2.777-1.154-3.4-2.823-.985-8.859-.761-9.822 3.226-.772 3.226-.772z" fill="#fdfdfd"/><path d="m568.848 126.937-11.375 23.98h8.992l12.758 3 9.223-24.979z" fill="#27123e"/><path d="m588.248 125.759h-9.986a104.53 104.53 0 0 1 -10.725-.81 1.369 1.369 0 0 0 -.169-.01 1.25 1.25 0 0 0 -.942.413c-.1.115-10.025 11.527-12.726 14.779a1.632 1.632 0 0 0 -.16 1.915c2.194 3.965 26.655 9.87 31.916 9.87.478 0 1.6 0 2.048-.813 1.15-2.078 1.942-23.339 1.942-24.263a1.144 1.144 0 0 0 -1.198-1.081z" fill="#524165"/><path d="m570.974 136.042c.155.046.335.093.526.139a87.919 87.919 0 0 0 4.162-9.412c-4.035-.2-8.294-.749-8.294-.749s-2.42 2.782-5.2 6a57.142 57.142 0 0 0 8.806 4.022z" fill="#524165"/><path d="m576.257 126.868a89.371 89.371 0 0 1 -4.163 9.446c4.07.84 13.323 1.616 15.643 1.8.309-5.123.511-10.115.511-11.276h-9.986c-.642 0-1.32-.017-2.011-.045-.001.027.015.05.006.075z" fill="#fff"/><path d="m565.913 146.564c.029-.055 2.928-5.565 5.3-9.845l.023-.042c-.161-.041-.314-.081-.448-.122a57.04 57.04 0 0 1 -8.962-4.094c-.01-.005-.01-.017-.019-.024-2.777 3.211-5.82 6.747-7.145 8.343-1.178 1.417 4.432 3.753 11.252 5.818.001-.012-.007-.023-.001-.034z" fill="#fff"/><path d="m571.826 136.813c-.027.048-.053.1-.08.147-2.3 4.161-5.1 9.472-5.277 9.8 8.853 2.635 19.459 4.766 19.963 3.854.465-.839.929-6.4 1.272-11.963-2.31-.177-11.764-.962-15.878-1.838z" fill="#524165"/><path d="m581.461 142.89a1.777 1.777 0 0 0 -1.708-.521 1.161 1.161 0 0 0 .626-.922c0-.016.007-.032.01-.048a1.4 1.4 0 0 0 -1.268-1.563 1.5 1.5 0 0 0 -1.731 1.146 1.2 1.2 0 0 0 -.015.279 1.162 1.162 0 0 0 .328.822 1.81 1.81 0 0 0 -1.8.034 1.336 1.336 0 0 0 -.428 1.742 1.383 1.383 0 0 0 1.2.844 1.849 1.849 0 0 0 1.333-.314 2.808 2.808 0 0 1 -.945 1.468l.038.005.987.137.986.137.039.006a2.45 2.45 0 0 1 -.4-1.647 1.721 1.721 0 0 0 1.155.651 1.48 1.48 0 0 0 1.426-.479 1.329 1.329 0 0 0 .167-1.777z" fill="#fff"/><path d="m583.495 130.094a1.337 1.337 0 0 0 -1.577 1.022 1.281 1.281 0 0 0 -1.351-1.259 1.479 1.479 0 0 0 -1.405 2.223 7.1 7.1 0 0 0 1.171 1.609 11.713 11.713 0 0 1 1.172 1.4s.008.038.015.029c.006.01.021-.026.021-.026a12.371 12.371 0 0 1 1.43-1.193 7.493 7.493 0 0 0 1.469-1.395 1.439 1.439 0 0 0 -.945-2.41z" fill="#ef6278"/><path d="m563.807 136.842-3.647 1.886 1.33 3.639 3.721-1.885z" fill="#ef6278"/><path d="m571.479 130.535c-.382-.767-.866-1.549-1.046-1.937-.135-.291-.226-.509-.264-.6l.014-.037-.023.013-.01-.023-.013.037c-.09.053-.307.178-.608.339-.4.215-1.3.581-2.118.991a1.889 1.889 0 0 0 -1.143 1.505c-.065.522.332 1.15 1.256 1.315a1.138 1.138 0 0 0 .742-.115 2.079 2.079 0 0 1 -.9.9l1.722.515a1.9 1.9 0 0 1 -.083-1.185.991.991 0 0 0 .518.486 1.483 1.483 0 0 0 1.876-.379 1.726 1.726 0 0 0 .08-1.825z" fill="#fff"/></g></svg>