<svg xmlns="http://www.w3.org/2000/svg" width="231" height="73.195" viewBox="0 0 231 73.195"><defs><style>.a{fill:#fff;}.b{fill:#e34a5f;}.c{fill:#5fd2c8;}.d{fill:#27123e;}</style></defs><g transform="translate(-475 -220)"><g transform="translate(0.945)"><path class="a" d="M687.206,259.2a16.292,16.292,0,0,0-9.573-2.626,17.924,17.924,0,0,0-9.62,2.457,13.867,13.867,0,0,0-1.6,1.167,11.572,11.572,0,0,0-8.925-3.624,12.5,12.5,0,0,0-3.87.6,4.991,4.991,0,0,0-1.546-.245h-6.545a5,5,0,0,0-4.339,2.522,14.958,14.958,0,0,0-9.407-2.873,18.5,18.5,0,0,0-10.06,2.685,13.257,13.257,0,0,0-3.034-4.692c-3.015-3.032-7.066-4.569-12.039-4.569a20.851,20.851,0,0,0-12.739,3.968,16.9,16.9,0,0,0-6.8,11.011l-.794,4.562a13.16,13.16,0,0,0,3.659,12.175c3.033,3.021,7.1,4.553,12.094,4.553a20.717,20.717,0,0,0,12.67-3.954,18.752,18.752,0,0,0,1.707-1.456,12.555,12.555,0,0,0,.859,1.063c2.621,2.884,6.344,4.347,11.066,4.347a19.39,19.39,0,0,0,8.105-1.642L636,287.333a5,5,0,0,0,4.926,5.862h6.934a5,5,0,0,0,4.927-4.144l.486-2.806c.265.016.532.024.8.024a14.471,14.471,0,0,0,9.906-3.582c.166.152.331.3.514.456a15.132,15.132,0,0,0,9.912,3.126,19.862,19.862,0,0,0,9.746-2.236A10.893,10.893,0,0,0,690,276.167a9.485,9.485,0,0,0-.4-4.779,5,5,0,0,0,1.231-1.827l.041-.106a5,5,0,0,0,.241-.825A9.013,9.013,0,0,0,687.206,259.2Z"/><path class="b" d="M616.615,270.432a12.161,12.161,0,0,1-4.863,7.873,15.754,15.754,0,0,1-9.684,2.964q-5.457,0-8.566-3.1a8.221,8.221,0,0,1-2.267-7.741l.8-4.6a12,12,0,0,1,4.852-7.856A15.9,15.9,0,0,1,606.644,255q5.415,0,8.494,3.1a8.349,8.349,0,0,1,2.277,7.742ZM610.5,265.8a5.935,5.935,0,0,0-.7-4.542,4.49,4.49,0,0,0-3.96-1.7,6.377,6.377,0,0,0-4.565,1.763,7.841,7.841,0,0,0-2.328,4.48l-.8,4.63a5.916,5.916,0,0,0,.688,4.576,4.587,4.587,0,0,0,4.032,1.7,6.262,6.262,0,0,0,4.483-1.771,8.008,8.008,0,0,0,2.349-4.506Z"/><path class="b" d="M619.364,271.238a11.086,11.086,0,0,1,4.022-7.05,13.009,13.009,0,0,1,8.391-2.612q4.883,0,7.335,2.718a7.862,7.862,0,0,1,1.734,6.944l-.062.368a11.246,11.246,0,0,1-4.052,7.059,12.967,12.967,0,0,1-8.361,2.6q-4.9,0-7.365-2.709a7.752,7.752,0,0,1-1.7-6.954Zm6.873.368a6.3,6.3,0,0,0,.185,3.779q.636,1.324,2.749,1.324a3.845,3.845,0,0,0,3.109-1.385,7.944,7.944,0,0,0,1.59-3.718l.061-.368a6.4,6.4,0,0,0-.225-3.744,2.7,2.7,0,0,0-2.729-1.359,3.854,3.854,0,0,0-3.139,1.421,7.591,7.591,0,0,0-1.539,3.682Z"/><path class="b" d="M664.358,271.817a12.182,12.182,0,0,1-3.467,6.944,9.548,9.548,0,0,1-6.812,2.508,6.236,6.236,0,0,1-2.728-.553,4.915,4.915,0,0,1-1.909-1.622l-1.58,9.1h-6.935l4.6-26.268h6.545L651.925,264a8.307,8.307,0,0,1,2.513-1.789,7.255,7.255,0,0,1,3.046-.631,6.556,6.556,0,0,1,5.828,2.744q1.866,2.745,1.108,7.129Zm-6.853-.368a7.487,7.487,0,0,0-.153-3.893,2.282,2.282,0,0,0-2.371-1.421,4.974,4.974,0,0,0-2.01.386,4.212,4.212,0,0,0-1.518,1.122l-1.375,7.857a2.315,2.315,0,0,0,1.159.911,5.41,5.41,0,0,0,1.939.3,3.386,3.386,0,0,0,2.8-1.306,8.149,8.149,0,0,0,1.466-3.586Z"/><path class="b" d="M678.371,275.569a1.285,1.285,0,0,0-.728-1.262,9.881,9.881,0,0,0-3.252-.982,12.575,12.575,0,0,1-5.519-2.008,3.656,3.656,0,0,1-1.354-3.744,6.178,6.178,0,0,1,3.139-4.3,12.994,12.994,0,0,1,6.976-1.7,11.429,11.429,0,0,1,6.688,1.71,4.039,4.039,0,0,1,1.888,4.357l-.041.106h-6.75a1.887,1.887,0,0,0-.38-1.719,2.916,2.916,0,0,0-2.061-.561,3.609,3.609,0,0,0-1.909.509,1.774,1.774,0,0,0-.944,1.3,1.214,1.214,0,0,0,.626,1.289,9.683,9.683,0,0,0,3.293.938,12.978,12.978,0,0,1,5.684,2.043,3.8,3.8,0,0,1,1.333,3.849,6.017,6.017,0,0,1-3.334,4.27,14.911,14.911,0,0,1-7.315,1.605,10.285,10.285,0,0,1-6.729-1.982q-2.4-1.981-1.888-4.367l.041-.105h6.278a1.907,1.907,0,0,0,.626,1.947,4.213,4.213,0,0,0,2.493.6,4.344,4.344,0,0,0,2.175-.473A1.836,1.836,0,0,0,678.371,275.569Z"/></g><path class="a" d="M698.2,263.894a2.071,2.071,0,0,0,2.88-.722,2.242,2.242,0,0,0-1.3-2.778c-1.155-.567-4.553-.1-4.553-.1S697.043,263.327,698.2,263.894Z" transform="translate(-3.223 -8)"/><path class="a" d="M700.64,275.924a2.587,2.587,0,0,0,3.38.137c.77-.8.507-2.167-.59-3.046s-4.969-1.409-4.969-1.409S699.543,275.045,700.64,275.924Z" transform="translate(1.539 -8)"/><g transform="translate(-0.263)"><path class="c" d="M529.025,258.113s3.373-14.039,13.234-18.367,22.478,2.694,22.478,2.694-3.373,14.039-13.235,18.367S529.025,258.113,529.025,258.113Z" transform="translate(0.526 0.309)"/><ellipse class="d" cx="3" cy="11.5" rx="3" ry="11.5" transform="translate(540.496 241.056) rotate(-23.695)"/><path class="c" d="M478.662,280.216s3.373-14.039,13.234-18.367,22.478,2.694,22.478,2.694S511,278.582,501.139,282.91,478.662,280.216,478.662,280.216Z" transform="translate(0 0.681)"/><ellipse class="d" cx="3" cy="11.5" rx="3" ry="11.5" transform="translate(489.708 263.535) rotate(-23.695)"/><g transform="translate(475.263 220)"><path class="c" d="M551.2,229.329c-5.481-8.618-26.495-12.458-46.293-3.769s-31.2,26.755-28.567,36.623c3.9-8.838,14.775-22.926,31.38-30.213S542.057,226.218,551.2,229.329Z" transform="translate(-475.263 -220)"/><path class="d" d="M512.324,222.1l6.836,5.485L526.3,220l7.635,6.078,5.01-4.855,4.881,5.546,1.819-2.355.791.612-2.56,3.315-4.988-5.67L534,227.407l-7.6-6.052-7.141,7.589-6.669-5.352-5.77,9.473-9.656-2.459-.569,8.543-10.985,1.243,1.378,7.484-7.184.713,1.117,7.248-5.439,1.194-.215-.976,4.522-.993-1.134-7.363,7.152-.709-1.373-7.469,11.219-1.269.594-8.909,10.1,2.572Z" transform="translate(-475.263 -220)"/></g></g></g></svg>