<svg xmlns="http://www.w3.org/2000/svg" width="340.299" height="80.25" viewBox="0 0 340.299 80.25"><defs><style>.a,.c{fill:#fff;}.b{fill:#e34a5f;}.c{stroke:#fff;stroke-linecap:round;stroke-linejoin:round;stroke-width:0.5px;}.d{fill:#ef6278;}.e{fill:#27123e;}</style></defs><g transform="translate(-454.701 -219.75)"><path class="a" d="M793.869,260.21a5.039,5.039,0,0,0-3.538-1.386h-6.955a5.238,5.238,0,0,1-4.637,0h-6.956a4.5,4.5,0,0,0-4.617,3.4l-.837,4.772a11.551,11.551,0,0,0-6.733-1.963,14.57,14.57,0,0,0-4.6.729,5.362,5.362,0,0,0-1.985-.378h-6.5a4.734,4.734,0,0,0-4.264,2.4,15.194,15.194,0,0,0-9.359-2.754,18.906,18.906,0,0,0-9.68,2.4,3.719,3.719,0,0,0,.962-1.874l.7-3.981a3.6,3.6,0,0,0-1.08-3.2A5.037,5.037,0,0,0,720.245,257h-6.956a4.5,4.5,0,0,0-4.617,3.4l-.212,1.211a5.146,5.146,0,0,0-2.988-.946h-6.934a4.506,4.506,0,0,0-4.616,3.389l-.25,1.407a4.924,4.924,0,0,0-2.462,1.169,16.521,16.521,0,0,0-7.506-1.6,21.007,21.007,0,0,0-8.348,1.568l.881-5.017a3.6,3.6,0,0,0-1.08-3.2A5.036,5.036,0,0,0,671.619,257h-6.955a4.5,4.5,0,0,0-4.617,3.4l-.877,4.993c-.036,0-.071-.01-.107-.01h-6.935a5.284,5.284,0,0,1-6.114,0H639.1a5.336,5.336,0,0,0-1.306.175l.053-.3a3.6,3.6,0,0,0-1.074-3.2,5.034,5.034,0,0,0-3.541-1.39H626.3a4.5,4.5,0,0,0-4.615,3.389l-.251,1.407a4.928,4.928,0,0,0-2.462,1.169,16.518,16.518,0,0,0-7.506-1.6,21.387,21.387,0,0,0-7.9,1.373,4.8,4.8,0,0,0-1.86-.977,11.308,11.308,0,0,0-6.424.145,5.393,5.393,0,0,0-1.424-.19h-6.525a5.243,5.243,0,0,1-3.959,0h-6.114a5.354,5.354,0,0,0-1.825.317,11.3,11.3,0,0,0-3.941-.668,14.6,14.6,0,0,0-9.922,3.592,10.694,10.694,0,0,0-8.5-3.592,14.577,14.577,0,0,0-4.6.729,5.349,5.349,0,0,0-1.984-.378h-6.5a4.734,4.734,0,0,0-4.264,2.4,15.192,15.192,0,0,0-9.359-2.754,19.314,19.314,0,0,0-8.989,2.013,9.525,9.525,0,0,0-3.333-5.208c-2.756-2.243-6.624-3.381-11.5-3.381a19.639,19.639,0,0,0-12.182,3.823,15.577,15.577,0,0,0-6.058,10.04l-.943,5.328a11.591,11.591,0,0,0,3.214,10.746c2.846,2.822,6.935,4.313,11.824,4.313,4.714,0,8.638-1.006,11.664-2.99a13.219,13.219,0,0,0,1.744-1.383c.035.039.062.082.1.121,1.763,1.94,5.111,4.252,11.053,4.252a18.848,18.848,0,0,0,9.65-2.4,4.019,4.019,0,0,0,.518.643,5.037,5.037,0,0,0,3.537,1.386h6.915a5.153,5.153,0,0,0,3.057-.974,5.16,5.16,0,0,0,3.057.974h6.75l-.338.751a3.767,3.767,0,0,0,2.228,4.981,23.271,23.271,0,0,0,4.414,1.406,22.241,22.241,0,0,0,4.672.525,21.849,21.849,0,0,0,11.338-2.713,12.419,12.419,0,0,0,4.755-5c.169.016.334.047.506.047h6.934a4.522,4.522,0,0,0,4.583-3.279,9.029,9.029,0,0,0,.812.852c1.417,1.275,4.036,2.795,8.475,2.795a12.727,12.727,0,0,0,4.685-.832,5.312,5.312,0,0,0,2.133.446l6.853.018h.014a5,5,0,0,0,3.584-1.448,12.457,12.457,0,0,0,6.962,1.816,23.41,23.41,0,0,0,2.617-.13c.747-.084,1.574-.222,2.454-.41a4.832,4.832,0,0,0,2.391-1.261,11.988,11.988,0,0,0,6.571,1.8,14.368,14.368,0,0,0,4.9-.828,5.292,5.292,0,0,0,2.176.46h5.58a5.214,5.214,0,0,1,4.124,0h6.955a5.037,5.037,0,0,0,3.39-1.268,13.433,13.433,0,0,0,6.848,1.636,12.729,12.729,0,0,0,4.686-.832,5.308,5.308,0,0,0,2.133.446l6.853.018h.013a5.009,5.009,0,0,0,3.585-1.448,12.451,12.451,0,0,0,6.961,1.816,23.41,23.41,0,0,0,2.617-.13c.748-.084,1.574-.222,2.454-.41.147-.031.284-.08.425-.123a5.328,5.328,0,0,0,1.7.3h6.956a4.691,4.691,0,0,0,4.37-2.605,15.044,15.044,0,0,0,9.663,2.973,18.854,18.854,0,0,0,9.651-2.4,4.055,4.055,0,0,0,.518.643,5.035,5.035,0,0,0,3.537,1.386H750.1a5.284,5.284,0,0,1,6.114,0h6.935a5.213,5.213,0,0,1,4.165,0h6.955a5.23,5.23,0,0,1,4.637,0h6.955a4.5,4.5,0,0,0,4.619-3.4l.861-4.962a3.473,3.473,0,0,0-.308-2.122,3.736,3.736,0,0,0,1.025-1.958l2.893-16.484A3.6,3.6,0,0,0,793.869,260.21Z"/><path class="b" d="M511.2,279.737l.041.105a9.309,9.309,0,0,1-4.022,6.708,15.883,15.883,0,0,1-8.822,2.165q-5.334,0-8.289-2.928a8.007,8.007,0,0,1-2.133-7.54l.944-5.331a11.768,11.768,0,0,1,4.544-7.655,14.568,14.568,0,0,1,9.079-2.814q5.478,0,8.278,2.279t1.98,6.559l-.061.105h-6.771q.41-2.437-.554-3.411t-3.673-.973a5.2,5.2,0,0,0-3.836,1.622,7.737,7.737,0,0,0-2.052,4.252l-.944,5.367a5.667,5.667,0,0,0,.606,4.339,4.172,4.172,0,0,0,3.682,1.57,5.564,5.564,0,0,0,3.57-1.034,5.327,5.327,0,0,0,1.7-3.385Z"/><path class="b" d="M513.947,278.685a11.083,11.083,0,0,1,4.022-7.05,13.009,13.009,0,0,1,8.391-2.613q4.883,0,7.335,2.719a7.863,7.863,0,0,1,1.734,6.944l-.062.368a11.243,11.243,0,0,1-4.052,7.058,12.961,12.961,0,0,1-8.361,2.6q-4.9,0-7.365-2.709a7.75,7.75,0,0,1-1.7-6.953Zm6.873.368a6.3,6.3,0,0,0,.185,3.779q.636,1.324,2.749,1.324a3.848,3.848,0,0,0,3.109-1.385,7.943,7.943,0,0,0,1.59-3.718l.061-.368a6.4,6.4,0,0,0-.225-3.744,2.7,2.7,0,0,0-2.729-1.359,3.856,3.856,0,0,0-3.139,1.42,7.6,7.6,0,0,0-1.539,3.683Z"/><path class="b" d="M546.3,271.951a9.43,9.43,0,0,1,3.068-2.165,9.083,9.083,0,0,1,3.7-.764,5.708,5.708,0,0,1,4.7,1.912q1.56,1.911.862,6l-2.01,11.416h-6.936l2.011-11.433a3.525,3.525,0,0,0-.215-2.6,2.173,2.173,0,0,0-1.857-.728,5.779,5.779,0,0,0-2.031.351,5.459,5.459,0,0,0-1.662.964l-2.359,13.45h-6.915l3.324-18.973h6.5Z"/><path class="b" d="M561.116,278.9a12.855,12.855,0,0,1,3.508-7.234,9.443,9.443,0,0,1,6.873-2.64,5.447,5.447,0,0,1,2.9.737,5.609,5.609,0,0,1,1.96,2.087l.9-2.472h6.113l-3.282,18.763a8.237,8.237,0,0,1-4.021,5.883,18.446,18.446,0,0,1-12.187,1.587,17.964,17.964,0,0,1-3.427-1.087l1.97-4.384a15.915,15.915,0,0,0,2.708.833,15.346,15.346,0,0,0,3.077.272,6.48,6.48,0,0,0,3.386-.763,3.311,3.311,0,0,0,1.539-2.376l.246-1.456a8.1,8.1,0,0,1-2.462,1.543,7.868,7.868,0,0,1-2.914.526,6.685,6.685,0,0,1-5.826-2.63q-1.888-2.629-1.129-6.821Zm6.852.368a6.391,6.391,0,0,0,.134,3.638,2.417,2.417,0,0,0,2.472,1.254,5.785,5.785,0,0,0,1.98-.316,3.911,3.911,0,0,0,1.488-.946l1.4-7.909a2.547,2.547,0,0,0-1.129-1.044,4.216,4.216,0,0,0-1.847-.359,3.484,3.484,0,0,0-2.892,1.481,8.694,8.694,0,0,0-1.539,3.833Z"/><path class="b" d="M598.724,274.424l-2.257-.018a4.645,4.645,0,0,0-1.99.395,3.45,3.45,0,0,0-1.354,1.1l-2.175,12.451h-6.935l3.323-18.973h6.525l-.226,2.6.1.052a6.381,6.381,0,0,1,2.134-2.218,5.31,5.31,0,0,1,2.831-.781,6.08,6.08,0,0,1,.831.053,6.246,6.246,0,0,1,.769.158Z"/><path class="b" d="M611.649,288.33a6.44,6.44,0,0,1-.42-1.351,7.834,7.834,0,0,1-.154-1.578,9.881,9.881,0,0,1-2.647,2.412,6.811,6.811,0,0,1-3.611.9,7.378,7.378,0,0,1-5.088-1.551A4.26,4.26,0,0,1,598.457,283a6,6,0,0,1,3.221-4.411q2.707-1.48,7.817-1.482h2.852l.246-1.35a2.211,2.211,0,0,0-.349-1.885,2.557,2.557,0,0,0-1.97-.622,3.189,3.189,0,0,0-1.867.491,2.155,2.155,0,0,0-.862,1.49l-6.729-.017-.021-.106a5.934,5.934,0,0,1,3.293-4.392,14.628,14.628,0,0,1,7.376-1.693,10.133,10.133,0,0,1,6.3,1.772,4.759,4.759,0,0,1,1.744,5l-1.252,7.154a11.575,11.575,0,0,0-.205,2.815,12.843,12.843,0,0,0,.451,2.586Zm-4.206-3.841a5.348,5.348,0,0,0,2.308-.517,4.112,4.112,0,0,0,1.611-1.219l.43-2.49H609a3.985,3.985,0,0,0-2.482.693,2.732,2.732,0,0,0-1.088,1.727,1.327,1.327,0,0,0,.421,1.324A2.371,2.371,0,0,0,607.443,284.489Z"/><path class="b" d="M633.233,264.656l-.842,4.718h3.51l-.719,4.1h-3.508l-1.519,8.7a1.687,1.687,0,0,0,.195,1.491,1.641,1.641,0,0,0,1.242.421q.513,0,.862-.035a8.124,8.124,0,0,0,.841-.14l-.308,4.383q-1.066.228-1.928.325a18.45,18.45,0,0,1-2.012.1,6.586,6.586,0,0,1-4.862-1.578q-1.559-1.578-.964-4.928l1.518-8.732h-3.1l.718-4.1h3.1l.841-4.718Z"/><path class="b" d="M649.831,285.594a8.591,8.591,0,0,1-2.976,2.323,8.783,8.783,0,0,1-3.775.8,5.988,5.988,0,0,1-4.985-2.087q-1.66-2.085-.9-6.382l1.908-10.872h6.914l-1.909,10.907q-.41,2.314.113,3.1a2.169,2.169,0,0,0,1.939.78,6.651,6.651,0,0,0,1.99-.281,4.736,4.736,0,0,0,1.58-.824l2.4-13.677h6.934l-3.324,18.973h-5.58Z"/><path class="b" d="M666.818,288.347h-6.955l4.8-27.356h6.956Z"/><path class="b" d="M683.889,288.33a6.44,6.44,0,0,1-.421-1.351,7.834,7.834,0,0,1-.154-1.578,9.894,9.894,0,0,1-2.646,2.412,6.811,6.811,0,0,1-3.611.9,7.378,7.378,0,0,1-5.088-1.551A4.26,4.26,0,0,1,670.7,283a6.01,6.01,0,0,1,3.221-4.411q2.709-1.48,7.817-1.482h2.852l.246-1.35a2.2,2.2,0,0,0-.349-1.885,2.554,2.554,0,0,0-1.969-.622,3.187,3.187,0,0,0-1.867.491,2.155,2.155,0,0,0-.862,1.49l-6.729-.017-.021-.106a5.934,5.934,0,0,1,3.293-4.392,14.628,14.628,0,0,1,7.376-1.693,10.135,10.135,0,0,1,6.3,1.772,4.76,4.76,0,0,1,1.744,5l-1.252,7.154a11.527,11.527,0,0,0-.205,2.815,12.839,12.839,0,0,0,.451,2.586Zm-4.206-3.841a5.351,5.351,0,0,0,2.308-.517,4.112,4.112,0,0,0,1.611-1.219l.43-2.49h-2.79a3.981,3.981,0,0,0-2.482.693,2.732,2.732,0,0,0-1.088,1.727,1.325,1.325,0,0,0,.421,1.324A2.371,2.371,0,0,0,679.683,284.489Z"/><path class="b" d="M705.474,264.656l-.842,4.718h3.509l-.718,4.1h-3.509l-1.518,8.7a1.683,1.683,0,0,0,.2,1.491,1.637,1.637,0,0,0,1.241.421q.513,0,.861-.035a8.093,8.093,0,0,0,.842-.14l-.307,4.383q-1.068.228-1.929.325a18.416,18.416,0,0,1-2.011.1,6.583,6.583,0,0,1-4.862-1.578q-1.56-1.578-.965-4.928l1.518-8.732h-3.1l.719-4.1h3.1l.842-4.718Z"/><path class="b" d="M715.443,288.347h-6.955l3.324-18.973h6.956Zm4.1-23.375h-6.955l.7-3.981h6.956Z"/><path class="b" d="M720.472,278.685a11.081,11.081,0,0,1,4.02-7.05,13.014,13.014,0,0,1,8.392-2.613q4.883,0,7.335,2.719a7.856,7.856,0,0,1,1.733,6.944l-.061.368a11.243,11.243,0,0,1-4.052,7.058,12.96,12.96,0,0,1-8.36,2.6q-4.905,0-7.367-2.709a7.758,7.758,0,0,1-1.7-6.953Zm6.873.368a6.277,6.277,0,0,0,.184,3.779q.636,1.324,2.749,1.324a3.85,3.85,0,0,0,3.109-1.385,7.954,7.954,0,0,0,1.59-3.718l.061-.368a6.393,6.393,0,0,0-.226-3.744,2.7,2.7,0,0,0-2.728-1.359,3.86,3.86,0,0,0-3.14,1.42,7.607,7.607,0,0,0-1.538,3.683Z"/><path class="b" d="M752.826,271.951a9.437,9.437,0,0,1,3.067-2.165,9.087,9.087,0,0,1,3.7-.764,5.709,5.709,0,0,1,4.7,1.912q1.559,1.911.861,6l-2.01,11.416h-6.935l2.011-11.433a3.529,3.529,0,0,0-.216-2.6,2.172,2.172,0,0,0-1.857-.728,5.779,5.779,0,0,0-2.031.351,5.47,5.47,0,0,0-1.662.964l-2.359,13.45h-6.914l3.324-18.973h6.5Z"/><path class="b" d="M774.267,288.347h-6.956l.862-4.963h6.955Zm1.579-9.048h-6.955l2.892-16.484h6.956Z"/><path class="b" d="M785.859,288.347H778.9l.863-4.963h6.955Zm1.579-9.048h-6.955l2.893-16.484h6.956Z"/><path class="c" d="M476.254,238.132h0a1.728,1.728,0,0,1,.175.01l13.94,1.536a1.579,1.579,0,0,1,1.4,1.741l-2.3,20.91a1.575,1.575,0,0,1-1.566,1.4,1.482,1.482,0,0,1-.175-.01l-13.94-1.536a1.578,1.578,0,0,1-1.395-1.741l2.3-20.91a1.575,1.575,0,0,1,1.566-1.4m0-.175a1.753,1.753,0,0,0-1.74,1.561l-2.3,20.91a1.753,1.753,0,0,0,1.551,1.934L487.7,263.9a1.809,1.809,0,0,0,.194.01,1.753,1.753,0,0,0,1.74-1.561l2.3-20.909a1.753,1.753,0,0,0-1.551-1.935l-13.94-1.536a1.816,1.816,0,0,0-.194-.011Z"/><path class="a" d="M485.346,250.756a1.911,1.911,0,0,0-1.99-.579,1.483,1.483,0,0,0,.669-1.2l.009-.061a1.743,1.743,0,0,0-3.466-.382,1.842,1.842,0,0,0,0,.356,1.578,1.578,0,0,0,.422,1.028,1.908,1.908,0,0,0-2.068.132,1.822,1.822,0,0,0-.4,2.235,1.615,1.615,0,0,0,1.425,1.013,1.963,1.963,0,0,0,1.512-.465,3.586,3.586,0,0,1-1.005,1.913l.044,0,1.141.126,1.14.125.044.005a3.387,3.387,0,0,1-.551-2.073,1.949,1.949,0,0,0,1.362.771,1.617,1.617,0,0,0,1.611-.679A1.822,1.822,0,0,0,485.346,250.756Z"/><path class="c" d="M761.277,220.257h0a2.321,2.321,0,0,1,.406.036l20.285,3.577a2.321,2.321,0,0,1,1.88,2.684l-5.366,30.428a2.312,2.312,0,0,1-2.684,1.88l-20.285-3.577a2.319,2.319,0,0,1-1.88-2.684L759,222.173a2.314,2.314,0,0,1,2.279-1.916m0-.257a2.575,2.575,0,0,0-2.532,2.128l-5.366,30.428a2.575,2.575,0,0,0,2.089,2.983l20.285,3.577a2.657,2.657,0,0,0,.45.039,2.576,2.576,0,0,0,2.533-2.128L784.1,226.6a2.575,2.575,0,0,0-2.088-2.983l-20.286-3.576a2.552,2.552,0,0,0-.45-.04Z"/><path class="d" d="M773,233.969a3.253,3.253,0,0,1-6.338-1.117c-3.261-.5-4.333,3.068-3.523,5.107a17.252,17.252,0,0,0,2.221,4.1,27.85,27.85,0,0,1,2.269,3.608s.009.094.027.072c.01.027.051-.058.051-.058a27.79,27.79,0,0,1,3.365-2.615,17.237,17.237,0,0,0,3.491-3.1C776.019,238.334,776.23,234.62,773,233.969Z"/><path class="e" d="M497.742,260.463a2.313,2.313,0,0,1-1.59-1.364l-11.362-27.17a2.335,2.335,0,0,1,1.252-3.051l18.113-7.574a2.331,2.331,0,0,1,3.05,1.251l11.362,27.171a2.329,2.329,0,0,1-1.251,3.05L499.2,260.351A2.309,2.309,0,0,1,497.742,260.463Z"/><path class="c" d="M505.586,221.311a2.189,2.189,0,0,1,1.506,1.292l11.362,27.17a2.209,2.209,0,0,1-1.185,2.89l-18.114,7.574a2.207,2.207,0,0,1-2.89-1.185L484.9,231.882a2.21,2.21,0,0,1,1.186-2.89l18.114-7.575a2.188,2.188,0,0,1,1.383-.106m.059-.238a2.44,2.44,0,0,0-1.537.118l-18.114,7.574a2.455,2.455,0,0,0-1.317,3.211l11.362,27.17a2.453,2.453,0,0,0,3.211,1.318l18.113-7.575a2.454,2.454,0,0,0,1.318-3.211l-11.362-27.17a2.449,2.449,0,0,0-1.674-1.435Z"/><path class="d" d="M497.439,235.477l-.255,8.766,8.621,2.021.337-8.9Z"/><path class="c" d="M455.815,277.151h0a1.461,1.461,0,0,1,.226-.125l11.99-5.323a1.478,1.478,0,0,1,1.948.75l7.985,17.985a1.473,1.473,0,0,1-.523,1.822,1.619,1.619,0,0,1-.227.126l-11.99,5.323a1.479,1.479,0,0,1-1.948-.75l-7.985-17.985a1.473,1.473,0,0,1,.524-1.823m-.092-.136a1.641,1.641,0,0,0-.582,2.025l7.985,17.985a1.641,1.641,0,0,0,2.164.834l11.99-5.324a1.532,1.532,0,0,0,.252-.139,1.641,1.641,0,0,0,.582-2.025l-7.985-17.985a1.639,1.639,0,0,0-2.164-.833l-11.99,5.323a1.608,1.608,0,0,0-.252.139Z"/><path class="a" d="M468.933,282.536c-1.19-.518-2.5-.958-3.089-1.232-.442-.206-.763-.369-.895-.438l-.025-.055-.009.037-.034-.018.024.055c-.038.145-.132.492-.275.958-.191.621-.744,1.887-1.158,3.117a2.915,2.915,0,0,0,.383,2.792,1.946,1.946,0,0,0,2.661.325,1.455,1.455,0,0,0,.647-.826,3.027,3.027,0,0,1,0,1.866l2.312-1.027a3.232,3.232,0,0,1-1.315-1.277,1.451,1.451,0,0,0,1.039.071,1.945,1.945,0,0,0,1.543-2.192A2.909,2.909,0,0,0,468.933,282.536Z"/><path class="a" d="M652.015,251,675.4,232.877l7.6,6.431Z"/><path class="a" d="M645,248.662l7.6-21.046,10.523,5.262Z"/></g></svg>