<svg xmlns="http://www.w3.org/2000/svg" width="71.099" height="85.039" viewBox="0 0 71.099 85.039"><defs><style>.a{fill:none;stroke:#15b0bf;stroke-linecap:round;stroke-linejoin:round;stroke-width:0.25px;stroke-dasharray:1 0.5;}.b{fill:#fff;}.c{fill:#27123e;}.d{fill:#eb3b56;}.e{fill:#15b0bf;}.f{fill:#1695a4;}.g{fill:#2c5871;}.h{fill:#214255;opacity:0.35;}.i{opacity:0.3;}.j{fill:#453468;}.k{fill:#524165;}.l{fill:#ef6278;}.m{fill:#fdfdfd;}</style></defs><g transform="translate(-809.854 -561.766)"><path class="a" d="M853.018,612.449s2.875,2.237,7.359-2.045,8.31-14.4,10.911-10.764-1.459,3.063-3.949,4.039-11.275,3.371-12.451,4.883"/><ellipse class="b" cx="13.5" cy="2.581" rx="13.5" ry="2.581" transform="translate(831.638 601.71)"/><rect class="b" width="27.001" height="5.4" transform="translate(831.638 598.891)"/><path class="c" d="M829.909,600.854a2.313,2.313,0,0,1,.046-.955,2.2,2.2,0,0,1,.64-1.132.94.94,0,0,1,.87-.278.9.9,0,0,1,.6.521,1.965,1.965,0,0,1,.118,1.279,2.129,2.129,0,0,1-.3.7,2.839,2.839,0,0,1-.84.753,2.923,2.923,0,0,1,.608,1.2,2.231,2.231,0,0,1,0,.888,2.19,2.19,0,0,1-.616,1.17,1.233,1.233,0,0,1-1.164.375,1.3,1.3,0,0,1-.887-.784,1.9,1.9,0,0,1-.071-1.291,2.245,2.245,0,0,1,.291-.7,2.952,2.952,0,0,1,1.036-.871A2.6,2.6,0,0,1,829.909,600.854Zm.021,4.25a.676.676,0,0,0,.613-.213,1.947,1.947,0,0,0,.543-1.042,1.7,1.7,0,0,0-.008-.689,2.587,2.587,0,0,0-.538-.985.158.158,0,0,0-.064-.075,2.1,2.1,0,0,0-.678.608,2.552,2.552,0,0,0-.307.737,2.131,2.131,0,0,0-.037,1.049C829.548,604.848,829.711,605.056,829.93,605.1Zm1.471-6.346a.572.572,0,0,0-.556.263,1.961,1.961,0,0,0-.39.819,1.8,1.8,0,0,0-.041.712,2.338,2.338,0,0,0,.39.874,1.985,1.985,0,0,0,.591-.552,2.353,2.353,0,0,0,.352-.8,1.938,1.938,0,0,0-.012-.934A.469.469,0,0,0,831.4,598.758Z"/><path class="c" d="M832.077,601.357a2.324,2.324,0,0,1,.013-.957,2.209,2.209,0,0,1,.6-1.154.935.935,0,0,1,.858-.308.9.9,0,0,1,.614.5,1.969,1.969,0,0,1,.163,1.274,2.144,2.144,0,0,1-.273.713,2.816,2.816,0,0,1-.812.782,2.9,2.9,0,0,1,.649,1.174,2.225,2.225,0,0,1,.028.887,2.187,2.187,0,0,1-.573,1.191,1.228,1.228,0,0,1-1.148.416,1.3,1.3,0,0,1-.913-.751,1.914,1.914,0,0,1-.116-1.287,2.268,2.268,0,0,1,.266-.71,2.962,2.962,0,0,1,1-.908A2.613,2.613,0,0,1,832.077,601.357Zm.17,4.246a.672.672,0,0,0,.6-.235,1.941,1.941,0,0,0,.505-1.061,1.715,1.715,0,0,0-.031-.688,2.6,2.6,0,0,0-.572-.965.161.161,0,0,0-.067-.073,2.107,2.107,0,0,0-.654.632,2.563,2.563,0,0,0-.281.748,2.136,2.136,0,0,0,0,1.049C831.857,605.361,832.027,605.563,832.247,605.6Zm1.245-6.394a.57.57,0,0,0-.545.283,1.963,1.963,0,0,0-.361.832,1.8,1.8,0,0,0-.016.713,2.349,2.349,0,0,0,.42.859,1.993,1.993,0,0,0,.57-.573,2.33,2.33,0,0,0,.323-.813,1.951,1.951,0,0,0-.044-.933A.468.468,0,0,0,833.492,599.209Z"/><path class="c" d="M834.257,601.781a2.323,2.323,0,0,1-.021-.956,2.216,2.216,0,0,1,.556-1.175.938.938,0,0,1,.846-.339.9.9,0,0,1,.63.477,1.963,1.963,0,0,1,.207,1.267,2.108,2.108,0,0,1-.247.723,2.823,2.823,0,0,1-.782.811,2.906,2.906,0,0,1,.688,1.149,2.257,2.257,0,0,1,.06.886,2.2,2.2,0,0,1-.531,1.211,1.227,1.227,0,0,1-1.13.457,1.3,1.3,0,0,1-.938-.719,1.917,1.917,0,0,1-.161-1.282,2.285,2.285,0,0,1,.24-.719,2.963,2.963,0,0,1,.97-.943A2.61,2.61,0,0,1,834.257,601.781Zm.319,4.238a.674.674,0,0,0,.594-.257,1.952,1.952,0,0,0,.467-1.078,1.694,1.694,0,0,0-.056-.687,2.58,2.58,0,0,0-.6-.943.158.158,0,0,0-.069-.071,2.108,2.108,0,0,0-.631.655,2.546,2.546,0,0,0-.254.758,2.129,2.129,0,0,0,.037,1.048C834.178,605.791,834.354,605.987,834.576,606.019Zm1.018-6.435a.571.571,0,0,0-.534.3,1.967,1.967,0,0,0-.331.845,1.8,1.8,0,0,0,.009.713,2.343,2.343,0,0,0,.449.844,1.986,1.986,0,0,0,.548-.593,2.31,2.31,0,0,0,.294-.825,1.948,1.948,0,0,0-.077-.93A.469.469,0,0,0,835.594,599.584Z"/><path class="c" d="M836.448,602.128a2.343,2.343,0,0,1-.055-.955,2.216,2.216,0,0,1,.514-1.194.932.932,0,0,1,.832-.368.889.889,0,0,1,.646.454,1.967,1.967,0,0,1,.251,1.259,2.094,2.094,0,0,1-.221.73,2.819,2.819,0,0,1-.752.839,2.907,2.907,0,0,1,.728,1.124,2.265,2.265,0,0,1,.09.883,2.2,2.2,0,0,1-.487,1.229,1.227,1.227,0,0,1-1.113.5,1.288,1.288,0,0,1-.96-.684,1.92,1.92,0,0,1-.206-1.276,2.3,2.3,0,0,1,.214-.727,2.967,2.967,0,0,1,.935-.977A2.6,2.6,0,0,1,836.448,602.128Zm.467,4.223a.674.674,0,0,0,.585-.277,1.956,1.956,0,0,0,.427-1.095,1.716,1.716,0,0,0-.079-.684,2.592,2.592,0,0,0-.637-.921.156.156,0,0,0-.071-.068,2.092,2.092,0,0,0-.607.677,2.568,2.568,0,0,0-.227.766,2.131,2.131,0,0,0,.074,1.046C836.51,606.137,836.693,606.327,836.915,606.351Zm.79-6.466c-.186-.023-.363.084-.523.321a1.973,1.973,0,0,0-.3.856,1.817,1.817,0,0,0,.034.712,2.349,2.349,0,0,0,.478.827,1.991,1.991,0,0,0,.526-.612,2.33,2.33,0,0,0,.265-.834,1.957,1.957,0,0,0-.11-.927A.464.464,0,0,0,837.705,599.885Z"/><path class="c" d="M838.647,602.4a2.329,2.329,0,0,1-.088-.953,2.211,2.211,0,0,1,.471-1.211.931.931,0,0,1,.817-.4.89.89,0,0,1,.661.431,1.964,1.964,0,0,1,.3,1.249,2.1,2.1,0,0,1-.2.738,2.8,2.8,0,0,1-.721.864,2.922,2.922,0,0,1,.766,1.1,2.254,2.254,0,0,1,.122.879,2.193,2.193,0,0,1-.444,1.246,1.225,1.225,0,0,1-1.093.536,1.294,1.294,0,0,1-.983-.65,1.923,1.923,0,0,1-.251-1.268,2.312,2.312,0,0,1,.189-.734,2.97,2.97,0,0,1,.9-1.01A2.607,2.607,0,0,1,838.647,602.4Zm.615,4.2a.67.67,0,0,0,.574-.3,1.952,1.952,0,0,0,.388-1.108,1.718,1.718,0,0,0-.1-.681,2.581,2.581,0,0,0-.668-.9.16.16,0,0,0-.074-.066,2.121,2.121,0,0,0-.582.7,2.559,2.559,0,0,0-.2.774,2.14,2.14,0,0,0,.11,1.042C838.85,606.4,839.039,606.584,839.262,606.6Zm.561-6.49c-.187-.016-.36.1-.511.339a1.987,1.987,0,0,0-.27.866,1.814,1.814,0,0,0,.06.711,2.348,2.348,0,0,0,.506.81,2,2,0,0,0,.5-.631,2.354,2.354,0,0,0,.235-.843,1.949,1.949,0,0,0-.142-.922A.467.467,0,0,0,839.823,600.11Z"/><path class="c" d="M840.852,602.587a2.339,2.339,0,0,1-.122-.949,2.222,2.222,0,0,1,.428-1.227.934.934,0,0,1,.8-.427.891.891,0,0,1,.675.408,1.972,1.972,0,0,1,.339,1.238,2.1,2.1,0,0,1-.169.744,2.834,2.834,0,0,1-.69.89,2.905,2.905,0,0,1,.8,1.07,2.236,2.236,0,0,1,.152.874,2.194,2.194,0,0,1-.4,1.26,1.223,1.223,0,0,1-1.074.574,1.29,1.29,0,0,1-1.005-.614,1.927,1.927,0,0,1-.294-1.258,2.31,2.31,0,0,1,.162-.741,2.948,2.948,0,0,1,.862-1.04A2.609,2.609,0,0,1,840.852,602.587Zm.763,4.179a.67.67,0,0,0,.562-.318,1.95,1.95,0,0,0,.349-1.121,1.7,1.7,0,0,0-.127-.677,2.587,2.587,0,0,0-.7-.874.159.159,0,0,0-.076-.063,2.128,2.128,0,0,0-.557.718,2.548,2.548,0,0,0-.171.78,2.128,2.128,0,0,0,.146,1.038C841.2,606.582,841.392,606.758,841.615,606.766Zm.331-6.506c-.187-.01-.356.11-.5.357a1.972,1.972,0,0,0-.239.875,1.821,1.821,0,0,0,.084.708,2.342,2.342,0,0,0,.534.792,2.006,2.006,0,0,0,.482-.648,2.348,2.348,0,0,0,.2-.851,1.956,1.956,0,0,0-.175-.917A.467.467,0,0,0,841.946,600.26Z"/><path class="c" d="M843.06,602.7a2.343,2.343,0,0,1-.154-.944,2.216,2.216,0,0,1,.384-1.241.932.932,0,0,1,.786-.455.892.892,0,0,1,.69.384,1.969,1.969,0,0,1,.382,1.225,2.11,2.11,0,0,1-.143.75,2.822,2.822,0,0,1-.658.913,2.9,2.9,0,0,1,.841,1.041,2.238,2.238,0,0,1,.183.868,2.189,2.189,0,0,1-.354,1.274,1.221,1.221,0,0,1-1.051.611,1.288,1.288,0,0,1-1.026-.578,1.922,1.922,0,0,1-.339-1.247,2.316,2.316,0,0,1,.136-.746,2.965,2.965,0,0,1,.824-1.07A2.633,2.633,0,0,1,843.06,602.7Zm.91,4.15a.673.673,0,0,0,.551-.338,1.953,1.953,0,0,0,.309-1.133,1.731,1.731,0,0,0-.151-.672,2.6,2.6,0,0,0-.73-.849.152.152,0,0,0-.077-.06,2.105,2.105,0,0,0-.531.737,2.545,2.545,0,0,0-.144.786,2.141,2.141,0,0,0,.183,1.033C843.546,606.679,843.747,606.849,843.97,606.849Zm.1-6.513c-.187,0-.351.122-.484.374a1.959,1.959,0,0,0-.208.883,1.794,1.794,0,0,0,.109.7,2.348,2.348,0,0,0,.561.773,2.007,2.007,0,0,0,.458-.665,2.339,2.339,0,0,0,.175-.858,1.957,1.957,0,0,0-.207-.91A.466.466,0,0,0,844.071,600.336Z"/><path class="c" d="M845.272,602.734a2.322,2.322,0,0,1-.188-.938,2.213,2.213,0,0,1,.34-1.254.931.931,0,0,1,.77-.483.893.893,0,0,1,.7.359,1.968,1.968,0,0,1,.425,1.211,2.088,2.088,0,0,1-.116.755,2.823,2.823,0,0,1-.625.935,2.91,2.91,0,0,1,.877,1.011,2.257,2.257,0,0,1,.214.861,2.195,2.195,0,0,1-.309,1.286,1.223,1.223,0,0,1-1.03.648,1.29,1.29,0,0,1-1.045-.542,1.927,1.927,0,0,1-.383-1.234,2.294,2.294,0,0,1,.11-.75,2.96,2.96,0,0,1,.786-1.1A2.609,2.609,0,0,1,845.272,602.734Zm1.055,4.115a.675.675,0,0,0,.539-.357,1.958,1.958,0,0,0,.268-1.144,1.708,1.708,0,0,0-.174-.666,2.594,2.594,0,0,0-.759-.822.155.155,0,0,0-.08-.058,2.1,2.1,0,0,0-.5.756,2.575,2.575,0,0,0-.117.79,2.143,2.143,0,0,0,.22,1.025C845.9,606.694,846.1,606.856,846.327,606.849Zm-.129-6.513c-.187,0-.346.134-.471.391a1.988,1.988,0,0,0-.177.89,1.823,1.823,0,0,0,.134.7,2.348,2.348,0,0,0,.589.752,1.994,1.994,0,0,0,.434-.681,2.336,2.336,0,0,0,.144-.863,1.956,1.956,0,0,0-.238-.9A.466.466,0,0,0,846.2,600.336Z"/><path class="c" d="M847.483,602.69a2.326,2.326,0,0,1-.221-.931,2.217,2.217,0,0,1,.295-1.265.932.932,0,0,1,.753-.509.892.892,0,0,1,.715.333,1.972,1.972,0,0,1,.468,1.2,2.1,2.1,0,0,1-.09.758,2.816,2.816,0,0,1-.592.957,2.913,2.913,0,0,1,.913.979,2.26,2.26,0,0,1,.244.853,2.189,2.189,0,0,1-.264,1.3,1.222,1.222,0,0,1-1.006.684,1.289,1.289,0,0,1-1.064-.505,1.918,1.918,0,0,1-.426-1.22,2.274,2.274,0,0,1,.083-.753,2.959,2.959,0,0,1,.747-1.126A2.6,2.6,0,0,1,847.483,602.69Zm1.2,4.075a.671.671,0,0,0,.526-.376,1.954,1.954,0,0,0,.228-1.152,1.7,1.7,0,0,0-.2-.659,2.581,2.581,0,0,0-.788-.8.153.153,0,0,0-.082-.054,2.1,2.1,0,0,0-.477.773,2.528,2.528,0,0,0-.088.794,2.137,2.137,0,0,0,.255,1.017C848.247,606.626,848.46,606.78,848.683,606.765Zm-.358-6.5c-.188.01-.343.147-.458.407a1.968,1.968,0,0,0-.145.9,1.815,1.815,0,0,0,.158.695,2.359,2.359,0,0,0,.615.731,1.993,1.993,0,0,0,.41-.7,2.338,2.338,0,0,0,.114-.867,1.958,1.958,0,0,0-.27-.894A.467.467,0,0,0,848.325,600.261Z"/><path class="c" d="M849.691,602.568a2.341,2.341,0,0,1-.253-.922,2.214,2.214,0,0,1,.251-1.275.932.932,0,0,1,.734-.536.894.894,0,0,1,.727.309,1.968,1.968,0,0,1,.51,1.177,2.1,2.1,0,0,1-.063.761,2.806,2.806,0,0,1-.558.978,2.9,2.9,0,0,1,.947.946,2.249,2.249,0,0,1,.274.844,2.189,2.189,0,0,1-.217,1.3,1.225,1.225,0,0,1-.983.72,1.293,1.293,0,0,1-1.082-.467,1.927,1.927,0,0,1-.469-1.2,2.326,2.326,0,0,1,.057-.756,2.951,2.951,0,0,1,.707-1.152A2.617,2.617,0,0,1,849.691,602.568Zm1.345,4.03a.67.67,0,0,0,.512-.394,1.95,1.95,0,0,0,.188-1.159,1.7,1.7,0,0,0-.222-.652,2.574,2.574,0,0,0-.816-.767.152.152,0,0,0-.083-.052,2.094,2.094,0,0,0-.45.789,2.572,2.572,0,0,0-.061.8,2.135,2.135,0,0,0,.292,1.007C850.595,606.475,850.813,606.622,851.036,606.6Zm-.588-6.487c-.187.016-.337.159-.443.423a1.963,1.963,0,0,0-.114.9,1.814,1.814,0,0,0,.183.689,2.342,2.342,0,0,0,.641.709,1.992,1.992,0,0,0,.385-.71,2.34,2.34,0,0,0,.083-.871,1.942,1.942,0,0,0-.3-.883A.465.465,0,0,0,850.448,600.111Z"/><path class="c" d="M851.9,602.368a2.334,2.334,0,0,1-.286-.912,2.226,2.226,0,0,1,.206-1.284.937.937,0,0,1,.716-.561.894.894,0,0,1,.738.283,1.966,1.966,0,0,1,.552,1.159,2.11,2.11,0,0,1-.036.762,2.827,2.827,0,0,1-.525,1,2.914,2.914,0,0,1,.982.912,2.251,2.251,0,0,1,.3.834,2.2,2.2,0,0,1-.172,1.311,1.229,1.229,0,0,1-.958.754,1.291,1.291,0,0,1-1.1-.429,1.917,1.917,0,0,1-.512-1.186,2.3,2.3,0,0,1,.03-.758,2.945,2.945,0,0,1,.667-1.176A2.594,2.594,0,0,1,851.9,602.368Zm1.487,3.981a.675.675,0,0,0,.5-.413,1.953,1.953,0,0,0,.147-1.165,1.711,1.711,0,0,0-.245-.644,2.586,2.586,0,0,0-.843-.737.151.151,0,0,0-.086-.049,2.118,2.118,0,0,0-.422.8,2.538,2.538,0,0,0-.032.8,2.133,2.133,0,0,0,.327,1C852.937,606.24,853.16,606.379,853.382,606.349Zm-.817-6.463c-.186.023-.331.17-.428.439a1.958,1.958,0,0,0-.082.9,1.817,1.817,0,0,0,.207.682,2.347,2.347,0,0,0,.666.685,2.008,2.008,0,0,0,.361-.722,2.34,2.34,0,0,0,.052-.874,1.937,1.937,0,0,0-.333-.872A.467.467,0,0,0,852.565,599.886Z"/><path class="c" d="M854.094,602.09a2.32,2.32,0,0,1-.319-.9,2.212,2.212,0,0,1,.161-1.289.933.933,0,0,1,.7-.586.892.892,0,0,1,.748.255,1.973,1.973,0,0,1,.593,1.139,2.123,2.123,0,0,1-.009.763,2.829,2.829,0,0,1-.49,1.015,2.916,2.916,0,0,1,1.014.877,2.261,2.261,0,0,1,.334.822,2.194,2.194,0,0,1-.126,1.317,1.229,1.229,0,0,1-.932.787,1.293,1.293,0,0,1-1.114-.389,1.916,1.916,0,0,1-.554-1.168,2.3,2.3,0,0,1,0-.758,2.964,2.964,0,0,1,.625-1.2A2.577,2.577,0,0,1,854.094,602.09Zm1.627,3.925a.675.675,0,0,0,.485-.429,1.956,1.956,0,0,0,.106-1.17,1.706,1.706,0,0,0-.268-.635,2.587,2.587,0,0,0-.869-.707.164.164,0,0,0-.088-.046,2.121,2.121,0,0,0-.394.82,2.567,2.567,0,0,0,0,.8,2.146,2.146,0,0,0,.362.985C855.272,605.923,855.5,606.054,855.721,606.015Zm-1.045-6.43c-.185.03-.325.183-.413.454a1.985,1.985,0,0,0-.05.906,1.815,1.815,0,0,0,.232.674,2.34,2.34,0,0,0,.69.662,2,2,0,0,0,.336-.735,2.355,2.355,0,0,0,.021-.875,1.936,1.936,0,0,0-.364-.86A.468.468,0,0,0,854.676,599.585Z"/><path class="c" d="M856.283,601.734a2.345,2.345,0,0,1-.35-.89,2.208,2.208,0,0,1,.115-1.294.937.937,0,0,1,.677-.611.9.9,0,0,1,.758.229,1.969,1.969,0,0,1,.634,1.117,2.11,2.11,0,0,1,.017.763,2.813,2.813,0,0,1-.454,1.032,2.907,2.907,0,0,1,1.046.84,2.241,2.241,0,0,1,.363.81,2.193,2.193,0,0,1-.08,1.32,1.231,1.231,0,0,1-.9.82,1.3,1.3,0,0,1-1.129-.349,1.919,1.919,0,0,1-.595-1.148,2.288,2.288,0,0,1-.023-.757,2.958,2.958,0,0,1,.583-1.221A2.6,2.6,0,0,1,856.283,601.734Zm1.767,3.865a.677.677,0,0,0,.47-.447,1.938,1.938,0,0,0,.065-1.173,1.7,1.7,0,0,0-.29-.625,2.577,2.577,0,0,0-.895-.675.162.162,0,0,0-.089-.043,2.113,2.113,0,0,0-.366.833,2.574,2.574,0,0,0,.024.8,2.137,2.137,0,0,0,.4.97C857.6,605.523,857.831,605.646,858.05,605.6Zm-1.272-6.389c-.184.036-.319.194-.4.469a1.949,1.949,0,0,0-.018.907,1.8,1.8,0,0,0,.255.665,2.33,2.33,0,0,0,.714.636,1.988,1.988,0,0,0,.31-.746,2.324,2.324,0,0,0-.009-.875,1.934,1.934,0,0,0-.4-.846A.468.468,0,0,0,856.778,599.21Z"/><path class="c" d="M858.462,601.3a2.315,2.315,0,0,1-.382-.877,2.2,2.2,0,0,1,.07-1.3.936.936,0,0,1,.656-.634.9.9,0,0,1,.766.2,1.955,1.955,0,0,1,.674,1.094,2.1,2.1,0,0,1,.045.762,2.821,2.821,0,0,1-.419,1.048,2.918,2.918,0,0,1,1.077.8,2.241,2.241,0,0,1,.392.8,2.184,2.184,0,0,1-.034,1.322,1.233,1.233,0,0,1-.877.853,1.3,1.3,0,0,1-1.142-.309,1.908,1.908,0,0,1-.636-1.125,2.289,2.289,0,0,1-.05-.757,2.952,2.952,0,0,1,.541-1.24A2.6,2.6,0,0,1,858.462,601.3Zm1.905,3.8a.678.678,0,0,0,.455-.463,1.944,1.944,0,0,0,.023-1.175,1.688,1.688,0,0,0-.312-.614,2.588,2.588,0,0,0-.92-.643.154.154,0,0,0-.091-.039,2.128,2.128,0,0,0-.337.845,2.571,2.571,0,0,0,.053.8,2.138,2.138,0,0,0,.431.956C859.911,605.04,860.149,605.154,860.367,605.1Zm-1.5-6.339c-.184.043-.313.205-.382.482a1.966,1.966,0,0,0,.014.907,1.8,1.8,0,0,0,.279.657,2.356,2.356,0,0,0,.737.61,2,2,0,0,0,.285-.758,2.333,2.333,0,0,0-.04-.874,1.946,1.946,0,0,0-.425-.831A.468.468,0,0,0,858.869,598.76Z"/><ellipse class="c" cx="13.5" cy="2.581" rx="13.5" ry="2.581" transform="translate(831.638 596.31)"/><path class="b" d="M839.14,581.649s-2.87.5-8.778-5.846a120.193,120.193,0,0,1-10.925-14.037s11.647,5.342,15.215,10.133A26.187,26.187,0,0,1,839.14,581.649Z"/><path class="b" d="M838.344,581.731s-.626-3.669-9.57-4.431a95.9,95.9,0,0,0-18.92.7s10.2,8.1,16.588,7.681A28.386,28.386,0,0,0,838.344,581.731Z"/><path class="b" d="M832.412,589.286c0-2.7,2.1-8.4,5.081-9.547,6.562-2.524,12.192-1.53,14.869,1.147,2.1,2.1,5.25-3.15,9.45,3.15,1.406,2.109,3.15,5.25-1.05,9.45-3.024,3.024-8.819,7.976-12.6,7.83s-7.994.607-10.924-1.335S832.412,592.436,832.412,589.286Z"/><path class="d" d="M813.512,578.786a27.961,27.961,0,0,0,8.4,4.2c4.2,1.05,11.725,1.152,12.688-.474s-1.154-3.466-3.238-3.726A88.8,88.8,0,0,0,813.512,578.786Z"/><path class="d" d="M821.912,564.086l14.54,15.381s-1.363-5.354-4.04-8.031A47.079,47.079,0,0,0,821.912,564.086Z"/><path class="e" d="M873.125,604.989a2.109,2.109,0,1,1,2.109-2.109A2.11,2.11,0,0,1,873.125,604.989Zm0-3.8a1.687,1.687,0,1,0,1.687,1.687A1.689,1.689,0,0,0,873.125,601.193Z"/><circle class="e" cx="6.258" cy="6.258" r="6.258" transform="translate(865.855 614.946) rotate(-76.455)"/><circle class="f" cx="5.596" cy="5.596" r="5.596" transform="translate(867.808 604.731)"/><circle class="g" cx="5.278" cy="5.278" r="5.278" transform="matrix(0.233, -0.972, 0.972, 0.233, 867.04, 614.228)"/><rect class="h" width="8.227" height="3.094" rx="0.844" transform="translate(869.291 608.781)"/><rect class="e" width="0.556" height="0.805" transform="translate(876.346 605.203) rotate(-55.015)"/><rect class="e" width="0.925" height="1.188" transform="matrix(0.573, -0.819, 0.819, 0.573, 876.508, 604.637)"/><rect class="i" width="0.17" height="0.805" transform="translate(876.568 604.886) rotate(-54.992)"/><rect class="e" width="0.85" height="0.886" transform="translate(872.974 603.521)"/><rect class="e" width="2.476" height="0.692" transform="translate(872.161 602.829)"/><rect class="i" width="0.85" height="0.151" transform="translate(872.974 603.521)"/><path class="j" d="M860.564,606.107l-9.874,1.826a100.606,100.606,0,0,1-10.74,1.124,1.341,1.341,0,0,0-.169.02,1.259,1.259,0,0,0-.862.6c-.079.137-7.967,13.759-10.088,17.618a1.779,1.779,0,0,0,.164,2.012c2.839,3.7,28.021,5.336,33.223,4.374.473-.087,1.58-.292,1.888-1.215.786-2.36-2.019-24.5-2.175-25.459A1.141,1.141,0,0,0,860.564,606.107Z"/><path class="k" d="M845.22,619.905c.161.02.347.035.544.048a96.772,96.772,0,0,0,2.527-10.5c-4.024.531-8.328.742-8.328.742s-1.923,3.321-4.131,7.157A54.931,54.931,0,0,0,845.22,619.905Z"/><path class="j" d="M848.9,609.447a97.945,97.945,0,0,1-2.521,10.535c4.166.125,13.445-.764,15.77-1-.559-5.357-1.2-10.559-1.4-11.76l-9.874,1.826c-.634.118-1.308.224-2,.321C848.88,609.4,848.9,609.42,848.9,609.447Z"/><path class="b" d="M841.991,631.718c.02-.062,1.956-6.293,3.577-11.155l.015-.048c-.166-.012-.323-.026-.464-.044a54.894,54.894,0,0,1-9.551-2.6c-.011,0-.013-.016-.023-.021-2.2,3.83-4.617,8.045-5.657,9.938-.925,1.682,5.016,3.074,12.107,3.962C842,631.741,841.987,631.73,841.991,631.718Z"/><path class="j" d="M846.192,620.547c-.018.055-.035.112-.054.167-1.574,4.727-3.444,10.733-3.562,11.11,9.2,1.108,20.043,1.373,20.389.337.317-.953-.162-6.792-.762-12.61C859.888,619.785,850.409,620.7,846.192,620.547Z"/><path class="l" d="M838.269,622.044l-3.288,2.618,1.929,3.522,3.361-2.631Z"/><path class="b" d="M844.79,614.115c-.507-.723-1.117-1.443-1.361-1.812-.183-.277-.31-.485-.362-.572l.007-.041-.02.018-.014-.022-.007.041c-.08.071-.273.24-.543.462-.361.295-1.193.839-1.928,1.412a2.031,2.031,0,0,0-.875,1.766,1.31,1.31,0,0,0,1.463,1.131,1.12,1.12,0,0,0,.715-.254,2.2,2.2,0,0,1-.736,1.092l1.789.218a2.08,2.08,0,0,1-.282-1.212.984.984,0,0,0,.594.409,1.47,1.47,0,0,0,1.791-.735A1.883,1.883,0,0,0,844.79,614.115Z"/><ellipse class="m" cx="18.375" cy="15.225" rx="18.375" ry="15.225" transform="translate(825.062 610.286)"/><path class="m" d="M862.862,614.943a35.148,35.148,0,0,1,3.2-2.507c.77-.41,1.868-.593,1.961,1.364s.957,3.505-.7,5.191-2.429,2.1-2.965.777S862.862,614.943,862.862,614.943Z"/><path class="c" d="M857.612,615.536s-3.3-6.121-6.671-4.131-4.744,3.474-3.341,7.158,4.574,7.868,10.677,6.7a32.512,32.512,0,0,0,9.835-3.425s-2.851-4.714-2.98-6.429a3.109,3.109,0,0,0-1.02-2.334Z"/><circle class="m" cx="3.675" cy="3.675" r="3.675" transform="translate(821.912 623.936)"/><path class="m" d="M852.528,627.71a3.84,3.84,0,0,1-2.6,1.559c-2.078.519-4.157,0-4.676.519s-1.04.52,0,2.6,3.637,9.353,4.156,10.912,1.04,2.6,2.079,3.117,1.559.52,3.637,0,3.118,0,2.078-1.558-3.117-.52-4.156-2.079-3.118-8.833-3.118-9.872,3.118-1.559,3.118-1.559Z"/><path class="m" d="M842.389,632.7a3.836,3.836,0,0,1-2.61-1.538c-1.449-1.578-1.984-3.652-2.689-3.861s-.953-.665-2.283,1.241-6.481,7.661-7.6,8.862-1.786,2.153-1.747,3.314.288,1.618,1.737,3.2,1.489,2.74,2.362,1.082-1.032-2.987-.158-4.645,6.272-6.956,7.185-7.452,2.859,1.995,2.859,1.995Z"/><path class="c" d="M834.916,609.236l-11.954,25.2h9.45l13.408,3.15,9.692-26.25Z"/><path class="k" d="M855.3,608H844.809a110.1,110.1,0,0,1-11.27-.85,1.34,1.34,0,0,0-.178-.011,1.314,1.314,0,0,0-.99.434c-.1.121-10.536,12.113-13.374,15.531a1.716,1.716,0,0,0-.168,2.013c2.306,4.166,28.012,10.372,33.54,10.372.5,0,1.679,0,2.152-.854,1.209-2.184,2.041-24.527,2.041-25.5A1.2,1.2,0,0,0,855.3,608Z"/><path class="k" d="M837.15,618.8c.163.049.352.1.553.146a92.324,92.324,0,0,0,4.374-9.891c-4.241-.209-8.716-.786-8.716-.786s-2.543,2.923-5.467,6.3A60.055,60.055,0,0,0,837.15,618.8Z"/><path class="b" d="M842.7,609.163a93.946,93.946,0,0,1-4.374,9.927c4.277.883,14,1.7,16.438,1.893.325-5.383.537-10.629.537-11.849H844.809c-.674,0-1.388-.018-2.113-.048C842.7,609.113,842.711,609.137,842.7,609.163Z"/><path class="b" d="M831.831,629.862c.031-.058,3.077-5.848,5.568-10.346l.024-.045c-.17-.042-.33-.085-.472-.127a59.9,59.9,0,0,1-9.417-4.3c-.011-.006-.011-.018-.021-.025-2.918,3.374-6.116,7.09-7.509,8.767-1.237,1.49,4.659,3.945,11.825,6.114C831.833,629.885,831.825,629.873,831.831,629.862Z"/><path class="k" d="M838.045,619.614c-.028.051-.055.1-.083.155-2.42,4.373-5.361,9.953-5.546,10.3,9.3,2.769,20.449,5.009,20.979,4.05.488-.882.976-6.727,1.337-12.571C852.3,621.36,842.369,620.535,838.045,619.614Z"/><path class="b" d="M848.171,626a1.868,1.868,0,0,0-1.8-.548,1.218,1.218,0,0,0,.658-.969c0-.017.007-.033.01-.05a1.467,1.467,0,0,0-1.333-1.642,1.58,1.58,0,0,0-1.818,1.2,1.259,1.259,0,0,0-.016.293,1.225,1.225,0,0,0,.344.864,1.9,1.9,0,0,0-1.894.035,1.406,1.406,0,0,0-.45,1.831,1.452,1.452,0,0,0,1.262.887,1.94,1.94,0,0,0,1.4-.331,2.945,2.945,0,0,1-.994,1.543l.041.006,1.037.144,1.037.144.04.006a2.582,2.582,0,0,1-.423-1.73,1.813,1.813,0,0,0,1.215.684,1.556,1.556,0,0,0,1.5-.5A1.4,1.4,0,0,0,848.171,626Z"/><path class="l" d="M850.308,612.554a1.4,1.4,0,0,0-1.657,1.074,1.345,1.345,0,0,0-1.419-1.323,1.554,1.554,0,0,0-1.477,2.336,7.471,7.471,0,0,0,1.23,1.69,12.2,12.2,0,0,1,1.232,1.475s.008.04.016.03c.006.011.022-.027.022-.027a12.88,12.88,0,0,1,1.5-1.253,7.9,7.9,0,0,0,1.543-1.466A1.512,1.512,0,0,0,850.308,612.554Z"/><path class="l" d="M829.619,619.645l-3.833,1.982,1.4,3.824,3.911-1.981Z"/><path class="b" d="M837.681,613.017c-.4-.806-.91-1.627-1.1-2.035-.142-.306-.238-.535-.277-.631l.014-.038-.024.014-.01-.024-.014.038c-.095.056-.323.188-.639.357-.422.225-1.372.61-2.226,1.041a1.986,1.986,0,0,0-1.2,1.582c-.069.548.348,1.208,1.32,1.381a1.191,1.191,0,0,0,.78-.12,2.177,2.177,0,0,1-.944.942l1.81.541a2.005,2.005,0,0,1-.087-1.245,1.043,1.043,0,0,0,.544.511,1.56,1.56,0,0,0,1.972-.4A1.817,1.817,0,0,0,837.681,613.017Z"/></g></svg>