<svg xmlns="http://www.w3.org/2000/svg" width="508.256" height="383.744" viewBox="0 0 508.256 383.744"><defs><style>.a,.f,.h{fill:#27123e;}.a,.h{stroke:#27123e;}.a,.g,.h{stroke-linecap:round;stroke-linejoin:round;}.a{stroke-width:15px;}.b{fill:#ef6278;}.c,.g,.i{fill:#fff;}.d{fill:#f9cf1e;}.e{fill:#15b0bf;}.g{stroke:#fff;stroke-width:0.5px;}.h{stroke-width:12px;}.h,.i{font-size:36px;font-family:Roboto-Regular, Roboto;}</style></defs><g transform="translate(-389.744 -162.5)"><path class="a" d="M434.745,206.169a55.525,55.525,0,0,1,13.155,4.9c3.364-8.567,7.494-20.192,10.859-30.593l17.13,6.273c-.612,1.834-2.141,2.6-5.811,2.448-5.66,8.258-12.237,17.437-18.508,24.319,4.435,3.516,6.119,7.339,6.119,10.4,0,3.67-2.448,6.422-5.507,6.422a6.5,6.5,0,0,1-4.436-1.833c-1.682-7.19-8.106-16.062-14.071-20.955Z"/><path class="a" d="M455.123,278.464c-.46,1.834-1.53,2.906-5.2,2.906-4.13,13.612-10.554,27.072-18.049,35.177l-2.446-1.222c4.282-9.484,8.259-25.543,10.1-40.533Z"/><path class="a" d="M490.76,214.054c-.612,1.224-1.683,1.682-3.365,1.682a11.017,11.017,0,0,1-2.906-.3c-7.954,11.93-20.8,27.989-32.732,40.991,8.718-.307,18.661-.614,28.908-1.07a57.227,57.227,0,0,0-7.953-11.625l1.376-1.224c16.978,6.576,22.331,15.143,22.331,21.26,0,4.435-2.753,7.495-6.118,7.495a6.851,6.851,0,0,1-4.894-2.448,41.666,41.666,0,0,0-3.06-10.094c-3.976.764-8.259,1.681-13.153,2.6V327.85c0,.917-3.824,3.516-9.636,3.516h-1.989V263.61c-5.812,1.07-12.083,2.294-18.965,3.518a5.424,5.424,0,0,1-3.977,3.211l-4.742-13.612c3.978,0,9.943,0,16.978-.151a526.051,526.051,0,0,0,27.072-50.17Z"/><path class="a" d="M475.785,270.544c10.779,6.26,14.373,12.981,14.373,17.85,0,3.941-2.319,6.607-4.985,6.607a5.167,5.167,0,0,1-3.941-2.086c-.115-6.724-3.361-16-6.838-21.676Z"/><path class="a" d="M535.547,280.658l14.308,12.58c-.764,1.384-2.4,1.763-5.352,1.763H485.956l-.437-2.014H508.13V197.872H488.469l-.437-2.012h36.046l7.536-11.7L545.6,196.111c-.765,1.385-2.4,1.761-5.243,1.761H524.515v95.115h3.167Z"/><path class="a" d="M715.03,212.375l13.252,11.13c-.737,1.144-1.933,1.455-4.6,1.455H709.693c-2.485,15.29-5.614,27.563-11.135,37.34,17.852,6.863,23.926,16.433,23.926,22.985,0,4.471-2.761,7.592-6.534,7.592a8.863,8.863,0,0,1-4.509-1.352c-3.865-5.512-10.766-12.585-20.06-19.449-10.031,10.505-25.215,17.057-49.6,20.7l-.46-1.249c18.956-6.552,31.563-14.561,39.845-26.314a118.419,118.419,0,0,0-14.079-7.28l-1.657,5.513a10.571,10.571,0,0,1-5.889,1.455,26.24,26.24,0,0,1-8.742-1.769c2.852-8.84,7.27-23.92,11.135-38.17H641.228l-.46-1.664h21.626c3.22-12.065,5.981-23.3,7.085-29.33l17.577,2.7c-.277,1.456-1.2,2.392-3.865,2.6-1.289,5.1-3.681,14.041-6.442,24.025h30.919ZM676.289,224.96c-2.853,10.4-5.982,21.634-8.466,30.37a142.026,142.026,0,0,1,17.576,3.017c4.693-9.049,7.454-19.969,9.11-33.387Z"/><path class="a" d="M564.724,212.921c-2.217,28.9-8.184,49.017-17.731,60.355a6.229,6.229,0,0,1-2.558.511,5.051,5.051,0,0,1,.426-2.3,319.251,319.251,0,0,0,5.371-60.184Z"/><path class="a" d="M575.345,171.58l17.378,1.743c-.149,1.609-1.044,2.682-5.216,3.351v80.879c0,4.155.448,4.424,4.62,4.424h18.179c2.979,0,4.619,0,6.407-2.28,1.937-2.278,4.768-8.847,8.642-17.963h.894v18.9c7,2.682,7.9,3.889,7.9,6.436,0,7.508-5.215,11.529-23.99,11.529H591.233c-13-.592-15.888-4.021-15.888-21.45Z"/><path class="a" d="M615.7,193.134c-3.753,2-7.267,5.59-10.62,10.7-.959-3.113-4.552-6.707-10.621-10.7a25.657,25.657,0,0,0,10.621-10.62C607.239,186.426,610.752,189.941,615.7,193.134Z"/><path class="a" d="M632.7,220.748c-3.753,2-7.267,5.589-10.62,10.7-.959-3.114-4.552-6.707-10.621-10.7a25.659,25.659,0,0,0,10.621-10.621C624.232,214.04,627.745,217.554,632.7,220.748Z"/><path class="a" d="M817.495,297.216a25.906,25.906,0,0,1-9.58,10.03l-8.51-.091H779.922V253.014h29.8c3.21,0,4.814-.424,5.731-1.968L799.29,236.981l-8.824,13.782H779.922v-48.1h35.3c3.324,0,4.813-.42,5.73-1.969l-16.731-14.766-9.283,14.486H724l.573,2.249h37.588v48.1H729.154l.574,2.251h32.431v54.141H717.237l.573,2.251h91.345c4.69,3.369,7.509,6.431,8.34,9.131,3.353-5.111,6.867-8.7,10.62-10.7C823.164,304.643,819.651,301.129,817.495,297.216Z"/><path class="a" d="M784.025,179.473l1.649,2.13c.044,1.15-.4,3.2-2.966,6.082-2.1-2.9-2.2-4.934-1.968-6.075l2.007-2.137-3.123-5.331-3.718,5.331,1.77,2.137c.1,1.069-.18,2.926-2.209,5.536-2.6-3.488-2.836-5.975-2.621-7.393l2.421-2.766L770.9,170l-4.368,6.987,2.421,2.766c.215,1.418-.023,3.9-2.621,7.393-2.029-2.61-2.31-4.467-2.208-5.536l1.769-2.137-3.717-5.331-3.124,5.331,2.007,2.137c.235,1.141.135,3.18-1.968,6.075-2.565-2.883-3.01-4.932-2.966-6.082l1.649-2.13-4-5.331.7,6.392.307,2.811.674,6.16h0l.307,2.816h30.285l.308-2.816h0l.673-6.16.307-2.811.7-6.392Z"/><path class="a" d="M648.536,384.29c-1.3,2.948-3.262,4.211-7.99,4.211h-62.94c5.708,40.238,23.644,82.578,71.908,109.965l-.164,2.528c-7.174,1.474-11.74,5.477-13.37,15.588-44.351-32.441-57.233-85.106-61.636-128.081h-.161c-4.4,50.348-19.73,95.851-76.147,128.5l-1.793-3.58C542.549,478.664,556.083,436.11,560,388.5h-62.94l-1.141-4.634h64.406c1.3-17.9,1.3-32.861,1.3-63.2l21.687,2.526c-.164,2.951-1.469,4.637-6.849,5.057-.325,18.958-.489,37.5-1.793,55.613h46.144Z"/><path class="a" d="M634.849,429.826a55.319,55.319,0,0,1,2.041,14.433c0,4.08-.437,16.18-9.767,16.18-3.646,0-5.249-2.477-5.249-4.81s1.459-4.666,3.5-6.414c3.061-3.5,7-12.392,7-19.536Z"/><path class="a" d="M644.47,424.423c8.017,7,10.787,13.7,10.787,18.66,0,5.394-3.061,8.891-6.267,8.891a4.949,4.949,0,0,1-4.227-2.624,48.086,48.086,0,0,0,.581-6.706,58.157,58.157,0,0,0-2.768-17.638Z"/><path class="a" d="M659.708,419.679c11.517,6.27,15.163,13.267,15.163,18.37,0,3.934-2.333,6.7-5.1,6.7a5.51,5.51,0,0,1-4.081-2.04c-.146-6.851-3.792-16.474-7.582-22.014Z"/><path class="a" d="M679.374,314.3l5.268-6.8,14.444,10.367c-1.018,1.19-3.567,2.549-6.455,3.056v47.585c0,.341-3.4,3.739-11.727,3.739v-6.117H664.079v18.355h11.556l6.968-9.007,13.6,9.514c-1.36,2.381-3.4,3.231-7.818,3.231h-24.3v16.653c10.537-.678,22.094-1.528,33.65-2.379l.168,2.89c-16.484,3.739-39.087,8.666-70.356,14.615a6.437,6.437,0,0,1-4.418,3.568l-5.608-15.975c7.138-.17,19.374-.848,33.989-1.869v-17.5H622.443l-1.189-3.738H651.5V366.128H635.359v4.079c0,.171-1.36,4.08-11.556,4.08v-65.6l12.406,5.607Zm-44.015,3.739v44.355h17.334V318.034Zm3.4,7.308c7.987,7.988,10.706,15.636,10.706,21.073,0,5.266-2.378,8.668-5.269,8.668-1.189,0-2.378-.682-3.567-2.21a34.128,34.128,0,0,0,.17-4.248,65.838,65.838,0,0,0-4.42-22.435Zm24.132,37.047H680.9v-32.46a4.574,4.574,0,0,1-2.549.682c-2.379,5.946-6.8,17.161-10.876,25.15l-2.211-.848c1.7-9.008,3.739-22.774,4.419-29.912l11.217,3.061V318.034H662.89Z"/><path class="a" d="M676.4,412.924c11.821,4.111,15.676,10.151,15.676,14.52,0,3.083-2.055,5.268-4.369,5.268-1.156,0-1.269-.6-2.425-1.759-.772-5.654-5.926-12.761-10.039-17Z"/><path class="a" d="M747.651,366.784c-1.123,1.963-2.946,2.806-6.734,2.806H716.645v52.835H728.71l4.771-6.314,12.486,9.4c-.982,1.123-2.525,1.825-5.471,2.386v50.929c0,.7-3.788,3.086-8.84,3.086h-1.682v-9.4h-34.8v7.157c0,.841-3.225,3.366-8.557,3.366h-1.684V417.514l11.925,4.911H705.7V332.971l17.4,1.545c-.282,2.243-1.825,3.227-6.454,3.786v28.2h12.206l6.453-9.261Zm-17.677,58.727h-34.8v43.915h34.8Z"/><path class="a" d="M785.289,456.4a3.406,3.406,0,0,1-2.795,2.056,18.082,18.082,0,0,1-2.412.127c-8.1,11.987-24.141,26.916-41.9,36.843l-1.472-1.894c14.132-11.879,27.538-29.647,33.127-42.92Z"/><path class="a" d="M799.724,455.187c36.258,8.183,47.544,22.573,47.544,30.615,0,3.385-2.118,5.5-5.08,5.5a8.593,8.593,0,0,1-3.951-.987c-7.475-11.287-25.393-25.817-39.358-33.436Z"/><path class="a" d="M867.19,442.835a2.49,2.49,0,0,0-1.556-.648q-7.906-1.542-15.8-3.133a22.846,22.846,0,0,0-6.024-.3c-.782.049-1.625.34-1.7,1.26s-.106,1.96,1.174,2.19a2.434,2.434,0,0,1-.134,1.265l-2.582-.062H827.81V389.168h21.644c4.014,0,5.735-1.091,6.882-3.638l-14.192-12.559-7.453,12.194H767.752V359.686c23.651-2.184,49.595-7.281,66.795-12.376a12.131,12.131,0,0,0,5.018,1.456,3.593,3.593,0,0,0,2.865-1.273l-12.47-14.564c-13.33,7.1-37.41,16.2-58.911,21.843l-14.908-7.279v95.913h-26.66l.86,4.006H840.912a2.339,2.339,0,0,0,.069,2.138c.792,1.681,2.2,1.982,3.815,2a16.685,16.685,0,0,0,4.578-.426c5.741-1.558,11.481-3.12,17.209-4.727.779-.218,1.855-.222,2.08-1.258C868.914,443.979,867.789,443.535,867.19,442.835Zm-51.134.571h-48.3V389.168h48.3Zm27.295-1.216c-.175-1.281.757-1.313,1.607-1.318a36.333,36.333,0,0,1,8.8,1.168,16.566,16.566,0,0,1,5.064,1.648c-.6.043-1.184.082-1.768.119l-8.89-.216A19.5,19.5,0,0,1,843.351,442.19Zm-1.385,6.722a16.045,16.045,0,0,1,2.361-1.5h10.429C849.849,449.235,844.535,449.971,841.966,448.912Z"/><path class="b" d="M434.745,206.169a55.525,55.525,0,0,1,13.155,4.9c3.364-8.567,7.494-20.192,10.859-30.593l17.13,6.273c-.612,1.834-2.141,2.6-5.811,2.448-5.66,8.258-12.237,17.437-18.508,24.319,4.435,3.516,6.119,7.339,6.119,10.4,0,3.67-2.448,6.422-5.507,6.422a6.5,6.5,0,0,1-4.436-1.833c-1.682-7.19-8.106-16.062-14.071-20.955Z"/><path class="b" d="M455.123,278.464c-.46,1.834-1.53,2.906-5.2,2.906-4.13,13.612-10.554,27.072-18.049,35.177l-2.446-1.222c4.282-9.484,8.259-25.543,10.1-40.533Z"/><path class="b" d="M490.76,214.054c-.612,1.224-1.683,1.682-3.365,1.682a11.017,11.017,0,0,1-2.906-.3c-7.954,11.93-20.8,27.989-32.732,40.991,8.718-.307,18.661-.614,28.908-1.07a57.227,57.227,0,0,0-7.953-11.625l1.376-1.224c16.978,6.576,22.331,15.143,22.331,21.26,0,4.435-2.753,7.495-6.118,7.495a6.851,6.851,0,0,1-4.894-2.448,41.666,41.666,0,0,0-3.06-10.094c-3.976.764-8.259,1.681-13.153,2.6V327.85c0,.917-3.824,3.516-9.636,3.516h-1.989V263.61c-5.812,1.07-12.083,2.294-18.965,3.518a5.424,5.424,0,0,1-3.977,3.211l-4.742-13.612c3.978,0,9.943,0,16.978-.151a526.051,526.051,0,0,0,27.072-50.17Z"/><path class="b" d="M475.785,270.544c10.779,6.26,14.373,12.981,14.373,17.85,0,3.941-2.319,6.607-4.985,6.607a5.167,5.167,0,0,1-3.941-2.086c-.115-6.724-3.361-16-6.838-21.676Z"/><path class="c" d="M535.547,280.658l14.308,12.58c-.764,1.384-2.4,1.763-5.352,1.763H485.956l-.437-2.014H508.13V197.872H488.469l-.437-2.012h36.046l7.536-11.7L545.6,196.111c-.765,1.385-2.4,1.761-5.243,1.761H524.515v95.115h3.167Z"/><path class="c" d="M715.03,212.375l13.252,11.13c-.737,1.144-1.933,1.455-4.6,1.455H709.693c-2.485,15.29-5.614,27.563-11.135,37.34,17.852,6.863,23.926,16.433,23.926,22.985,0,4.471-2.761,7.592-6.534,7.592a8.863,8.863,0,0,1-4.509-1.352c-3.865-5.512-10.766-12.585-20.06-19.449-10.031,10.505-25.215,17.057-49.6,20.7l-.46-1.249c18.956-6.552,31.563-14.561,39.845-26.314a118.419,118.419,0,0,0-14.079-7.28l-1.657,5.513a10.571,10.571,0,0,1-5.889,1.455,26.24,26.24,0,0,1-8.742-1.769c2.852-8.84,7.27-23.92,11.135-38.17H641.228l-.46-1.664h21.626c3.22-12.065,5.981-23.3,7.085-29.33l17.577,2.7c-.277,1.456-1.2,2.392-3.865,2.6-1.289,5.1-3.681,14.041-6.442,24.025h30.919ZM676.289,224.96c-2.853,10.4-5.982,21.634-8.466,30.37a142.026,142.026,0,0,1,17.576,3.017c4.693-9.049,7.454-19.969,9.11-33.387Z"/><path class="b" d="M564.724,212.921c-2.217,28.9-8.184,49.017-17.731,60.355a6.229,6.229,0,0,1-2.558.511,5.051,5.051,0,0,1,.426-2.3,319.251,319.251,0,0,0,5.371-60.184Z"/><path class="b" d="M575.345,171.58l17.378,1.743c-.149,1.609-1.044,2.682-5.216,3.351v80.879c0,4.155.448,4.424,4.62,4.424h18.179c2.979,0,4.619,0,6.407-2.28,1.937-2.278,4.768-8.847,8.642-17.963h.894v18.9c7,2.682,7.9,3.889,7.9,6.436,0,7.508-5.215,11.529-23.99,11.529H591.233c-13-.592-15.888-4.021-15.888-21.45Z"/><path class="c" d="M615.7,193.134c-3.753,2-7.267,5.59-10.62,10.7-.959-3.113-4.552-6.707-10.621-10.7a25.657,25.657,0,0,0,10.621-10.62C607.239,186.426,610.752,189.941,615.7,193.134Z"/><path class="b" d="M632.7,220.748c-3.753,2-7.267,5.589-10.62,10.7-.959-3.114-4.552-6.707-10.621-10.7a25.659,25.659,0,0,0,10.621-10.621C624.232,214.04,627.745,217.554,632.7,220.748Z"/><path class="b" d="M817.495,297.216a25.906,25.906,0,0,1-9.58,10.03l-8.51-.091H779.922V253.014h29.8c3.21,0,4.814-.424,5.731-1.968L799.29,236.981l-8.824,13.782H779.922v-48.1h35.3c3.324,0,4.813-.42,5.73-1.969l-16.731-14.766-9.283,14.486H724l.573,2.249h37.588v48.1H729.154l.574,2.251h32.431v54.141H717.237l.573,2.251h91.345c4.69,3.369,7.509,6.431,8.34,9.131,3.353-5.111,6.867-8.7,10.62-10.7C823.164,304.643,819.651,301.129,817.495,297.216Z"/><path class="d" d="M784.025,179.473l1.649,2.13c.044,1.15-.4,3.2-2.966,6.082-2.1-2.9-2.2-4.934-1.968-6.075l2.007-2.137-3.123-5.331-3.718,5.331,1.77,2.137c.1,1.069-.18,2.926-2.209,5.536-2.6-3.488-2.836-5.975-2.621-7.393l2.421-2.766L770.9,170l-4.368,6.987,2.421,2.766c.215,1.418-.023,3.9-2.621,7.393-2.029-2.61-2.31-4.467-2.208-5.536l1.769-2.137-3.717-5.331-3.124,5.331,2.007,2.137c.235,1.141.135,3.18-1.968,6.075-2.565-2.883-3.01-4.932-2.966-6.082l1.649-2.13-4-5.331.7,6.392.307,2.811.674,6.16h0l.307,2.816h30.285l.308-2.816h0l.673-6.16.307-2.811.7-6.392Z"/><path class="e" d="M648.536,384.29c-1.3,2.948-3.262,4.211-7.99,4.211h-62.94c5.708,40.238,23.644,82.578,71.908,109.965l-.164,2.528c-7.174,1.474-11.74,5.477-13.37,15.588-44.351-32.441-57.233-85.106-61.636-128.081h-.161c-4.4,50.348-19.73,95.851-76.147,128.5l-1.793-3.58C542.549,478.664,556.083,436.11,560,388.5h-62.94l-1.141-4.634h64.406c1.3-17.9,1.3-32.861,1.3-63.2l21.687,2.526c-.164,2.951-1.469,4.637-6.849,5.057-.325,18.958-.489,37.5-1.793,55.613h46.144Z"/><path class="e" d="M634.849,429.826a55.319,55.319,0,0,1,2.041,14.433c0,4.08-.437,16.18-9.767,16.18-3.646,0-5.249-2.477-5.249-4.81s1.459-4.666,3.5-6.414c3.061-3.5,7-12.392,7-19.536Z"/><path class="e" d="M644.47,424.423c8.017,7,10.787,13.7,10.787,18.66,0,5.394-3.061,8.891-6.267,8.891a4.949,4.949,0,0,1-4.227-2.624,48.086,48.086,0,0,0,.581-6.706,58.157,58.157,0,0,0-2.768-17.638Z"/><path class="e" d="M659.708,419.679c11.517,6.27,15.163,13.267,15.163,18.37,0,3.934-2.333,6.7-5.1,6.7a5.51,5.51,0,0,1-4.081-2.04c-.146-6.851-3.792-16.474-7.582-22.014Z"/><path class="e" d="M679.374,314.3l5.268-6.8,14.444,10.367c-1.018,1.19-3.567,2.549-6.455,3.056v47.585c0,.341-3.4,3.739-11.727,3.739v-6.117H664.079v18.355h11.556l6.968-9.007,13.6,9.514c-1.36,2.381-3.4,3.231-7.818,3.231h-24.3v16.653c10.537-.678,22.094-1.528,33.65-2.379l.168,2.89c-16.484,3.739-39.087,8.666-70.356,14.615a6.437,6.437,0,0,1-4.418,3.568l-5.608-15.975c7.138-.17,19.374-.848,33.989-1.869v-17.5H622.443l-1.189-3.738H651.5V366.128H635.359v4.079c0,.171-1.36,4.08-11.556,4.08v-65.6l12.406,5.607Zm-44.015,3.739v44.355h17.334V318.034Zm3.4,7.308c7.987,7.988,10.706,15.636,10.706,21.073,0,5.266-2.378,8.668-5.269,8.668-1.189,0-2.378-.682-3.567-2.21a34.128,34.128,0,0,0,.17-4.248,65.838,65.838,0,0,0-4.42-22.435Zm24.132,37.047H680.9v-32.46a4.574,4.574,0,0,1-2.549.682c-2.379,5.946-6.8,17.161-10.876,25.15l-2.211-.848c1.7-9.008,3.739-22.774,4.419-29.912l11.217,3.061V318.034H662.89Z"/><path class="e" d="M676.4,412.924c11.821,4.111,15.676,10.151,15.676,14.52,0,3.083-2.055,5.268-4.369,5.268-1.156,0-1.269-.6-2.425-1.759-.772-5.654-5.926-12.761-10.039-17Z"/><path class="e" d="M747.651,366.784c-1.123,1.963-2.946,2.806-6.734,2.806H716.645v52.835H728.71l4.771-6.314,12.486,9.4c-.982,1.123-2.525,1.825-5.471,2.386v50.929c0,.7-3.788,3.086-8.84,3.086h-1.682v-9.4h-34.8v7.157c0,.841-3.225,3.366-8.557,3.366h-1.684V417.514l11.925,4.911H705.7V332.971l17.4,1.545c-.282,2.243-1.825,3.227-6.454,3.786v28.2h12.206l6.453-9.261Zm-17.677,58.727h-34.8v43.915h34.8Z"/><path class="e" d="M785.289,456.4a3.406,3.406,0,0,1-2.795,2.056,18.082,18.082,0,0,1-2.412.127c-8.1,11.987-24.141,26.916-41.9,36.843l-1.472-1.894c14.132-11.879,27.538-29.647,33.127-42.92Z"/><path class="e" d="M799.724,455.187c36.258,8.183,47.544,22.573,47.544,30.615,0,3.385-2.118,5.5-5.08,5.5a8.593,8.593,0,0,1-3.951-.987c-7.475-11.287-25.393-25.817-39.358-33.436Z"/><path class="e" d="M867.19,442.835a2.49,2.49,0,0,0-1.556-.648q-7.906-1.542-15.8-3.133a22.846,22.846,0,0,0-6.024-.3c-.782.049-1.625.34-1.7,1.26s-.106,1.96,1.174,2.19a2.434,2.434,0,0,1-.134,1.265l-2.582-.062H827.81V389.168h21.644c4.014,0,5.735-1.091,6.882-3.638l-14.192-12.559-7.453,12.194H767.752V359.686c23.651-2.184,49.595-7.281,66.795-12.376a12.131,12.131,0,0,0,5.018,1.456,3.593,3.593,0,0,0,2.865-1.273l-12.47-14.564c-13.33,7.1-37.41,16.2-58.911,21.843l-14.908-7.279v95.913h-26.66l.86,4.006H840.912a2.339,2.339,0,0,0,.069,2.138c.792,1.681,2.2,1.982,3.815,2a16.685,16.685,0,0,0,4.578-.426c5.741-1.558,11.481-3.12,17.209-4.727.779-.218,1.855-.222,2.08-1.258C868.914,443.979,867.789,443.535,867.19,442.835Zm-51.134.571h-48.3V389.168h48.3Zm27.295-1.216c-.175-1.281.757-1.313,1.607-1.318a36.333,36.333,0,0,1,8.8,1.168,16.566,16.566,0,0,1,5.064,1.648c-.6.043-1.184.082-1.768.119l-8.89-.216A19.5,19.5,0,0,1,843.351,442.19Zm-1.385,6.722a16.045,16.045,0,0,1,2.361-1.5h10.429C849.849,449.235,844.535,449.971,841.966,448.912Z"/><path class="f" d="M500.066,488.926a5.086,5.086,0,0,1-.548-.029l-41.308-4.553a4.936,4.936,0,0,1-4.365-5.446l6.829-61.963a4.925,4.925,0,0,1,4.9-4.4,4.813,4.813,0,0,1,.547.03l41.309,4.552a4.936,4.936,0,0,1,4.364,5.447l-6.829,61.963A4.924,4.924,0,0,1,500.066,488.926Z"/><path class="g" d="M465.573,412.8h0a4.777,4.777,0,0,1,.518.028L507.4,417.38a4.679,4.679,0,0,1,4.135,5.159L504.706,484.5a4.665,4.665,0,0,1-4.64,4.163,4.774,4.774,0,0,1-.519-.028l-41.309-4.553a4.681,4.681,0,0,1-4.135-5.159l6.829-61.963a4.667,4.667,0,0,1,4.641-4.164m0-.52a5.2,5.2,0,0,0-5.157,4.627l-6.829,61.963a5.2,5.2,0,0,0,4.594,5.733l41.309,4.552a5.092,5.092,0,0,0,.576.032,5.2,5.2,0,0,0,5.157-4.626l6.829-61.964a5.2,5.2,0,0,0-4.6-5.732l-41.309-4.553a5.32,5.32,0,0,0-.575-.032Z"/><path class="f" d="M879.985,334.166a5,5,0,0,1-.862-.076L838.2,326.873a4.936,4.936,0,0,1-4-5.717l10.825-61.391a4.927,4.927,0,0,1,4.854-4.08,5,5,0,0,1,.863.076l40.928,7.217a4.94,4.94,0,0,1,4,5.717l-10.825,61.391A4.925,4.925,0,0,1,879.985,334.166Z"/><path class="g" d="M849.871,255.945h0a4.7,4.7,0,0,1,.818.072l40.927,7.217a4.681,4.681,0,0,1,3.793,5.416l-10.825,61.391a4.67,4.67,0,0,1-5.417,3.793l-40.927-7.217a4.681,4.681,0,0,1-3.793-5.416l10.825-61.391a4.667,4.667,0,0,1,4.6-3.865m0-.519a5.2,5.2,0,0,0-5.11,4.293l-10.825,61.392a5.2,5.2,0,0,0,4.214,6.018l40.927,7.216a5.188,5.188,0,0,0,6.018-4.213L895.92,268.74a5.2,5.2,0,0,0-4.214-6.018l-40.927-7.217a5.314,5.314,0,0,0-.908-.079Z"/><path class="f" d="M432.421,477.243a4.9,4.9,0,0,1-3.962-1.989l-37.223-50.007a4.94,4.94,0,0,1,1.012-6.9l33.338-24.815a4.934,4.934,0,0,1,6.9,1.013l37.222,50.005a4.934,4.934,0,0,1-1.012,6.906l-33.337,24.815A4.9,4.9,0,0,1,432.421,477.243Z"/><path class="g" d="M428.528,392.811a4.637,4.637,0,0,1,3.755,1.884L469.505,444.7a4.674,4.674,0,0,1-.959,6.542l-33.337,24.814a4.673,4.673,0,0,1-6.542-.958l-37.222-50.006a4.674,4.674,0,0,1,.959-6.542l33.337-24.815a4.63,4.63,0,0,1,2.787-.925m0-.52a5.172,5.172,0,0,0-3.1,1.028l-33.338,24.815a5.2,5.2,0,0,0-1.065,7.269l37.222,50.006a5.194,5.194,0,0,0,7.269,1.065l33.338-24.815a5.2,5.2,0,0,0,1.065-7.269L432.7,394.384a5.191,5.191,0,0,0-4.172-2.093Z"/><path class="f" d="M475.019,419.323a5.024,5.024,0,0,1-.863-.076l-40.927-7.217a4.942,4.942,0,0,1-4-5.718l10.825-61.39a4.926,4.926,0,0,1,4.854-4.08,5.016,5.016,0,0,1,.863.076l40.928,7.217a4.94,4.94,0,0,1,4,5.717l-10.825,61.392A4.925,4.925,0,0,1,475.019,419.323Z"/><path class="g" d="M444.9,341.1h0a4.681,4.681,0,0,1,.817.072l40.928,7.217a4.679,4.679,0,0,1,3.792,5.416L479.617,415.2a4.665,4.665,0,0,1-4.6,3.865,4.8,4.8,0,0,1-.818-.072l-40.927-7.217a4.681,4.681,0,0,1-3.793-5.416l10.825-61.392a4.666,4.666,0,0,1,4.6-3.864m0-.519a5.2,5.2,0,0,0-5.109,4.293L428.97,406.268a5.2,5.2,0,0,0,4.213,6.018l40.928,7.216a5.188,5.188,0,0,0,6.018-4.214L490.954,353.9a5.2,5.2,0,0,0-4.214-6.018l-40.927-7.217a5.319,5.319,0,0,0-.909-.079Z"/><path class="c" d="M492.516,450.209c-2.085-2.851-5.9-1.716-5.9-1.716a4.4,4.4,0,0,0,1.982-3.564c.009-.06.018-.12.025-.181a5.166,5.166,0,1,0-10.278-.078,4.669,4.669,0,0,0,1.249,3.049s-3.473-1.937-6.128.391a5.4,5.4,0,0,0-1.174,6.622c.634,1.091,1.566,2.909,4.222,3,2.349.084,2.737-.276,4.482-1.379a10.633,10.633,0,0,1-2.979,5.668l.132.015,3.379.372,3.379.373.132.014a10.036,10.036,0,0,1-1.635-6.143c1.429,1.426,1.745,1.858,4.036,2.284,2.613.486,3.918-1.085,4.775-2.013A5.394,5.394,0,0,0,492.516,450.209Z"/><path class="b" d="M873.516,283.61c-4.961-1-6.78,2.6-7.367,4.388.059-1.877-.418-5.884-5.421-6.643-6.579-1-8.742,6.191-7.107,10.3a34.776,34.776,0,0,0,4.482,8.279c1.762,2.61,3.895,5.574,4.576,7.28,0,0,.019.188.056.145.02.053.1-.118.1-.118,1.223-1.369,4.241-3.425,6.79-5.275a34.8,34.8,0,0,0,7.043-6.246C879.613,292.417,880.04,284.923,873.516,283.61Z"/><path class="b" d="M421.5,423.571l-.541,18.556,18.248,4.277.712-18.835Z"/><path class="c" d="M469.858,378.458c-2.211-3.467-4.878-6.94-5.94-8.7-.8-1.323-1.35-2.319-1.577-2.734l.033-.187-.09.081c-.038-.069-.058-.107-.058-.107l-.033.187c-.355.312-1.216,1.059-2.417,2.029-1.6,1.294-5.3,3.645-8.558,6.147a9.221,9.221,0,0,0-3.93,8.013c.082,2.567,2.26,5.353,6.418,5.56a4.6,4.6,0,0,0,3.163-1.026,9.6,9.6,0,0,1-3.29,4.912l7.89,1.391a10.241,10.241,0,0,1-1.2-5.682,4.6,4.6,0,0,0,2.607,2.023c3.978,1.227,6.978-.646,7.932-3.03A9.219,9.219,0,0,0,469.858,378.458Z"/><text class="h" transform="translate(559 525.244)"><tspan x="0" y="0">F2E_week2_FreeCell</tspan></text><text class="i" transform="translate(559 523.244)"><tspan x="0" y="0">F2E_week2_FreeCell</tspan></text></g></svg>